<?xml version="1.0" standalone="no"?>
<!DOCTYPE svg PUBLIC "-//W3C//DTD SVG 1.1//EN" "http://www.w3.org/Graphics/SVG/1.1/DTD/svg11.dtd" >
<svg xmlns="http://www.w3.org/2000/svg" xmlns:xlink="http://www.w3.org/1999/xlink" version="1.1">
<metadata></metadata>
<defs>
<font id="milkshakeregular" horiz-adv-x="911" >
<font-face units-per-em="2048" ascent="1638" descent="-410" />
<missing-glyph horiz-adv-x="430" />
<glyph horiz-adv-x="0" />
<glyph unicode="&#xd;" horiz-adv-x="471" />
<glyph horiz-adv-x="0" />
<glyph horiz-adv-x="0" />
<glyph unicode=" "  horiz-adv-x="430" />
<glyph unicode="&#x09;" horiz-adv-x="430" />
<glyph unicode="&#xa0;" horiz-adv-x="430" />
<glyph unicode="!" horiz-adv-x="589" d="M106 90q0 27 13.5 56.5t35 54t51.5 41t60 16.5q47 0 77 -27.5t30 -76.5q0 -29 -11.5 -58.5t-33 -55.5t-51 -42t-64.5 -16q-49 0 -78 29.5t-29 78.5zM205 367q0 12 20.5 82.5t52 172t68.5 220.5t68.5 228.5t52 195.5t20.5 123q0 35 58 34q25 0 58.5 -15t65 -38.5t53 -53.5 t21.5 -59q0 -20 -17 -70t-47 -119t-65.5 -151.5t-73.5 -167.5t-73 -168t-59 -151q-18 -53 -58 -72q-29 -14 -60.5 -20t-45.5 -6q-39 0 -39 35z" />
<glyph unicode="&#x22;" horiz-adv-x="557" d="M106 1040q0 12 6.5 57.5t14.5 97.5t15.5 97t9.5 58q8 43 39.5 62.5t84.5 19.5q59 0 84 -18.5t25 -53.5q0 -23 -20.5 -70t-47 -98t-51 -94t-30.5 -58q-14 -27 -29.5 -44t-48.5 -17q-35 0 -43.5 16.5t-8.5 44.5zM414 1040q0 12 6 57.5t14 97.5t15.5 97t9.5 58 q8 43 39.5 62.5t85.5 19.5q59 0 83.5 -18.5t24.5 -53.5q0 -23 -20.5 -70t-47 -98t-51 -94t-30.5 -58q-14 -27 -29.5 -44t-48.5 -17q-35 0 -43 16.5t-8 44.5z" />
<glyph unicode="#" horiz-adv-x="925" d="M16 565q0 27 20.5 56.5t49.5 29.5h111l82 197h-115q-37 0 -37 43q0 25 13.5 54.5t41.5 29.5h142l84 211q8 23 33.5 29t39.5 6q25 0 42.5 -16.5t17.5 -39.5l-74 -190h158l77 215q6 18 36 24.5t42 6.5q23 0 39.5 -16.5t16.5 -39.5q0 -6 -7.5 -26.5t-16.5 -49t-20.5 -59.5 t-19.5 -55h115q16 0 31.5 -8.5t15.5 -28.5q0 -27 -15.5 -58.5t-44.5 -31.5h-145l-70 -199h101q23 0 28 -17.5t5 -35.5q0 -23 -15.5 -47.5t-44.5 -24.5h-125l-69 -209q-14 -35 -66 -34q-23 0 -46.5 12t-23.5 35q0 8 7.5 31.5t16.5 51t20.5 58.5t19.5 55h-176l-84 -219 q-8 -16 -34 -20t-42 -4q-25 0 -39 15t-14 38q0 6 6 25.5t16.5 45t21.5 57.5t23 62h-86q-20 0 -31.5 14.5t-11.5 26.5zM344 651h170l72 195h-160z" />
<glyph unicode="$" horiz-adv-x="942" d="M12 326q0 51 28 97t71 79t93 52t95 19q12 0 21.5 -5t9.5 -15t-11.5 -24.5t-24.5 -37t-24.5 -56.5t-11.5 -85q0 -66 35 -105.5t98 -39.5q59 0 97 46t38 120q0 82 -41 149.5t-90 131t-90 128t-41 142.5q0 57 23.5 113.5t66.5 102.5t102.5 78.5t131.5 47.5l26 75 q8 25 28 38.5t73 13.5q57 0 80.5 -13.5t23.5 -38.5l-24 -77q49 -12 82.5 -33t55 -45.5t31 -52t9.5 -54.5q0 -45 -26.5 -85t-65.5 -70.5t-80 -49t-70 -18.5q-31 0 -31 31q0 8 7.5 22.5t16.5 35t16.5 49t7.5 67.5q0 94 -82 94q-55 0 -93 -36t-38 -107q0 -61 39.5 -118.5 t88 -119t88.5 -133.5t40 -160q0 -74 -25 -137t-69 -111.5t-103 -82t-129 -48.5l-23 -67q-8 -25 -27.5 -38t-72.5 -13q-57 0 -80.5 13t-23.5 38l20 65q-51 10 -96 31t-78 50.5t-52.5 66.5t-19.5 80z" />
<glyph unicode="%" horiz-adv-x="1216" d="M25 1149q0 59 22.5 112.5t61 92.5t91 61.5t111.5 22.5t112.5 -22.5t92.5 -61.5t61.5 -92.5t22.5 -112.5t-22.5 -111.5t-61.5 -91.5t-92 -61.5t-113 -22.5q-59 0 -111.5 22.5t-91 61.5t-61 91.5t-22.5 111.5zM158 51q0 10 4 20.5t8 22.5l739 1336q8 12 21.5 24t32.5 12 q68 0 123 -14.5t55 -32.5q0 -20 -7.5 -37.5t-25.5 -50.5l-731 -1308q-8 -18 -23.5 -26.5t-31.5 -8.5q-14 0 -42 1t-54.5 7t-47 19.5t-20.5 35.5zM186 1149q0 -53 36 -89t89 -36t89 36t36 89t-35.5 89t-89.5 36q-53 0 -89 -36t-36 -89zM702 293q0 59 23 111.5t61.5 91.5 t92 61.5t112.5 22.5t111.5 -22.5t91.5 -61.5t61.5 -91.5t22.5 -111.5t-22.5 -112.5t-61.5 -92.5t-91 -61.5t-112 -22.5q-59 0 -112.5 22.5t-92 61.5t-61.5 92.5t-23 112.5zM864 293q0 -53 37 -90t90 -37t88 37t35 90t-35 88t-88 35t-90 -35t-37 -88z" />
<glyph unicode="&#x26;" horiz-adv-x="1460" d="M41 1247q0 39 26.5 78t63.5 69.5t76 50t61 19.5q10 0 14.5 -6t4.5 -12q0 -10 -18.5 -36t-18.5 -62q0 -49 28.5 -91.5t79.5 -74.5q33 63 93.5 118.5t135.5 96.5t158.5 63.5t163.5 22.5q55 0 103.5 -13.5t84.5 -37t56.5 -57.5t20.5 -75q0 -57 -44.5 -108t-119 -89 t-175 -59.5t-212.5 -21.5h-37q0 -39 7 -69.5t17 -53.5q10 -27 25 -47q16 2 39 6q18 2 43.5 4t58.5 2q121 0 121 -71q0 -31 -36 -63t-95 -32q-37 0 -67.5 5.5t-53.5 13.5q-25 8 -45 20q-76 -45 -135 -106q-51 -53 -93 -131t-42 -183q0 -129 74.5 -197.5t203.5 -68.5 q74 0 139.5 30t119 79t91 109.5t56.5 121.5q-61 -29 -118.5 -46t-104.5 -17q-78 0 -114 29.5t-36 74.5q0 49 39 96t96.5 83t123 57.5t118.5 21.5q49 0 90 -12t70 -39q35 43 55 86t20 80q0 29 -15 44t-40 15q-18 0 -38.5 -8t-39 -18.5t-33 -18.5t-20.5 -8q-14 0 -24.5 6 t-10.5 27q0 14 29 41.5t72 54.5t94 47.5t96 20.5q55 0 93 -34t38 -93q0 -86 -64.5 -177.5t-158.5 -168.5q2 -10 2 -19.5v-19.5q0 -92 -58.5 -190.5t-155.5 -179.5t-224 -133t-267 -52q-86 0 -172 20.5t-154.5 65.5t-112.5 115.5t-44 168.5q0 68 18.5 125.5t48 104.5t68.5 85 t80 68q96 70 217 115q-41 27 -74 63q-29 31 -52 75t-23 102q-125 27 -206 76t-81 122zM598 1122q88 0 163 14.5t130 41t86 63.5t31 82q0 33 -31 52.5t-74 19.5q-47 0 -94 -20.5t-88 -56.5t-74 -86t-49 -110zM805 475q0 -39 47 -39q39 0 84 17.5t92 48.5q-4 59 -27.5 79.5 t-58.5 20.5q-18 0 -41.5 -12t-45 -30.5t-36 -41t-14.5 -43.5z" />
<glyph unicode="'" horiz-adv-x="299" d="M104 1040q0 12 6.5 57.5t14.5 97.5t15 97t10 58q8 43 39.5 62.5t84.5 19.5q59 0 84 -18.5t25 -53.5q0 -23 -20.5 -70t-47 -98t-51 -94t-31.5 -58q-14 -27 -29 -44t-48 -17q-35 0 -43.5 16.5t-8.5 44.5z" />
<glyph unicode="(" horiz-adv-x="393" d="M0 453q0 174 70.5 336.5t174 304t219.5 254t206 186.5q18 16 33.5 25.5t31.5 9.5q18 0 31.5 -14.5t13.5 -30.5t-12 -31.5t-31 -36.5q-68 -74 -151.5 -187.5t-157.5 -254t-124 -299t-50 -324.5q0 -80 6 -139t18.5 -105.5t30 -85t37.5 -75.5q4 -8 8 -18.5t4 -20.5 q0 -14 -12 -26.5t-29 -12.5q-10 0 -23 9t-24 17q-12 8 -55 50.5t-91 110t-86 158.5t-38 200z" />
<glyph unicode=")" horiz-adv-x="616" d="M-41 -47q0 16 12.5 31.5t30.5 35.5q68 74 152 188t157.5 254t123.5 299t50 324q0 80 -6 139.5t-18 105.5t-29.5 85t-38.5 76q-4 8 -8 18.5t-4 20.5q0 14 12.5 26.5t28.5 12.5q10 0 23.5 -9.5t23.5 -17.5q12 -10 55 -51t91.5 -108.5t86 -158.5t37.5 -200 q0 -174 -70.5 -337t-174 -304t-219 -253.5t-205.5 -186.5q-18 -16 -34 -25.5t-32 -9.5q-18 0 -31.5 14.5t-13.5 30.5z" />
<glyph unicode="*" horiz-adv-x="552" d="M0 1079q0 29 27 43q43 25 83 39.5t56 22.5q-49 25 -82 39t-55 24q-27 12 -27 41q0 25 20.5 57.5t49.5 32.5q12 0 29.5 -11t37 -26.5t38 -32t34.5 -28.5q0 29 -3 78t-3 88q0 18 18.5 34.5t52.5 16.5q37 0 54.5 -16.5t17.5 -34.5q0 -6 -1 -28.5t-3 -49.5t-3 -51.5t-1 -36.5 q12 8 31.5 24.5t41 33t41 27.5t33.5 11q12 0 23.5 -10t21 -24.5t15.5 -31t6 -28.5q0 -29 -23 -37q-41 -18 -85 -35.5t-66 -21.5q37 -14 83 -33.5t64 -28.5q12 -6 19.5 -14t7.5 -27q0 -25 -18.5 -57.5t-47.5 -32.5q-8 0 -28.5 10.5t-44 24.5t-45 29.5t-33.5 25.5q2 -35 6 -67 q2 -29 4 -56.5t2 -43.5t-16.5 -35t-55.5 -19q-35 0 -53 18.5t-18 35.5q0 35 3 84t7 85q-12 -12 -30.5 -28.5t-40 -30.5t-42 -24.5t-34.5 -10.5q-12 0 -24.5 9.5t-22 22.5t-15.5 27.5t-6 26.5z" />
<glyph unicode="+" horiz-adv-x="937" d="M31 717q0 29 10 60.5t29 31.5h301v299q0 23 31.5 33t60.5 10t62.5 -10.5t33.5 -28.5v-303h299q23 0 33 -32t10 -60q0 -29 -10 -62.5t-29 -33.5h-303v-297q0 -10 -10 -18.5t-24.5 -13.5t-31 -8t-30.5 -3q-29 0 -60.5 10t-31.5 28v302h-297q-10 0 -18.5 10t-13.5 24.5 t-8 30.5t-3 31z" />
<glyph unicode="," horiz-adv-x="368" d="M68 -174q0 14 10 30.5t22.5 38t22.5 49t10 64.5q0 29 -15.5 47t-15.5 49q0 47 33 78t84 31q109 0 109 -111q0 -55 -30 -109t-70 -97t-77.5 -70t-52.5 -27q-31 0 -30 27z" />
<glyph unicode="-" horiz-adv-x="890" d="M35 643q0 12 8 20.5t18 8.5t22.5 -8.5t28 -17.5t36 -16t47.5 -7q78 0 148.5 7t134 16t117.5 16.5t101 7.5q27 0 57.5 -21.5t56.5 -49.5t43 -55.5t17 -39.5t-11 -22.5t-19 -10.5q-12 0 -48 20.5t-87 20.5q-74 0 -137.5 -17.5t-122 -37t-109.5 -37t-100 -17.5q-41 0 -77 32 t-63.5 73t-44 80t-16.5 55z" />
<glyph unicode="." horiz-adv-x="503" d="M121 90q0 27 13 56.5t34.5 54t51.5 41t61 16.5q47 0 76.5 -27.5t29.5 -76.5q0 -29 -11 -58.5t-32.5 -55.5t-51.5 -42t-65 -16q-49 0 -77.5 29.5t-28.5 78.5z" />
<glyph unicode="/" horiz-adv-x="743" d="M84 20q0 10 10 35l541 1409q4 10 16.5 20.5t28.5 10.5q27 0 54.5 -4t51 -10t39 -14.5t15.5 -16.5q0 -12 -4.5 -24.5t-8.5 -22.5l-542 -1387q-12 -29 -45 -28h-86q-27 0 -48.5 5t-21.5 27z" />
<glyph unicode="0" horiz-adv-x="1263" d="M20 354q0 133 42 266.5t112 254t162 225t192.5 180.5t203 120t192.5 44q68 0 126 -19.5t101 -57.5t67.5 -96.5t24.5 -133.5q0 -92 -32.5 -214t-90 -251t-138.5 -254t-176 -222.5t-203.5 -158t-221.5 -60.5q-72 0 -137.5 23t-114.5 70t-79 117.5t-30 166.5zM299 322 q0 -102 43 -155.5t109 -53.5q68 0 132 57t122.5 149.5t107.5 208t84 231t55.5 221t20.5 179.5q0 72 -28 106.5t-71 34.5q-51 0 -114.5 -40.5t-127 -112.5t-123.5 -167t-106.5 -203.5t-75 -225.5t-28.5 -229z" />
<glyph unicode="1" horiz-adv-x="671" d="M25 1016q0 35 15 68.5t37.5 63.5t46 54.5t42.5 40.5q12 12 19.5 16.5t15.5 4.5q20 0 20 -21q0 -49 21.5 -81t64.5 -32q27 0 50.5 4.5t43.5 10.5q23 6 43 14q37 74 80 131q37 49 85 91t102 42q41 0 72.5 -29.5t31.5 -70.5q0 -43 -45 -106.5t-121 -122.5q-25 -20 -64.5 -84 t-85.5 -155t-92.5 -202.5t-83 -224.5t-60 -219.5t-23.5 -188.5q0 -18 -6.5 -29t-30.5 -11q-18 0 -48 16t-58.5 41.5t-49 55.5t-20.5 57q0 57 23.5 139t59 173t77.5 181t79 165t62.5 123t29.5 56q-4 -2 -24.5 -14t-51 -25.5t-69.5 -24t-78 -10.5q-43 0 -76.5 28t-33.5 75z " />
<glyph unicode="2" horiz-adv-x="1146" d="M-162 164q0 39 17.5 77t49.5 66.5t75 46t96 17.5q59 0 142 -21.5t177 -50.5q100 84 200.5 195.5t180.5 230.5t129 237.5t49 219.5q0 66 -45 104.5t-110 38.5q-57 0 -126 -38t-129.5 -100.5t-100.5 -140t-40 -157.5q0 -43 10.5 -68.5t26 -38t29.5 -16.5t25 -4q25 0 24 -21 q0 -10 -11 -24.5t-31.5 -29.5t-52.5 -25.5t-71 -10.5q-41 0 -82 13.5t-74.5 39t-55 62.5t-21.5 84q0 129 72.5 238.5t185 188.5t248 123t260.5 44q80 0 147.5 -21.5t116.5 -63.5t76.5 -100.5t27.5 -132.5q0 -88 -58 -200.5t-153.5 -230t-216 -234.5t-245.5 -213 q59 -14 117.5 -22.5t113.5 -8.5q57 0 102 16.5t77 37t52.5 37t30.5 16.5q25 0 25 -21q0 -8 -12.5 -35.5t-35 -63.5t-53 -76t-69.5 -72.5t-83 -54t-91 -21.5q-76 0 -170.5 43t-192.5 92q-98 -63 -183 -99t-145 -36q-102 0 -163.5 55t-61.5 129zM-18 178q0 -31 23.5 -44 t49.5 -13q39 0 86 17.5t101 49.5q-47 20 -90 32.5t-78 12.5q-47 0 -69.5 -17t-22.5 -38z" />
<glyph unicode="3" horiz-adv-x="1126" d="M-49 238q0 49 40 91t91 73.5t96 49t58 17.5q31 0 30 -23q0 -10 -4 -16t-12 -16q-16 -23 -42 -66t-26 -90q0 -29 12.5 -56.5t35 -50t57.5 -37t80 -14.5q74 0 146.5 41t130.5 115t94 176.5t36 226.5q0 86 -40 137.5t-116 51.5q-18 -20 -48.5 -48t-69.5 -52.5t-82 -42 t-86 -17.5t-69.5 23.5t-26.5 62.5q0 51 46 85t101 54q66 23 147 37l187 172q-47 0 -124 4t-150.5 18.5t-127 42t-53.5 77.5q0 39 37 72.5t87 57t100.5 37t74.5 13.5q33 0 33 -27q0 -8 -7 -15t-14.5 -16.5t-14.5 -19.5t-7 -25q0 -23 24.5 -41t66.5 -31.5t94.5 -20.5t107.5 -7 q37 55 80 100q37 39 83 71t97 32q47 0 73.5 -25.5t26.5 -68.5q0 -63 -66.5 -115.5t-189.5 -81.5q-12 -12 -48 -45t-73 -68q-43 -39 -94 -86q57 0 117.5 -16t111 -55t82 -100.5t31.5 -153.5q0 -135 -64.5 -254t-166 -206t-226 -138t-247.5 -51q-90 0 -167 18t-133.5 52 t-88 82t-31.5 106z" />
<glyph unicode="4" horiz-adv-x="1325" d="M59 641q0 33 16.5 58.5t41 42t56.5 24.5t63 8q37 0 70.5 -4t60.5 -8q31 -6 57 -12q68 74 121 155q45 68 83 152t38 162q0 37 -22.5 58t-53.5 21q-23 0 -45.5 -8t-42 -17t-33.5 -17.5t-23 -8.5q-10 0 -20 10.5t-10 20.5q0 14 29.5 43t75.5 55.5t101.5 47t104.5 20.5 q76 0 134.5 -38t58.5 -120q0 -37 -14.5 -82t-38 -93t-54.5 -96t-61 -93q-74 -106 -166 -217q33 -16 69 -33q33 -14 76 -29.5t94 -26.5q43 106 95.5 217t104.5 208.5t103.5 175t94.5 120.5q29 29 68.5 49.5t79.5 33t73 18.5t47 6q18 0 18 -21q0 -12 -37.5 -53t-93.5 -127 q-16 -25 -53 -86t-83 -146t-97 -188.5t-96 -216.5q68 12 110.5 36t69.5 44q18 14 28 14t16.5 -7t6.5 -13q0 -12 -10 -31q-16 -27 -45 -67.5t-69 -82.5t-88 -74t-101 -40q-29 -98 -47.5 -191.5t-18.5 -177.5q0 -37 -35 -36q-20 0 -52 13t-62.5 35.5t-52 54.5t-21.5 69 q0 35 20.5 109.5t55.5 172.5q-49 25 -96.5 52.5t-87.5 52t-70.5 41t-44.5 16.5q-35 -25 -76 -43q-35 -16 -81 -28.5t-93 -12.5q-55 0 -100.5 38t-45.5 91z" />
<glyph unicode="5" horiz-adv-x="1054" d="M-131 238q0 49 40 91t91 73.5t96 49t58 17.5q31 0 30 -23q0 -10 -4 -16t-12 -16q-16 -23 -42 -66t-26 -90q0 -29 12.5 -56.5t38 -50t64.5 -37t92 -14.5q76 0 146.5 40t123 111t84 165t31.5 205q0 74 -19.5 117.5t-48 66t-62.5 30t-64 7.5q-16 0 -30.5 -4t-25.5 -9 q-12 -6 -24 -10q-31 -55 -68 -98q-31 -37 -69.5 -67.5t-79.5 -30.5q-43 0 -69 26.5t-26 65.5q0 35 30 68.5t65 58.5q41 29 94 53l135 281q-27 25 -47 49q-18 23 -32.5 47t-14.5 51q0 59 39 90t82 31q45 0 71.5 -25.5t40.5 -54.5q16 -37 23 -80q12 -4 29 -8q14 -4 30.5 -6 t34.5 -2q61 0 126 13t125 34.5t113.5 50.5t92.5 59q25 18 41 19q10 0 21.5 -10.5t11.5 -20.5q0 -12 -6.5 -24.5t-14.5 -24.5q-29 -45 -69 -96t-86 -94.5t-93 -72t-88 -28.5q-37 0 -87 8.5t-97 18.5q-53 12 -109 28l-92 -206q10 4 29 10q14 4 36.5 7t51.5 3q70 0 141.5 -19.5 t129 -58.5t94 -98t36.5 -139q0 -135 -64.5 -253t-165.5 -205t-226 -138t-248 -51q-90 0 -167 18t-133.5 52t-88 82t-31.5 106z" />
<glyph unicode="6" horiz-adv-x="1155" d="M25 440q0 125 43 248t115.5 234.5t166.5 207t198.5 165t210 109.5t199.5 40q115 0 160 -38t45 -95q0 -45 -25.5 -87t-60.5 -76t-69.5 -54.5t-53.5 -20.5q-39 0 -39 35q0 10 9.5 23.5t19.5 33t19.5 44t9.5 57.5q0 23 -16.5 39t-43.5 16q-57 0 -123.5 -37t-133 -100.5 t-127 -149.5t-107.5 -186t-76 -209t-29 -217q0 -82 17.5 -142.5t47.5 -99.5t67.5 -58.5t80.5 -19.5q63 0 127 46.5t115 122t83 175t32 207.5q0 66 -35 94.5t-76 28.5q-72 0 -144.5 -41t-125.5 -94q-6 -6 -14.5 -12t-14.5 -6q-10 0 -20.5 7t-10.5 21q0 29 41 80t106.5 100.5 t147.5 86t166 36.5q51 0 97.5 -14t81 -45t55 -77t20.5 -109q0 -135 -62.5 -266.5t-160.5 -235t-220 -165.5t-243 -62q-66 0 -143.5 22.5t-146 76.5t-114.5 142t-46 219z" />
<glyph unicode="7" horiz-adv-x="802" d="M20 1208q0 45 35 87t82 75t95 53.5t75 20.5t27 -23q0 -12 -18.5 -34.5t-18.5 -55.5q0 -61 87 -105t288 -44q86 111 160.5 176t152.5 65q43 0 71.5 -25.5t28.5 -70.5q0 -63 -73.5 -127.5t-214.5 -122.5q-72 -84 -150 -209t-143.5 -259t-108.5 -261t-43 -213 q0 -41 8.5 -75.5t8.5 -51.5q0 -29 -31 -28q-41 0 -87 15t-85 45t-64.5 71t-25.5 92q0 45 21.5 104.5t56 127t78.5 139t92 139.5q109 158 247 334q-90 0 -186 3t-178 18t-134.5 48t-52.5 92z" />
<glyph unicode="8" horiz-adv-x="1040" d="M-57 260q0 74 44 140.5t114.5 128t160.5 121t184 118.5q-29 31 -56.5 59.5t-49 58t-34.5 62.5t-13 72q0 78 53 140.5t125 105.5t146.5 65.5t117.5 22.5q45 0 45 -29q0 -14 -9 -21.5t-30 -17.5q-12 -6 -45.5 -22.5t-69.5 -42t-63.5 -59.5t-27.5 -72q0 -59 24.5 -109.5 t63.5 -97.5q63 43 117.5 88t95.5 93t64.5 98t23.5 106q0 27 -11.5 47t-28 34.5t-33.5 23.5t-30 16q-29 14 -28 28q-1 27 34 27q51 0 111.5 -13.5t112 -39t86 -63.5t34.5 -87q0 -53 -38.5 -107.5t-103 -109.5t-147.5 -113.5t-171 -119.5q33 -35 65.5 -71t58 -75t41 -83 t15.5 -95q0 -127 -44 -218t-116 -151.5t-161 -89t-179 -28.5q-76 0 -155.5 19t-144 55t-106.5 88.5t-42 117.5zM225 201q0 -51 38 -83t87 -32t96.5 26.5t84 73.5t59 109.5t22.5 134.5t-20.5 128t-52.5 104q-66 -51 -123.5 -105.5t-99.5 -112t-66.5 -119t-24.5 -124.5z" />
<glyph unicode="9" horiz-adv-x="1179" d="M20 25q0 12 11.5 22t25.5 10q106 0 213 49.5t203 131t180 190.5t145.5 229.5t96.5 244.5t35 239q0 84 -41 128t-101 44q-70 0 -139 -45t-125.5 -118t-91.5 -164t-35 -181q0 -113 45 -172.5t111 -87.5q20 -10 30.5 -17.5t10.5 -23.5q0 -31 -70 -31q-57 0 -128.5 20.5 t-135 63.5t-107.5 110.5t-44 161.5q0 102 63.5 212t172 199t252.5 146.5t306 57.5q76 0 137.5 -18.5t106.5 -56.5t69.5 -97.5t24.5 -141.5q0 -133 -45 -269t-124 -264t-186.5 -240.5t-231.5 -196.5t-259 -132t-272 -48q-45 0 -74 11t-29 34z" />
<glyph unicode=":" horiz-adv-x="499" d="M162 252q0 27 12 54.5t31.5 50t46.5 38t57 15.5q41 0 65.5 -29t24.5 -70q0 -27 -11 -55.5t-30.5 -51t-48 -37.5t-61.5 -15q-37 0 -61.5 28.5t-24.5 71.5zM264 596q0 27 12.5 54.5t32 50t46 38t57.5 15.5q41 0 65.5 -29t24.5 -70q0 -27 -11.5 -55.5t-32 -51t-49 -37.5 t-61.5 -15q-37 0 -60.5 28.5t-23.5 71.5z" />
<glyph unicode=";" horiz-adv-x="481" d="M123 10q0 14 10 30.5t22.5 38t22.5 49.5t10 65q0 29 -14 47t-14 49q0 47 31.5 77.5t82.5 30.5q109 0 109 -110q0 -55 -29.5 -109.5t-69.5 -97.5t-78 -69.5t-52 -26.5q-31 0 -31 26zM244 637q0 27 12 54.5t31.5 50t46 38t57.5 15.5q41 0 65.5 -29t24.5 -70 q0 -27 -11 -55.5t-31.5 -51t-49.5 -37.5t-61 -15q-37 0 -60.5 28.5t-23.5 71.5z" />
<glyph unicode="&#x3c;" horiz-adv-x="638" d="M16 721q0 12 8 32.5t37 45.5q127 92 230 164q43 31 85 60.5t75.5 52t55 36.5t25.5 14q12 0 23.5 -17t19 -39.5t12.5 -45.5t5 -33q0 -12 -3 -18t-16 -17l-348 -233l344 -225q18 -12 19 -39q0 -6 -3 -27.5t-10.5 -45.5t-17.5 -43t-25 -19q-4 0 -25.5 13t-56 36.5 t-77.5 52.5t-88 59l-238 164q-16 14 -23.5 35t-7.5 37z" />
<glyph unicode="=" horiz-adv-x="931" d="M41 510q0 10 8 35.5t21.5 52.5t29 47.5t27.5 20.5h686q23 0 30 -6.5t7 -22.5q0 -10 -9.5 -36t-23.5 -53.5t-30.5 -49t-28.5 -21.5h-686q-31 0 -31 33zM82 805q0 10 8 35.5t21.5 52.5t29 47.5t27.5 20.5h686q23 0 30 -6.5t7 -22.5q0 -10 -9.5 -36t-23.5 -53.5t-30.5 -49 t-28.5 -21.5h-686q-31 0 -31 33z" />
<glyph unicode="&#x3e;" horiz-adv-x="679" d="M61 1012q0 10 5.5 32.5t12.5 45t18.5 40t23.5 17.5q2 0 23.5 -14.5t55 -37t76.5 -52t86 -60.5q103 -72 230 -164q29 -25 37 -45t8 -33q0 -16 -7 -36.5t-24 -34.5l-237 -164q-45 -31 -88 -59.5t-78 -52t-57.5 -37t-24.5 -13.5q-14 0 -24.5 19.5t-17.5 43t-10 45t-3 27.5 q0 27 18 39l344 225l-348 234q-12 10 -15.5 16t-3.5 19z" />
<glyph unicode="?" horiz-adv-x="892" d="M115 1137q0 66 35.5 120t97 94t144.5 61.5t175 21.5q203 0 315.5 -82t112.5 -240q0 -80 -35.5 -146.5t-91 -125t-123 -110.5t-130 -100t-113.5 -96.5t-72 -99.5q-10 -25 -23.5 -36t-35.5 -15q-43 -6 -75 -18.5t-50 -12.5q-10 0 -20.5 8.5t-10.5 24.5q0 49 36 104.5 t89 116t116.5 126t117 136t89 147.5t35.5 161q0 66 -39 99.5t-88 33.5q-39 0 -75.5 -15.5t-66.5 -44t-47 -68.5t-17 -91q0 -37 7 -64t16 -45t16.5 -30.5t7.5 -20.5q0 -20 -35 -21q-39 0 -84 17.5t-85 47.5t-66.5 71.5t-26.5 91.5zM127 90q0 27 13.5 56.5t35 54t51 41 t60.5 16.5q47 0 76.5 -27.5t29.5 -76.5q0 -29 -11 -58.5t-32.5 -55.5t-51.5 -42t-65 -16q-49 0 -77.5 29.5t-28.5 78.5z" />
<glyph unicode="@" horiz-adv-x="1406" d="M82 197q0 137 55.5 265t155.5 227t239.5 158.5t309.5 59.5q113 0 211 -33.5t169.5 -95t113.5 -146.5t42 -190q0 -80 -25.5 -162.5t-74.5 -149.5t-117.5 -108.5t-154.5 -41.5q-152 0 -172 153q-35 -43 -76 -78q-35 -29 -81 -52t-97 -23q-74 0 -127.5 52t-53.5 134 q0 98 37 193.5t95.5 171t133 122.5t148.5 47q53 0 92 -13t62 -30q27 -18 43 -41q20 0 42.5 -4t41 -14t31 -26.5t12.5 -39.5q0 -20 -17.5 -66t-37 -102.5t-37 -115t-17.5 -103.5t37 -45q41 0 76 31t60.5 80t39.5 111.5t14 126.5q0 78 -31.5 141t-88 107t-132 67.5 t-161.5 23.5q-147 0 -261 -51t-191 -134t-115.5 -188.5t-38.5 -211.5q0 -141 89 -211t240 -70q33 0 62.5 7.5t52 16.5t38 17t19.5 10t13.5 5.5t13.5 3.5q16 0 16 -25q0 -8 -21.5 -33.5t-58 -53.5t-85 -49.5t-101.5 -21.5q-86 0 -164 25.5t-137 76t-95 125t-36 171.5z M618 197q0 -80 54 -80q33 0 74.5 43t79.5 105.5t63.5 132t25.5 120.5q0 41 -18 59.5t-47 18.5q-39 0 -80 -41t-74.5 -101.5t-55.5 -130t-22 -126.5z" />
<glyph unicode="A" horiz-adv-x="1998" d="M0 518q0 100 36 187.5t102.5 152t160.5 101t211 36.5q141 0 278.5 -38.5t270.5 -92.5q94 154 174 270.5t154.5 193.5t147.5 116t153 39q63 0 108 -24.5t55 -35.5q43 27 88.5 36t77.5 9q61 0 62 -28q0 -10 -11.5 -23.5t-37.5 -44.5q-20 -25 -56.5 -97.5t-77.5 -173 t-84 -219t-77 -237.5h24q29 0 54.5 8.5t47 17.5t37 17t25.5 8q6 0 12.5 -6t6.5 -18q0 -14 -22 -45t-56.5 -64t-79.5 -61.5t-94 -36.5q-12 -59 -19.5 -113.5t-7.5 -99.5q0 -72 35 -103.5t82 -31.5q41 0 81 26.5t70 61.5q37 37 68 88q2 6 10 14q4 4 12.5 9.5t18.5 5.5 q16 0 29.5 -12.5t13.5 -28.5q0 -8 -3 -15.5t-7 -15.5t-9 -19q-45 -72 -100 -127q-47 -47 -111.5 -85.5t-140.5 -38.5q-57 0 -110.5 20t-93.5 57t-63.5 89.5t-23.5 115.5q0 121 31 260q-63 31 -131 70t-143 80q-88 -158 -160 -286t-147.5 -218t-164 -139t-208.5 -49 q-90 0 -179.5 44t-160 118.5t-114.5 172t-44 203.5zM193 438q0 -55 20 -102t55 -80t82.5 -51.5t100.5 -18.5q74 0 135 35t123.5 105.5t131 178t154.5 251.5q-78 31 -160.5 50t-170.5 19q-221 0 -346 -105.5t-125 -281.5zM1243 786q66 -27 128.5 -51t123.5 -43 q53 182 130 355.5t153 310.5q-10 4 -19.5 6t-25.5 2q-55 0 -105.5 -33t-107 -102.5t-123 -180t-154.5 -264.5z" />
<glyph unicode="B" horiz-adv-x="1736" d="M0 213q0 57 24.5 102t62.5 76t84 47.5t91 16.5q80 0 157 -27t152 -66l23 39q29 51 59.5 126t62.5 158t62.5 168t59 155.5t55.5 121t47 62.5q74 49 144.5 66.5t105.5 17.5q23 0 29 -8t6 -21q0 -12 -41 -59t-78 -129q-10 -23 -38 -104t-69 -187t-90 -222t-100 -206 q-12 -23 -24.5 -43.5t-24.5 -40.5q86 -47 168 -82t168 -35q57 0 108 19.5t91 56.5t63.5 89t23.5 118q0 100 -42 158.5t-85 62.5q-16 -6 -34 -12q-16 -4 -35 -8.5t-35 -4.5q-45 0 -77 24t-32 65q0 45 32 68.5t73 23.5q23 0 44 -4t40 -9q23 -6 43 -10q53 31 96 76 q35 39 65.5 94t30.5 133q0 70 -30.5 123t-81.5 90t-117 55.5t-135 18.5q-141 0 -253 -37t-188.5 -99.5t-116.5 -146.5t-40 -176q0 -47 15.5 -78.5t34.5 -53t34.5 -35t15.5 -23.5q0 -39 -43 -39q-41 0 -97 18.5t-106.5 52t-86 82t-35.5 109.5q0 115 74.5 214t196.5 172 t278.5 115t320.5 42q117 0 224.5 -24.5t190.5 -75t133 -125t50 -173.5q0 -59 -21.5 -110t-53.5 -93t-68.5 -74t-69.5 -54.5t-56.5 -34.5t-27.5 -12q2 0 39 -19.5t80 -59.5t78.5 -103.5t35.5 -155.5q0 -102 -43 -176t-110.5 -121t-150.5 -69.5t-162 -22.5q-139 0 -264.5 49 t-237.5 108q-70 -78 -152 -117.5t-192 -39.5q-63 0 -122 16t-105 47t-73.5 74t-27.5 96zM168 197q0 -41 36 -67t85 -26q63 0 109 32t94 97q-59 29 -113 47.5t-103 18.5q-47 0 -77.5 -30.5t-30.5 -71.5z" />
<glyph unicode="C" horiz-adv-x="1349" d="M0 995q0 86 52 160t123 127t144.5 84t116.5 31q35 0 35 -23q0 -14 -10 -22.5t-29 -22.5q-23 -16 -50.5 -39.5t-52 -57.5t-41 -80t-16.5 -110q0 -68 34 -134t130 -107q57 139 148.5 263t197 217t217 147.5t209.5 54.5q61 0 115.5 -29t93.5 -72t61.5 -93t22.5 -93 q0 -80 -58.5 -176t-166 -180t-260 -141.5t-342.5 -61.5q-25 -104 -25 -207q0 -197 79 -282t226 -85q55 0 110.5 18.5t108 49.5t97.5 73t80 89q2 6 10 14q4 4 12 9.5t19 5.5q18 0 30.5 -12.5t12.5 -28.5q0 -8 -3.5 -15.5t-7.5 -15.5t-8 -19q-35 -53 -86 -104t-118.5 -93 t-148.5 -67.5t-175 -25.5q-96 0 -190.5 29.5t-169 90t-122 153.5t-47.5 222q0 57 8.5 114.5t24.5 115.5q-92 23 -163.5 58.5t-123 79.5t-78 93t-26.5 98zM711 760q139 4 250.5 56t189.5 128t119 162t41 160q0 35 -20.5 56t-59.5 21q-68 0 -141.5 -47t-144.5 -128t-132 -186 t-102 -222z" />
<glyph unicode="D" horiz-adv-x="1900" d="M0 213q0 57 24.5 102t62.5 76t84 47.5t91 16.5q92 0 176 -32t168 -75q8 12 14.5 25.5t12.5 27.5q25 55 53.5 132t58 160t58 167t57.5 152.5t54.5 118t46.5 61.5q74 49 144.5 66.5t104.5 17.5q20 0 26.5 -8t6.5 -21q0 -12 -40 -59t-77 -129q-10 -23 -36.5 -98.5 t-64.5 -180t-83 -221.5t-92 -219q-12 -27 -25.5 -50.5t-27.5 -45.5q72 -37 143 -61.5t145 -24.5q111 0 203 62.5t158.5 162.5t103.5 228t37 261q0 129 -41 222.5t-108.5 154t-155.5 89t-180 28.5q-141 0 -253 -37t-188.5 -99.5t-116.5 -146.5t-40 -176q0 -47 15.5 -78.5 t34.5 -53t34.5 -35t15.5 -23.5q0 -39 -43 -39q-41 0 -97 18.5t-106.5 53t-86 83t-35.5 109.5q0 115 74.5 213t196.5 171t278.5 115t320.5 42q117 0 248 -39t241.5 -121t183 -210t72.5 -306q0 -156 -49 -304.5t-137 -265t-209 -187t-264 -70.5q-133 0 -255 45t-235 102 q-78 -76 -172 -111.5t-202 -35.5q-63 0 -122 16t-105 47t-73.5 74t-27.5 96zM168 197q0 -41 36 -67t85 -26q68 0 125 28t110 89q-70 35 -131.5 56.5t-116.5 21.5q-47 0 -77.5 -30.5t-30.5 -71.5z" />
<glyph unicode="E" horiz-adv-x="974" d="M20 1188q0 51 30 100t71 88t83 63.5t64 24.5q10 0 14.5 -6t4.5 -12q0 -10 -18.5 -36t-18.5 -62q0 -49 28.5 -91.5t79.5 -74.5q33 63 93.5 118.5t135.5 96.5t158.5 63.5t163.5 22.5q55 0 103.5 -13.5t84.5 -37t56.5 -57.5t20.5 -75q0 -53 -41 -102t-118 -89t-185.5 -67.5 t-243.5 -35.5q2 -35 9 -63t17 -48q10 -23 23 -43q16 2 39 6q18 2 43.5 4t58.5 2q121 0 121 -71q0 -31 -36 -63t-95 -32q-37 0 -67.5 5.5t-53.5 13.5q-25 8 -45 20q-76 -45 -135 -106q-51 -53 -93 -131t-42 -183q0 -129 69.5 -191.5t198.5 -62.5q111 0 209 61.5t168 168.5 q2 6 10 14q4 4 12.5 9.5t18.5 5.5q18 0 30.5 -12.5t12.5 -28.5q0 -10 -8 -31q-4 -8 -9 -17q-33 -55 -82 -107t-113.5 -93t-144.5 -66.5t-174 -25.5q-86 0 -172 20.5t-154.5 65.5t-112.5 115.5t-44 168.5q0 88 30.5 158t77 125t100.5 94t101 65.5t81 40t40 15.5 q-2 0 -22.5 11t-45 35t-47 60.5t-30.5 90.5q-156 14 -233 61t-77 121zM598 1122q88 0 163 14.5t130 41t86 63.5t31 82q0 33 -31 52.5t-74 19.5q-47 0 -94 -20.5t-88 -56.5t-74 -86t-49 -110z" />
<glyph unicode="F" horiz-adv-x="1361" d="M4 348q0 53 39 101.5t95.5 85t117.5 59t106 22.5q51 0 52 -34q0 -14 -7.5 -21.5t-29.5 -23.5q-25 -16 -50.5 -41t-45 -55.5t-32.5 -64.5t-13 -71q0 -39 14 -73.5t39.5 -60.5t60.5 -41t76 -15q86 0 150.5 47t110.5 123.5t78 173t54 192.5q-47 -4 -86 -9t-59 -5 q-72 0 -114 30.5t-42 77.5q0 39 25.5 74t59.5 60.5t66.5 40t49.5 14.5q20 0 20 -21q0 -10 -15 -32.5t-15 -57.5t41 -49t90 -14h2l28 174q16 102 41 167.5t47 104.5q25 45 54 70q-47 25 -138.5 43t-214.5 18q-92 0 -150 -42t-58 -113q0 -47 16 -79t34.5 -53.5t35 -36 t16.5 -24.5q0 -39 -43 -39q-41 0 -94.5 18.5t-100.5 53.5t-79.5 83t-32.5 109q0 80 41 131.5t101.5 82t131 43t129.5 12.5q104 0 193.5 -17.5t154.5 -38.5q78 -23 144 -53q35 25 71 45q33 16 75 30.5t89 14.5q51 0 80 -26.5t29 -63.5q0 -25 -15.5 -47t-39 -39.5t-53 -28 t-58.5 -10.5h-25.5t-25.5 2q-8 -4 -31 -17t-47.5 -49t-43 -100.5t-18.5 -171.5q0 -25 -1 -58.5t-3 -74.5q47 8 94.5 14.5t106.5 6.5q45 0 82 -11.5t37 -62.5q0 -23 -23.5 -51.5t-55.5 -55t-64.5 -44t-53.5 -17.5q-28 0 -28 25q0 41 -24 60.5t-81 23.5q-14 -109 -48 -230 t-99.5 -223t-171 -168.5t-260.5 -66.5q-106 0 -196.5 37.5t-155 93t-100.5 120t-36 117.5z" />
<glyph unicode="G" horiz-adv-x="1443" d="M0 995q0 86 49 160t116.5 127t137.5 84t113 31q35 0 35 -23q0 -14 -11.5 -24.5t-27.5 -22.5q-20 -16 -48 -38.5t-52.5 -56.5t-41 -80t-16.5 -110q0 -63 39 -120.5t117 -92.5q61 133 159.5 252t212 208t230 141.5t215.5 52.5q61 0 113.5 -21.5t90 -57.5t58 -80t20.5 -87 q0 -90 -65.5 -185.5t-180 -176t-271 -136t-341.5 -63.5q-20 -76 -20 -158q0 -98 44 -149.5t124 -51.5q53 0 106 30t96 67q51 41 97 96q25 76 57 135q29 51 69 94t91 43q35 0 56.5 -19.5t21.5 -60.5q0 -39 -20.5 -76.5t-45.5 -66.5q-28 -34 -65 -65q-23 -219 -68 -400 q92 37 151.5 87t98.5 112q2 6 10 14q4 4 12.5 9.5t18.5 5.5q18 0 30.5 -12.5t12.5 -28.5q0 -12 -8 -29q-4 -8 -9 -16q-49 -78 -132 -142.5t-222 -120.5q-43 -129 -101.5 -232t-127 -175t-146 -111t-161.5 -39q-80 0 -145.5 24.5t-113 64.5t-73 89.5t-25.5 98.5 q0 80 52.5 135t139.5 93t199.5 60.5t231.5 38.5l82 13q29 70 48 140.5t27 141.5q-51 -49 -110 -86q-51 -33 -115.5 -58.5t-130.5 -25.5q-80 0 -145.5 25t-113.5 71t-74.5 110.5t-26.5 146.5q0 102 30 200q-78 16 -143 43t-112.5 65t-75 85t-27.5 104zM475 -367q0 -88 80 -88 q37 0 81 27t89 74t90 110.5t86 137.5l-33 -11q-78 -20 -149.5 -46.5t-125.5 -58.5t-86 -69t-32 -76zM688 791q119 12 233.5 61t205 118.5t145.5 148.5t55 149q0 35 -20.5 57.5t-59.5 22.5q-68 0 -147.5 -46.5t-156.5 -123t-144.5 -177t-110.5 -210.5z" />
<glyph unicode="H" horiz-adv-x="1964" d="M0 375q0 113 56.5 187.5t147.5 118.5t204.5 62.5t230.5 18.5q63 0 121.5 -3t113.5 -7q53 156 103.5 279.5t116.5 228.5q-29 0 -65 4t-70.5 10t-67.5 10t-57 4q-84 0 -142.5 -49t-58.5 -119q0 -47 15.5 -78.5t34.5 -53t34.5 -35t15.5 -23.5q0 -39 -43 -39q-41 0 -95 21.5 t-103.5 59.5t-83 89t-33.5 113q0 70 33.5 121t86 84.5t115 49t119.5 15.5q92 0 155.5 -10.5t110.5 -22.5t87 -22.5t83 -10.5q45 63 95.5 84t101.5 21q45 0 73.5 -28t28.5 -64q0 -25 -15 -50.5t-39 -45t-50.5 -34t-50.5 -18.5q-29 -41 -70 -167t-111 -357q84 -14 164 -28.5 t160 -24.5q31 98 66.5 197.5t73.5 188.5t73 161.5t61 119.5q25 41 62 66.5t76 41t75.5 21.5t63.5 6h4q55 0 55 -28q0 -16 -49 -74q-20 -25 -58 -96.5t-81 -171t-88 -217t-82 -234.5h18q35 0 65 8.5t54.5 19.5t42 19t25.5 8q20 0 20 -24q0 -16 -23.5 -49t-62.5 -67t-87 -61.5 t-99 -33.5q-29 -125 -29 -215q0 -72 23.5 -103.5t70.5 -31.5t90 26.5t78 61.5q39 37 74 88q4 6 12 14q6 4 13.5 9.5t17.5 5.5q14 0 27.5 -11.5t13.5 -29.5q0 -8 -3 -16.5t-7 -16.5q-6 -8 -10 -21q-45 -72 -103 -125q-49 -47 -116.5 -84.5t-151.5 -37.5q-51 0 -101.5 20 t-90.5 57t-64.5 89.5t-24.5 115.5q0 51 8.5 113.5t24.5 130.5q-74 23 -153.5 49.5t-161.5 48.5q-43 -143 -99.5 -259t-130 -196.5t-169 -124.5t-218.5 -44q-106 0 -194 30.5t-150.5 85t-97.5 126t-35 153.5zM229 297q0 -39 14.5 -71.5t39 -56.5t56.5 -37t67 -13 q86 0 150.5 45t115.5 119.5t92 171t78 198.5q-20 2 -40 3t-40 1q-121 0 -219.5 -29.5t-168 -78.5t-107.5 -114.5t-38 -137.5z" />
<glyph unicode="I" horiz-adv-x="1099" d="M16 328q0 16 7.5 28.5t23.5 12.5q14 0 20.5 -8.5t12.5 -16.5q14 -23 36.5 -48.5t53.5 -49t68.5 -38.5t85.5 -15q92 0 165.5 43t132 117.5t102.5 179t77 227.5t60.5 214t49.5 152q25 72 47 123q-137 -39 -245 -106q-47 -29 -90 -67t-78 -86t-55.5 -107.5t-20.5 -130.5 q0 -66 24.5 -98.5t47.5 -51.5q10 -10 21 -18.5t11 -20.5q0 -27 -41 -26q-37 0 -88 22.5t-98 63.5t-80 99t-33 130q0 78 36 143.5t96.5 118.5t139.5 94t164 74t171 55.5t159 36.5q47 63 96.5 86t96.5 23q35 0 61.5 -21.5t26.5 -62.5q0 -29 -13.5 -52.5t-33 -42t-44 -30.5 t-46.5 -17q-12 -12 -24.5 -45.5t-25 -95t-28.5 -156t-39 -227.5q-27 -166 -76 -304t-122.5 -237.5t-174 -155.5t-231.5 -56q-90 0 -165 36.5t-128 90t-83 114t-30 107.5z" />
<glyph unicode="J" horiz-adv-x="1196" d="M0 -297q0 80 54.5 129t143.5 80t201.5 49.5t229.5 36.5q59 166 116.5 361.5t114.5 400.5q35 123 56.5 200.5t37.5 122.5q16 53 29 78q-131 -70 -233 -162q-43 -39 -85 -87t-75 -104t-52.5 -119.5t-19.5 -135.5q0 -66 24.5 -98.5t47.5 -53.5q10 -8 21.5 -16t11.5 -20 q0 -27 -41 -27q-39 0 -90.5 22.5t-97.5 63.5t-78.5 99.5t-32.5 129.5q0 78 35.5 148.5t96 133t138.5 118t161 102.5t166 87t152 73q47 63 97.5 115.5t103.5 52.5q49 0 77.5 -26.5t28.5 -65.5q0 -29 -14 -55.5t-35.5 -47t-47 -34t-48.5 -19.5q-12 -12 -27.5 -47t-32 -98.5 t-34 -158.5t-35.5 -229q-23 -162 -49.5 -319.5t-65.5 -300.5q92 41 148.5 94t97.5 117q2 6 10 14q4 4 12.5 9.5t18.5 5.5q18 0 30.5 -12.5t12.5 -28.5q0 -6 -3 -14.5t-7 -16.5t-8 -19q-51 -82 -129 -151.5t-220 -122.5q-39 -119 -89 -218t-115.5 -171t-147.5 -112t-184 -40 q-80 0 -148.5 26t-120 67.5t-80 93t-28.5 100.5zM203 -369q0 -41 30.5 -69.5t69.5 -28.5q76 0 143.5 91t131.5 243q-80 -18 -148 -43t-119 -55.5t-79.5 -65.5t-28.5 -72z" />
<glyph unicode="K" horiz-adv-x="1851" d="M137 334q0 61 39 113.5t95.5 89t118 58t106.5 21.5q23 0 37 -9t14 -21q0 -16 -10.5 -27.5t-30.5 -32.5q-16 -14 -39 -38.5t-42 -56.5t-33.5 -66.5t-14.5 -71.5q0 -78 46 -122t105 -44q88 0 151.5 59.5t111 151.5t82 203.5t63.5 218.5q41 143 70.5 236.5t52.5 146.5 q25 63 45 94q-135 -4 -240 -39q-45 -14 -88 -36.5t-76.5 -54.5t-54 -77t-20.5 -102q0 -66 24.5 -98.5t46.5 -53.5q10 -8 21.5 -16t11.5 -21q0 -27 -41 -26q-37 0 -90 18.5t-104.5 54t-87 89t-35.5 124.5q0 68 36.5 121.5t97 95t140.5 70.5t166 48.5t174 29.5t164 12 q47 63 90 85t90 22t74 -24.5t27 -65.5q0 -29 -15.5 -52.5t-39 -42t-50.5 -31t-49 -18.5q-12 -12 -22.5 -45t-21.5 -90t-25.5 -142t-37.5 -204q55 25 105.5 65.5t95.5 92t86 109t78 110.5q61 90 114.5 151.5t100.5 98.5t92 53t92 16q23 0 45.5 -11t40 -26.5t27.5 -32 t10 -24.5q0 -27 -31 -27q-27 0 -59.5 -9t-72.5 -37.5t-85 -81t-94 -140.5q-41 -70 -75.5 -131t-71.5 -111.5t-76 -88t-88 -62.5q12 -8 27.5 -24.5t32 -45t29.5 -74.5t24 -112q18 -141 60 -198.5t95 -57.5q45 0 92 35t88 88q2 6 11 14q4 4 12 9.5t18 5.5q16 0 29.5 -12.5 t13.5 -28.5q0 -8 -3 -15.5t-7 -15.5q-4 -9 -8 -19q-47 -72 -100 -127q-47 -47 -109.5 -85.5t-134.5 -38.5q-94 0 -151.5 33.5t-88 91t-40 135t-9.5 166.5q0 57 -7 98t-16.5 68.5t-20.5 44t-19 26.5h-2h-74q-25 -121 -59.5 -239.5t-93 -213t-150.5 -152.5t-230 -58 q-94 0 -180 35.5t-151.5 89t-104.5 115t-39 114.5z" />
<glyph unicode="L" horiz-adv-x="1789" d="M-2 362q0 70 27.5 126.5t73.5 96.5t106.5 61.5t126.5 21.5q117 0 234.5 -40t234.5 -100q25 51 47 104.5t45 106.5q-127 18 -238.5 58.5t-195.5 97.5t-133.5 127t-49.5 143q0 78 32 134.5t83 93.5t114.5 54t127.5 17q115 0 191.5 -46t136.5 -105q12 -12 20 -25.5t8 -23.5 q0 -12 -8 -22.5t-18 -10.5q-14 0 -25.5 7t-28.5 17q-45 33 -94 51.5t-102 18.5q-72 0 -116 -32.5t-44 -108.5q0 -53 25.5 -104.5t74.5 -94.5t123 -75.5t170 -47.5l19 37q72 158 139 268.5t137 181t144.5 102.5t160.5 32q72 0 127.5 -24.5t94 -62.5t58 -86t19.5 -93 q0 -80 -48 -162t-137 -149.5t-215 -115t-280 -59.5q-27 -74 -58.5 -159t-74.5 -171q145 -80 282.5 -142t266.5 -62q49 0 85 10t59.5 24.5t39 32t25.5 29.5q2 6 10 14q4 4 12.5 9.5t18.5 5.5q16 0 29.5 -12.5t13.5 -28.5q0 -8 -3 -15.5t-7 -15.5q-5 -9 -9 -19 q-43 -72 -100 -127q-49 -47 -118.5 -85.5t-157.5 -38.5q-78 0 -147.5 23.5t-135.5 61t-129 86t-125 97.5q-80 -115 -197.5 -191.5t-285.5 -76.5q-96 0 -180 31.5t-146.5 85t-98.5 122t-36 143.5zM193 305q0 -72 54 -119t134 -47q117 0 202 74t152 190q-72 45 -145.5 73 t-153.5 28q-113 0 -178 -52.5t-65 -146.5zM1221 868q92 20 172 66.5t140 105t94 122t34 118.5q0 27 -18.5 48.5t-51.5 21.5q-43 0 -83 -19.5t-84 -73t-93 -147.5t-110 -242z" />
<glyph unicode="M" horiz-adv-x="2217" d="M0 334q0 61 39 113.5t95 89t117.5 58t106.5 21.5q51 0 52 -30q0 -18 -9.5 -29.5t-31.5 -30.5q-16 -12 -39 -35.5t-43.5 -53t-33.5 -66.5t-13 -78q0 -66 42 -108t101 -42q57 0 128 65.5t142.5 169t139 232.5t121 254t85 232.5t31.5 171.5q0 37 -24.5 64.5t-81.5 27.5 q-47 0 -114 -32t-127 -85t-103 -122.5t-43 -143.5q0 -47 16 -82t34.5 -59.5t35 -41t16.5 -26.5q0 -41 -43 -41q-41 0 -97.5 21.5t-107.5 60.5t-86 90t-35 113q0 94 66.5 180t168 150.5t223.5 102.5t235 38q49 0 111.5 -21.5t117.5 -64.5t93 -109.5t38 -154.5 q0 -100 -8 -228.5t-17.5 -250.5t-17.5 -219t-8 -136q14 25 45 83t73 140t95 180.5t112.5 202t124 205.5t131.5 193q37 51 84.5 82.5t99.5 50t108.5 25.5t111.5 7q59 0 59 -28q0 -10 -11 -26.5t-40 -47.5q-20 -25 -56 -94.5t-78 -166.5t-86 -212t-81 -230.5t-59.5 -223 t-22.5 -187.5q0 -72 33 -103.5t84 -31.5q41 0 81 26.5t70 61.5q37 37 68 88q2 6 10 14q4 4 12.5 9.5t18.5 5.5q16 0 29.5 -12.5t13.5 -28.5q0 -8 -3 -15.5t-7 -15.5t-8 -19q-45 -72 -101 -127q-47 -47 -111.5 -85.5t-140.5 -38.5q-53 0 -105 20t-93 57t-67 89.5t-26 115.5 q0 76 19.5 174.5t52.5 203.5t73 213t81 204q-41 -53 -90.5 -132t-99.5 -170t-99 -186.5t-90 -180.5t-73 -149.5t-46 -97.5t-41 -61.5t-56.5 -51t-55 -35.5t-37.5 -13q-25 0 -50.5 18t-48 51t-37 74t-14.5 88q0 31 4 86t10.5 125t14.5 146.5t14 150.5t10 138.5t4 107.5 q-29 -90 -62.5 -199t-75.5 -218.5t-92 -212t-108.5 -181t-126 -126.5t-143.5 -48q-94 0 -180 35.5t-152.5 89t-105.5 115t-39 114.5z" />
<glyph unicode="N" horiz-adv-x="1751" d="M0 334q0 61 39 113.5t95 89t117.5 58t106.5 21.5q23 0 37.5 -9t14.5 -21q0 -16 -9.5 -28.5t-31.5 -31.5q-16 -14 -39 -34.5t-43.5 -50t-33.5 -66.5t-13 -82q0 -66 42 -108t101 -42q57 0 128 65.5t142.5 169t139 232.5t121 254t85 232.5t31.5 171.5q0 37 -24.5 64.5 t-81.5 27.5q-47 0 -114 -32t-127 -85t-103 -122.5t-43 -143.5q0 -47 16 -82t34.5 -59.5t35 -41t16.5 -26.5q0 -41 -43 -41q-41 0 -97.5 21.5t-107.5 60.5t-86 90t-35 113q0 94 66.5 180t168 150.5t223.5 102.5t235 38q49 0 110.5 -21.5t116.5 -64.5t94 -109.5t43 -154.5 q4 -94 6 -200t7.5 -213.5t12.5 -214t21 -200.5q10 27 29.5 90.5t46.5 150.5t60.5 188.5t72.5 203.5t81 197.5t85 168t87 116.5t85 44q43 0 86 -14t77 -34.5t55.5 -44t21.5 -42.5q0 -18 -10.5 -28.5t-26.5 -10.5q-80 0 -153 -68.5t-136 -177t-119.5 -240.5t-102.5 -260 t-83 -236t-64 -167q-14 -33 -41.5 -61.5t-56.5 -51t-55.5 -35.5t-38.5 -13q-23 0 -47.5 18t-45 51t-34.5 74t-21 88q-6 47 -10 144.5t-8 207t-6 215t-2 170.5q-27 -88 -59.5 -193.5t-74.5 -213t-92.5 -209t-111 -180t-132 -125.5t-153.5 -47q-94 0 -180 35.5t-152.5 89 t-105.5 115t-39 114.5z" />
<glyph unicode="O" horiz-adv-x="1181" d="M2 455q0 135 33 264t90 242.5t133 210t162 165t178 107.5t182 39q98 0 183.5 -35t149 -96.5t99 -145.5t35.5 -184q0 -115 -27.5 -237.5t-78.5 -238.5t-124 -219.5t-162 -180t-192.5 -121.5t-218.5 -45q-88 0 -167.5 35.5t-141 98t-97.5 149.5t-36 192zM250 502 q0 -94 20.5 -168t54 -124t76.5 -77t88 -27q70 0 133.5 48.5t119 129.5t101.5 189.5t77.5 228t49 244.5t17.5 242q0 88 -45 135t-104 47t-116.5 -30.5t-103 -84t-73 -125t-27.5 -153.5q0 -47 12.5 -85t33 -64.5t47 -41t53.5 -14.5q23 0 30.5 4t18.5 4q25 0 24 -24 q0 -10 -10 -23.5t-30.5 -28t-54.5 -23.5t-79 -9q-41 0 -83 21.5t-75.5 60.5t-55 92t-21.5 117q-23 -49 -39 -117q-16 -59 -27.5 -144.5t-11.5 -199.5z" />
<glyph unicode="P" horiz-adv-x="1667" d="M-2 348q0 53 39 101.5t95 85t117.5 59t106.5 22.5q51 0 52 -32q0 -16 -7.5 -24.5t-29.5 -22.5q-53 -35 -97.5 -97.5t-44.5 -134.5q0 -39 14.5 -73.5t40 -60.5t60.5 -41t76 -15q94 0 175 129t153 415q27 115 48 196t41.5 139.5t44 100.5t56.5 79q25 25 63.5 44t77.5 32.5 t71 19.5t42 6q39 0 39 -29q0 -6 -11.5 -18t-27.5 -35t-37.5 -55.5t-40.5 -79.5q-16 -39 -29.5 -74t-27 -81t-30.5 -112.5t-40 -170.5q-41 -182 -91 -305t-111.5 -198t-136.5 -106.5t-163 -31.5q-106 0 -196 37.5t-154.5 93t-100.5 120t-36 117.5zM256 979q0 115 75 208 t196.5 158.5t278.5 101.5t320 36q156 0 283 -36t215 -99.5t136 -147.5t48 -182q0 -127 -63.5 -225.5t-155.5 -166t-197.5 -102.5t-187.5 -35q-86 0 -117.5 17.5t-31.5 34.5q0 14 9 24t21 10q82 0 162 34t143.5 95.5t102.5 146.5t39 187q0 150 -106.5 238t-303.5 88 q-143 0 -254.5 -30.5t-188.5 -86t-117 -132.5t-40 -169q0 -47 16.5 -78.5t35 -53t35 -35t16.5 -23.5q0 -39 -43 -39q-41 0 -97.5 18.5t-106.5 52t-86 82t-36 109.5z" />
<glyph unicode="Q" horiz-adv-x="1314" d="M0 639q0 94 33 193.5t93 193.5t145 177t188.5 145.5t223.5 98.5t249 36q102 0 188 -33t147.5 -90t96.5 -132t35 -157q0 -145 -63.5 -294.5t-168 -286t-239.5 -250t-277 -185.5q53 -41 103.5 -79.5t99.5 -69.5t97 -49.5t98 -18.5q41 0 74.5 10.5t58 23.5t43 23.5 t28.5 10.5t20.5 -6t10.5 -21q0 -16 -28.5 -61t-72.5 -93.5t-97.5 -85t-104.5 -36.5q-59 0 -118.5 37.5t-121 96t-123 126t-122.5 127.5q-53 -16 -106.5 -26.5t-104.5 -10.5q-78 0 -137.5 32.5t-59.5 98.5q0 45 46 82t118 37q127 0 264 -82q117 72 225.5 192.5t191.5 265 t133 299t50 291.5q0 92 -54 144.5t-134 52.5q-133 0 -254 -69.5t-212 -181t-144.5 -251t-53.5 -276.5q0 -84 37 -127t94 -43t106.5 44t86.5 111.5t57.5 147.5t20.5 151q0 39 -8.5 68t-19.5 47.5t-19.5 30.5t-8.5 22q0 12 13.5 23.5t23.5 11.5q29 0 68 -19.5t74.5 -53 t60 -78.5t24.5 -95q0 -86 -41.5 -178t-112.5 -168.5t-165 -126t-199 -49.5q-49 0 -111.5 19.5t-116.5 59.5t-91 102.5t-37 150.5z" />
<glyph unicode="R" horiz-adv-x="1792" d="M-2 348q0 63 39 116.5t95 91.5t117.5 59.5t106.5 21.5q23 0 37.5 -10.5t14.5 -22.5q0 -16 -7.5 -23.5t-29.5 -23.5q-18 -14 -42 -41t-43.5 -59.5t-32.5 -70.5t-13 -75q0 -39 13 -73.5t36.5 -62.5t56.5 -44t74 -16q94 0 175 129t153 415q27 113 48 194t41.5 140.5 t44 101.5t56.5 79q25 25 63.5 44t77.5 32.5t71 19.5t42 6q39 0 39 -29q0 -6 -11.5 -18t-27.5 -35t-37.5 -55.5t-40.5 -79.5q-14 -37 -26.5 -67.5t-24.5 -70.5t-27.5 -94.5t-34.5 -136.5q98 2 187.5 35t157 88t107.5 129t40 158q0 123 -87 193.5t-284 70.5 q-143 0 -254.5 -29.5t-188.5 -82t-117 -121t-40 -146.5q0 -47 16.5 -79t35 -53.5t35 -34.5t16.5 -23q0 -39 -43 -39q-41 0 -97.5 18.5t-106.5 52t-86 81.5t-36 110q0 96 75 181t196.5 147.5t278.5 99.5t320 37q156 0 277 -31t202 -83t122.5 -125t41.5 -154q0 -84 -37.5 -159 t-102 -136.5t-150.5 -108.5t-181 -76q29 -16 56.5 -56t38.5 -118q25 -170 63.5 -244.5t116.5 -74.5q41 0 81 26.5t70 61.5q37 37 68 88q2 6 10 14q4 4 12.5 9.5t18.5 5.5q16 0 29.5 -12.5t13.5 -28.5q0 -8 -3 -15.5t-7 -15.5t-8 -19q-45 -72 -101 -127q-47 -47 -111.5 -85.5 t-140.5 -38.5q-115 0 -193.5 40.5t-111.5 126.5q-18 49 -24.5 120t-6.5 169q0 53 -12 86t-29 51q-55 -6 -112 -6h-41q-41 -166 -90 -278.5t-109.5 -181t-132.5 -98t-158 -29.5q-106 0 -196 37.5t-154.5 93t-100.5 120t-36 117.5z" />
<glyph unicode="S" horiz-adv-x="1196" d="M35 362q0 63 47 122t113.5 102t138.5 68.5t121 25.5q35 0 34 -35q0 -14 -10 -23.5t-33 -25.5q-25 -20 -49 -42t-43.5 -48.5t-32 -60t-12.5 -78.5q0 -41 17.5 -83t49.5 -77t77 -57.5t100 -22.5q117 0 188.5 67.5t71.5 184.5q0 76 -46 157.5t-100.5 169t-100.5 180.5 t-46 191q0 96 49 171t126 127t172.5 80t187.5 28q57 0 108 -10.5t90 -31t62.5 -52t23.5 -74.5q0 -55 -34.5 -108.5t-81.5 -96.5t-96.5 -69.5t-75.5 -26.5q-14 0 -24.5 10t-10.5 20t5 19.5t21 30.5q29 35 57.5 85t28.5 99q0 41 -27.5 62.5t-72.5 21.5q-53 0 -98 -19.5 t-78 -51t-51.5 -73.5t-18.5 -88q0 -63 22.5 -124.5t55.5 -121t72 -118.5t71.5 -118.5t55 -119t22.5 -120.5q0 -92 -43 -170t-113.5 -135.5t-159.5 -90t-181 -32.5q-131 0 -233.5 35.5t-172 91t-106.5 123t-37 132.5z" />
<glyph unicode="T" horiz-adv-x="956" d="M39 113q0 20 10.5 29.5t26.5 9.5q20 0 39.5 -5.5t48.5 -5.5q104 0 180 77t133.5 194.5t98 257t75.5 264.5q31 117 72 182.5t76 100.5q41 39 86 49q-47 25 -148.5 48t-224.5 23q-92 0 -150.5 -42t-58.5 -113q0 -47 15.5 -79t35 -53.5t34.5 -36t15 -24.5q0 -39 -43 -39 q-41 0 -93 18.5t-99 53.5t-80 83t-33 109q0 80 41 131.5t101.5 82t131 43t130.5 12.5q102 0 184 -10.5t166 -23.5t180 -23.5t228 -10.5q80 0 127 10.5t73.5 23.5t39.5 23.5t24 10.5q18 0 30.5 -12.5t12.5 -28.5q0 -14 -23.5 -53t-63.5 -79t-90.5 -72t-105.5 -32 q-49 0 -92 5.5t-76 11.5q-37 8 -69 18q-8 -4 -20.5 -18.5t-29 -50t-36 -98t-39.5 -161.5q-18 -82 -36 -183t-43.5 -204.5t-62.5 -202t-91 -175t-131 -122.5t-181 -46q-61 0 -115.5 13t-94.5 33.5t-62.5 44t-22.5 42.5z" />
<glyph unicode="U" horiz-adv-x="1712" d="M-20 1012q0 94 72.5 180t182 150.5t237.5 102.5t241 38q125 0 205.5 -58.5t80.5 -156.5q0 -68 -27.5 -155t-69.5 -181t-90 -192.5t-90 -191.5t-69.5 -174t-27.5 -143q0 -88 90 -88q49 0 113.5 52.5t131 129t129 160.5t105.5 150q29 102 66.5 206.5t76.5 198t75 170 t65 123.5q25 41 61.5 66.5t75.5 41t75.5 21.5t63.5 6q59 0 59 -28q0 -16 -49 -74q-20 -25 -56 -94.5t-79 -166.5t-87 -212t-81 -230.5t-59.5 -223t-22.5 -187.5q0 -72 34 -103.5t81 -31.5q41 0 81 26.5t71 61.5q37 37 67 88q2 6 10 14q4 4 12.5 9.5t18.5 5.5 q16 0 29.5 -12.5t13.5 -28.5q0 -8 -3 -15.5t-7 -15.5t-8 -19q-45 -72 -101 -127q-47 -47 -111.5 -85.5t-140.5 -38.5q-55 0 -108 20t-95 57t-69 89.5t-27 115.5v34.5t4 39.5q-37 -55 -89 -117.5t-116.5 -116t-139 -88t-156.5 -34.5q-57 0 -108.5 18t-90.5 51t-62.5 76 t-23.5 90q0 66 29.5 153t74 183t95.5 196.5t95 194.5t73.5 178t29.5 148q0 37 -15 64.5t-73 27.5q-47 0 -115.5 -32t-133 -85t-110.5 -122.5t-46 -143.5q0 -47 16.5 -82t34.5 -59.5t34.5 -41t16.5 -26.5q0 -41 -43 -41q-41 0 -97 21.5t-107.5 60.5t-87 90t-35.5 113z" />
<glyph unicode="V" horiz-adv-x="1513" d="M20 893q0 72 39 144.5t104.5 138t149.5 122t174.5 97.5t178.5 64.5t163 23.5q61 0 112.5 -18.5t88.5 -49.5t57.5 -74t20.5 -92q0 -72 -18.5 -158.5t-46 -180t-60.5 -188.5t-60.5 -182t-46 -163t-18.5 -129q104 92 219 224t212 281.5t160.5 306.5t63.5 298q0 35 -8 60.5 t-8 37.5q0 27 25 27q29 0 71.5 -16.5t81.5 -44t66.5 -64.5t27.5 -80q0 -88 -40.5 -189.5t-109.5 -210t-158 -219t-186 -216t-196.5 -201t-185.5 -172.5q-41 -37 -76 -63.5t-63 -26.5q-20 0 -49 21.5t-54.5 55t-44 72.5t-18.5 76q0 72 20.5 162t50 186t64.5 196.5t64.5 194.5 t50 177t20.5 147q0 37 -20.5 64.5t-67.5 27.5q-78 0 -160 -50t-149.5 -126t-110.5 -164t-43 -162q0 -59 15.5 -98t35 -65.5t35 -41t15.5 -24.5q0 -39 -43 -39q-41 0 -99.5 24.5t-113 65.5t-93.5 96t-39 117z" />
<glyph unicode="W" horiz-adv-x="2054" d="M20 893q0 72 39 144.5t104.5 138t149.5 122t174.5 97.5t179.5 64.5t162 23.5q125 0 202 -62.5t77 -189.5q0 -63 -25.5 -144t-64.5 -172.5t-84 -186.5t-84 -184t-64.5 -167t-25.5 -135q0 -41 24.5 -64.5t63.5 -23.5t88 34.5t92 77.5q51 49 102 113q20 180 64 323 q18 61 42 119t56.5 104t73.5 73.5t90 27.5q51 0 83 -31.5t32 -79.5q0 -37 -12.5 -82t-33 -93t-46 -96t-52.5 -93q-63 -106 -143 -215q8 -51 25 -90q14 -35 36.5 -61.5t59.5 -26.5q66 0 129 52t118.5 138t101.5 201t79 237.5t51.5 248.5t18.5 237q0 88 -12.5 128t-12.5 56 q0 27 25 27q29 0 72.5 -16.5t84.5 -44t71 -64.5t30 -80q0 -127 -28 -271.5t-79 -289t-120.5 -277.5t-152.5 -235.5t-178.5 -163.5t-193.5 -61q-86 0 -136 35.5t-79 80.5q-33 53 -45 119q-61 -66 -129 -119q-59 -45 -133 -80.5t-154 -35.5q-49 0 -94 15t-81 44t-56.5 70 t-20.5 94q0 72 28 157.5t70 180t91 191.5t91 192.5t69.5 182.5t27.5 161q0 37 -20.5 64.5t-67.5 27.5q-61 0 -142 -50t-151.5 -126t-120 -164t-49.5 -162q0 -59 15.5 -98t35 -65.5t35 -41t15.5 -24.5q0 -39 -43 -39q-41 0 -99.5 24.5t-113 65.5t-93.5 96t-39 117z" />
<glyph unicode="X" horiz-adv-x="1763" d="M117 334q0 61 39 113.5t95 89t118.5 58t107.5 21.5q23 0 36 -9t13 -21q0 -16 -9 -28.5t-32 -33.5q-16 -14 -38.5 -37.5t-42 -53.5t-34 -65.5t-14.5 -74.5q0 -74 35 -106.5t88 -32.5q63 0 128 39.5t138.5 115.5t160.5 187.5t198 253.5q-2 115 -2 234.5v258.5 q0 59 -19.5 88t-76.5 29q-47 0 -107.5 -28.5t-114 -79t-90.5 -116t-37 -139.5q0 -47 16.5 -81.5t35 -60.5t35 -42t16.5 -27q0 -38 -41 -38h-2q-41 0 -97.5 21.5t-107.5 59t-86 89t-35 112.5q0 96 63.5 179t162 143.5t217 95.5t229.5 35q61 0 115.5 -16.5t94.5 -47 t63.5 -73.5t25.5 -97q2 -27 2 -68.5t2 -95.5q66 80 132.5 153t131 127t126 86t116.5 32q31 0 60.5 -16.5t54 -38t39 -44t14.5 -34.5q0 -20 -12.5 -30.5t-28.5 -10.5q-74 0 -150.5 -35t-156.5 -96.5t-162 -145.5t-162 -182v-420q0 -141 49 -227t127 -86q41 0 81 26.5t71 61.5 q37 37 67 88q2 6 11 14q4 4 12 9.5t18 5.5q16 0 29.5 -12.5t13.5 -28.5q0 -8 -3 -15.5t-7 -15.5t-8 -19q-45 -72 -100 -127q-47 -47 -111.5 -85.5t-140.5 -38.5q-80 0 -147.5 24.5t-118 68.5t-78 105.5t-27.5 134.5v183q-74 -102 -141.5 -196.5t-131 -165.5t-123 -112.5 t-116.5 -41.5q-94 0 -180 35.5t-152.5 89t-105.5 115t-39 114.5z" />
<glyph unicode="Y" horiz-adv-x="1583" d="M0 1012q0 94 69.5 180t175 150.5t230.5 102.5t238 38q61 0 116.5 -18.5t95.5 -49.5t63.5 -74t23.5 -92q0 -104 -41 -210.5t-89 -207t-89 -190.5t-41 -160q0 -47 24.5 -83t71.5 -36q49 0 102.5 35t104.5 85t95 105.5t73 96.5l24 76q37 115 64.5 192.5t55.5 138t58.5 116 t71.5 126.5q25 41 57.5 66.5t68.5 41t69.5 21.5t60.5 6q59 0 59 -28q0 -16 -49 -74q-18 -23 -51 -82t-73 -143t-80.5 -186.5t-71.5 -209.5q-53 -186 -101.5 -355t-95.5 -316q115 43 184.5 101t108.5 118q2 6 10 14q4 4 12.5 9.5t18.5 5.5q16 0 29.5 -12.5t13.5 -28.5 q0 -8 -3 -15.5t-7 -15.5q-4 -9 -8 -19q-47 -78 -140.5 -148.5t-259.5 -127.5q-45 -123 -97 -222.5t-117.5 -170t-146.5 -108.5t-183 -38q-80 0 -149 26t-120 67.5t-79.5 93t-28.5 100.5q0 80 56 131t148.5 83t208 50.5t234.5 32.5q10 0 16 2q33 82 67 177t68 206 q-35 -33 -80 -69.5t-97 -67.5t-110.5 -51.5t-115.5 -20.5q-53 0 -103.5 19.5t-90.5 52.5t-64.5 77t-24.5 91q0 92 47.5 201.5t103.5 222t103 223.5t47 205q0 37 -15 64.5t-73 27.5q-47 0 -115.5 -32t-133 -85t-110.5 -122.5t-46 -143.5q0 -47 16.5 -82t34.5 -59.5t34.5 -41 t16.5 -26.5q0 -41 -43 -41q-41 0 -94 21.5t-100 60.5t-80 90t-33 113zM530 -369q0 -41 31 -69.5t70 -28.5q86 0 159.5 86t147.5 256q-86 -16 -159.5 -42t-129 -57.5t-87.5 -68.5t-32 -76z" />
<glyph unicode="Z" horiz-adv-x="1253" d="M-2 152q0 23 27.5 67.5t74.5 105t108.5 131t130.5 144.5t138.5 147.5t132.5 139.5q94 96 165 166.5t120 120t82 78t51 40.5q-70 0 -178.5 17.5t-231.5 17.5q-92 0 -154.5 -37t-62.5 -108q0 -47 16.5 -79t35 -53.5t35 -36t16.5 -24.5q0 -39 -43 -39q-41 0 -98.5 20.5 t-110.5 56.5t-91 86t-38 112q0 53 28.5 100t80 82t120 55.5t148.5 20.5q205 0 350 -20.5t213 -20.5q35 0 64.5 6t57 14t54.5 14.5t53 6.5q20 0 46 -14.5t47.5 -34t36 -39t14.5 -29.5q0 -20 -12.5 -31.5t-39.5 -27.5q-33 -20 -92 -72.5t-137 -126.5t-170 -167t-188 -193 q-104 -109 -196.5 -211.5t-164.5 -184.5q-84 -96 -157 -182q47 20 100 37q47 14 106.5 25.5t124.5 11.5q66 0 120 -7.5t104.5 -16.5t100.5 -16t109 -7q53 0 92.5 14t65.5 33q31 23 51 49q2 6 11 14q4 4 12 9.5t18 5.5q16 0 29.5 -12.5t13.5 -28.5q0 -8 -3 -15.5t-7 -15.5 q-4 -9 -8 -19q-45 -72 -102 -127q-49 -47 -119 -85.5t-156 -38.5t-142.5 14t-107.5 32.5t-109.5 33t-146.5 14.5q-43 0 -82 -15.5t-71.5 -34t-60 -34t-52.5 -15.5t-54.5 16.5t-56 42t-44 57.5t-17.5 61z" />
<glyph unicode="[" horiz-adv-x="448" d="M-4 -92v1585q0 29 15.5 43t37.5 14h311q12 2 21 -4q8 -4 15 -14t7 -27q0 -35 -13 -46t-36 -11h-133v-1491h133q23 0 36 -11.5t13 -45.5q0 -18 -7 -27.5t-15 -13.5q-8 -6 -21 -4h-133q-53 0 -104 1t-74 1q-37 0 -45 20.5t-8 30.5z" />
<glyph unicode="\" horiz-adv-x="690" d="M-39 1444q0 8 15.5 16t39 14.5t51 10.5t54.5 4q16 0 28.5 -10.5t16.5 -20.5l500 -1403q10 -25 10 -35q0 -23 -21.5 -27.5t-48.5 -4.5h-86q-33 0 -45 28l-502 1381q-4 10 -8 22.5t-4 24.5z" />
<glyph unicode="]" horiz-adv-x="563" d="M53 -100q0 35 13.5 46t35.5 11h134v1491h-134q-23 0 -36 11t-13 46q0 16 6.5 26.5t14.5 14.5q8 6 22 4h312q37 0 45 -21.5t8 -31.5v-1585q0 -29 -15.5 -42t-37.5 -13q-23 0 -74 -1t-105 -1h-133q-14 -2 -22 4q-8 4 -14.5 13t-6.5 28z" />
<glyph unicode="^" horiz-adv-x="841" d="M25 829q0 2 13 25t36.5 57.5t52.5 77.5t59 88l164 238q14 16 35 23.5t37 7.5q12 0 32.5 -8.5t45.5 -37.5q92 -127 164 -229q31 -43 60.5 -86t52 -77t36.5 -55.5t14 -23.5q0 -12 -17 -23t-39.5 -18.5t-45.5 -12.5t-33 -5q-12 0 -18 3t-17 15l-233 349l-225 -344 q-12 -18 -39 -19q-6 0 -27.5 3t-45.5 10.5t-43 17.5t-19 24z" />
<glyph unicode="_" horiz-adv-x="1300" d="M61 -190q0 10 5.5 29.5t14.5 38t21.5 32.5t24.5 14h1092q23 0 29.5 -6t6.5 -22q0 -10 -6 -30t-16 -40.5t-23.5 -34.5t-25.5 -14h-1092q-31 0 -31 33z" />
<glyph unicode="`" horiz-adv-x="413" d="M23 1208q0 16 12 40t28.5 45.5t35 35.5t30.5 14q33 0 49 -40q14 -35 36 -74t48.5 -73t53 -61.5t49.5 -41.5q20 -10 26 -18.5t6 -20.5t-9 -21.5t-28 -9.5q-23 0 -58.5 11.5t-76.5 30.5t-81 44t-72 53q-31 27 -40 44.5t-9 41.5z" />
<glyph unicode="a" horiz-adv-x="972" d="M-25 193q0 111 42 219t110 195t151.5 140.5t167.5 53.5q61 0 104.5 -15.5t70.5 -33.5q31 -23 49 -47q23 0 48 -5.5t46.5 -16.5t36 -29.5t14.5 -45.5q0 -23 -18.5 -74t-41 -113.5t-41 -129t-18.5 -117.5q0 -25 15.5 -41t42.5 -16q41 0 80.5 26.5t70.5 61.5q37 37 68 88 q2 6 10 14q4 4 12.5 9.5t18.5 5.5q16 0 29.5 -12.5t13.5 -28.5q0 -8 -3 -15.5t-7 -15.5q-5 -9 -9 -19q-45 -72 -100 -127q-47 -47 -111.5 -85.5t-140.5 -38.5q-86 0 -145.5 44t-69.5 130q-41 -51 -88 -88q-41 -33 -92 -59.5t-111 -26.5q-41 0 -79 15t-65.5 44t-44 67.5 t-16.5 86.5zM225 227q0 -92 60 -92q37 0 85 49t91 121t72.5 151t29.5 138q0 45 -21.5 66.5t-52.5 21.5q-45 0 -92 -47t-85 -115.5t-62.5 -148.5t-24.5 -144z" />
<glyph unicode="b" d="M-12 289q0 119 20.5 250t57 258t89 240.5t116 199.5t136 137t152.5 51q33 0 66.5 -17t59.5 -45t42 -59.5t16 -58.5q0 -43 -21.5 -95t-53 -106.5t-70.5 -106.5t-71.5 -93t-55 -66.5t-25.5 -27.5q2 2 16.5 10t34 17t45 16.5t52.5 7.5q41 0 78 -19.5t64.5 -51.5t44 -70.5 t16.5 -77.5q0 -104 -37 -219t-111 -207q6 -2 21 -2q53 0 96 21.5t76 47.5q37 31 69 70q2 6 11 14q4 4 12 9.5t18 5.5q16 0 29.5 -12.5t13.5 -28.5q0 -8 -3 -15.5t-7 -15.5q-4 -9 -8 -19q-35 -51 -88 -88q-45 -35 -111.5 -61.5t-156.5 -26.5h-34t-36 4q-103 -79 -242 -79h-4 q-53 0 -108.5 23.5t-102.5 65.5t-76.5 98t-29.5 122zM217 238q0 -63 23.5 -106.5t64.5 -43.5q33 0 68 29q-16 16 -17 35q0 16 11.5 34.5t28 32.5t33.5 23.5t30 9.5h6q35 72 55.5 154.5t20.5 154.5q0 59 -14.5 92t-65.5 33q-27 0 -69 -27.5t-81 -83t-66.5 -139t-27.5 -198.5z M285 698q51 49 110.5 124t110.5 154t84 151.5t33 119.5q0 41 -39 41q-29 0 -68 -50t-81 -132t-82 -188.5t-68 -219.5z" />
<glyph unicode="c" horiz-adv-x="757" d="M-8 291q0 102 42 195.5t108.5 163t148.5 110.5t160 41q55 0 98 -17.5t72.5 -46t46 -64.5t16.5 -71q0 -27 -11 -54.5t-29.5 -50t-40 -37t-42.5 -14.5q-41 0 -72.5 26t-31.5 60q0 27 12 43.5t27.5 29.5t29 24.5t13.5 27.5t-17.5 29.5t-42.5 13.5q-45 0 -87 -33.5t-74.5 -89 t-53 -124t-20.5 -138.5q0 -106 58 -157.5t144 -51.5q70 0 127.5 29t98.5 64q49 41 86 94q4 6 12 14q6 4 14.5 9.5t18.5 5.5q18 0 30.5 -12.5t12.5 -28.5q0 -8 -4 -15.5t-8 -15.5q-7 -9 -11 -19q-53 -72 -121 -127q-59 -47 -144 -85.5t-196 -38.5q-66 0 -132 16t-119.5 53 t-86 96.5t-32.5 145.5z" />
<glyph unicode="d" horiz-adv-x="1103" d="M-12 231q0 125 49 230.5t122.5 180.5t158.5 117t157 42q29 0 53.5 -5t40.5 -12q20 -8 35 -16q35 125 84 243.5t107.5 211t124 147.5t137.5 55q31 0 62.5 -16t57 -43t42 -61.5t16.5 -69.5q0 -37 -19.5 -92.5t-51 -120t-71.5 -134t-83 -136.5q-98 -158 -226 -336 q-4 -27 -6 -52.5t-2 -50.5q0 -86 26.5 -141t84.5 -55q41 0 80 26.5t69 61.5q37 37 68 88q2 6 10 14q4 4 12.5 9.5t18.5 5.5q16 0 29.5 -12.5t13.5 -28.5q0 -8 -3 -15.5t-7 -15.5t-9 -19q-45 -72 -100 -127q-47 -47 -111.5 -85.5t-140.5 -38.5q-57 0 -104 21.5t-81 52 t-53.5 65.5t-21.5 61q-49 -57 -104 -100q-47 -39 -107.5 -69.5t-124.5 -30.5q-43 0 -85 18t-74.5 51t-53 80t-20.5 102zM242 236q0 -55 20.5 -86t54.5 -31q33 0 72 25.5t74 58.5q39 37 80 86q2 92 11.5 181t23.5 183l-17 17q-8 6 -18.5 11t-22.5 5q-49 0 -99 -47t-90 -115.5 t-64.5 -146.5t-24.5 -141zM797 567q90 147 161 283q31 57 61 117.5t52.5 116t36.5 102.5t14 82t-28 35q-27 0 -66 -64.5t-82 -169t-82.5 -236t-66.5 -266.5z" />
<glyph unicode="e" horiz-adv-x="731" d="M-16 281q0 117 43 213t108.5 164.5t142 105.5t144.5 37q47 0 88 -18.5t71.5 -48t48 -68.5t17.5 -80q0 -37 -16.5 -89.5t-54 -99.5t-102 -80.5t-161.5 -33.5q-23 0 -47 6q-14 2 -30 6q0 -92 53 -141.5t127 -49.5q72 0 131 30t100 65q49 41 84 94q2 6 10 14q4 4 12.5 9.5 t18.5 5.5q16 0 29.5 -12.5t13.5 -28.5q0 -8 -3 -15.5t-7 -15.5q-4 -9 -8 -19q-45 -72 -113 -127q-57 -47 -142 -85.5t-202 -38.5q-78 0 -143.5 22.5t-112.5 62t-73.5 95t-26.5 121.5zM246 379q55 0 104 30.5t85 74.5t56.5 91.5t20.5 79.5q0 41 -37 41q-43 0 -84 -34.5 t-72.5 -84t-52 -104.5t-20.5 -94z" />
<glyph unicode="f" horiz-adv-x="628" d="M-59 -139q0 166 27.5 347t74.5 355t111.5 331t138.5 274.5t153.5 187t157.5 69.5q35 0 69 -17t60.5 -45t43 -59.5t16.5 -58.5q0 -43 -25 -110.5t-67 -148.5t-96 -169t-114.5 -169t-123 -150.5t-117.5 -114.5q-16 -47 -26.5 -100.5t-14.5 -106.5q14 -18 35 -31 q16 -10 40.5 -19t57.5 -9q53 0 96 16.5t78 42t62.5 57t50.5 60.5q2 6 10 14q4 4 12 9.5t19 5.5q16 0 29.5 -12.5t13.5 -28.5q0 -8 -3 -15.5t-8 -15.5q-4 -9 -8 -19q-20 -29 -50 -64.5t-72 -66t-100 -52t-136 -21.5q33 -29 57 -70q23 -35 41.5 -87t18.5 -118q0 -39 -14.5 -81 t-41 -77.5t-65.5 -58t-88 -22.5q-45 0 -98.5 17t-98.5 58t-75.5 107.5t-30.5 165.5zM170 -182q0 -121 27.5 -168t54.5 -47q18 0 31.5 13t21.5 33.5t12.5 46t4.5 50.5q0 66 -21.5 125t-46.5 102q-31 52 -68 95q-4 -41 -8 -84q-4 -37 -6 -81t-2 -85zM303 551q33 25 75 78 t85 119.5t83 141.5t71.5 143.5t51 125.5t19.5 88q0 41 -43 41q-29 0 -71 -64.5t-90 -169t-95 -236.5t-86 -267z" />
<glyph unicode="g" horiz-adv-x="942" d="M-29 193q0 111 42 219t109.5 195t151.5 140.5t168 53.5q61 0 104.5 -15.5t69.5 -33.5q31 -23 50 -47q23 0 48 -5.5t46.5 -16.5t36 -29.5t14.5 -45.5q0 -16 -9 -57t-24.5 -102.5t-36 -138.5t-45.5 -165l-18 -67q94 51 157.5 103t106.5 112q4 6 12 14q6 4 14.5 9.5 t18.5 5.5q18 0 30.5 -12.5t12.5 -28.5q0 -6 -4 -14.5t-8 -16.5q-6 -8 -10 -19q-27 -35 -58.5 -67.5t-75 -65t-98.5 -65.5t-127 -68q-25 -96 -58.5 -193.5t-83.5 -176t-120 -129t-168 -50.5q-47 0 -89 15.5t-73.5 41t-50 61.5t-18.5 77q0 53 31.5 102t89 93t138.5 85t179 78 q14 53 24.5 101.5t16.5 83.5q-41 -51 -88 -88q-41 -33 -92 -59.5t-111 -26.5q-41 0 -79 15t-65.5 44t-44 67.5t-16.5 86.5zM131 -434q0 -41 37 -41q35 0 66.5 27.5t60.5 72.5t52.5 103.5t43.5 119.5q-59 -33 -107 -72.5t-82 -78.5t-52.5 -74t-18.5 -57zM221 227 q0 -92 60 -92q37 0 85 49t92 121t73.5 151t29.5 138q0 45 -22.5 66.5t-53.5 21.5q-45 0 -92 -47t-85 -115.5t-62.5 -148.5t-24.5 -144z" />
<glyph unicode="h" horiz-adv-x="999" d="M-31 90q0 86 22.5 218t65.5 280.5t102.5 298t133.5 269.5t160 194.5t182 74.5q35 0 67.5 -17t59 -45t42 -59.5t15.5 -58.5q0 -63 -41 -146t-91 -159t-93 -130t-49 -60q2 2 17.5 10t38 17t52 16.5t62.5 7.5q23 0 46 -12.5t41.5 -33t31 -45t12.5 -51.5q0 -47 -20.5 -103 t-45 -116.5t-45 -123t-20.5 -121.5q0 -35 17.5 -56.5t47.5 -21.5q41 0 81 26.5t71 61.5q37 37 67 88q2 6 11 14q4 4 12 9.5t18 5.5q16 0 29.5 -12.5t13.5 -28.5q0 -8 -3 -15.5t-7 -15.5t-8 -19q-45 -72 -100 -127q-47 -47 -111.5 -85.5t-140.5 -38.5q-117 0 -188.5 62 t-71.5 163q0 55 16 109.5t36.5 103.5t37 90t16.5 70q0 59 -45 59q-53 0 -108.5 -44t-99.5 -125t-71.5 -194.5t-27.5 -253.5q0 -18 -7 -29t-30 -11q-31 0 -65.5 6t-65.5 19t-50.5 34.5t-19.5 50.5zM330 651q35 29 78 76t86 102.5t83.5 117t71.5 117.5t50.5 104t19.5 79 q0 41 -39 41q-29 0 -69 -48t-86 -133t-96 -202t-99 -254z" />
<glyph unicode="i" horiz-adv-x="518" d="M-29 205q0 55 18.5 133t43 157.5t52.5 151.5t46 115q8 16 22.5 27.5t32.5 11.5q23 0 51.5 -14.5t53 -33t41 -38t16.5 -31.5q0 -47 -18.5 -101.5t-40 -115.5t-39 -129.5t-17.5 -142.5q0 -35 17.5 -56.5t48.5 -21.5q41 0 81 26.5t71 61.5q37 37 67 88q2 6 10 14 q4 4 12.5 9.5t18.5 5.5q16 0 29.5 -12.5t13.5 -28.5q0 -8 -3 -15.5t-7 -15.5t-8 -19q-45 -72 -101 -127q-47 -47 -111.5 -85.5t-140.5 -38.5q-117 0 -188.5 62t-71.5 163zM252 1085q0 39 14.5 76t38 66.5t54 47t65.5 17.5q45 0 74.5 -30.5t29.5 -81.5q0 -41 -13 -79 t-36.5 -67.5t-53.5 -47t-63 -17.5q-45 0 -77.5 30.5t-32.5 85.5z" />
<glyph unicode="j" horiz-adv-x="440" d="M-592 -389q0 55 34 106.5t97.5 95.5t151.5 84t196 74q10 27 17.5 52.5t15.5 54.5q74 246 121 408.5t80 275.5q14 39 57 39q23 0 50.5 -14.5t52 -33t41 -38t16.5 -31.5q0 -25 -13.5 -81t-37 -134t-54 -173t-63.5 -196q-4 -6 -5 -13t-3 -13q98 49 165.5 103t112.5 116 q4 6 13 14q6 4 14 9.5t18 5.5q18 0 30.5 -12.5t12.5 -28.5q0 -8 -4 -16.5t-8 -16.5q-6 -8 -10 -17q-61 -78 -152.5 -142t-232.5 -128q-37 -104 -81 -202.5t-101.5 -174.5t-131 -122t-167.5 -46q-47 0 -89.5 15.5t-74 41t-50 61.5t-18.5 77zM-449 -442q0 -33 31 -33 q41 0 78 25.5t69.5 68.5t61.5 101.5t53 123.5q-63 -31 -116.5 -68.5t-92 -76.5t-61.5 -76t-23 -65zM217 1085q0 39 14.5 76t38 66.5t54 47t65.5 17.5q45 0 75 -30.5t30 -81.5q0 -41 -13.5 -79t-37 -67.5t-53.5 -47t-62 -17.5q-45 0 -78 30.5t-33 85.5z" />
<glyph unicode="k" horiz-adv-x="954" d="M-31 88q0 90 22.5 225.5t65.5 283.5t103.5 296.5t134.5 266.5t160 191.5t182 73.5q33 0 65.5 -17t59 -45t42 -59.5t15.5 -58.5q0 -43 -21.5 -95t-53 -106.5t-68.5 -105.5t-70 -91t-55.5 -65.5t-24.5 -27.5q2 2 18.5 9t40 15t54.5 15.5t63 7.5q53 0 95.5 -47t42.5 -111 q0 -59 -51.5 -110.5t-112.5 -92.5q-72 -47 -162 -88q0 -16 19.5 -47t52 -63.5t77 -56t91.5 -23.5q45 0 81.5 20.5t63.5 44.5q31 29 55 66q2 6 11 14q4 4 12 9.5t18 5.5q16 0 29.5 -12.5t13.5 -28.5q0 -8 -3 -15.5t-7 -15.5q-4 -9 -8 -19q-47 -72 -102 -127 q-47 -47 -112 -85.5t-138 -38.5q-55 0 -121 33.5t-122 83.5t-94 107.5t-38 104.5q0 20 46 46t100.5 61t100.5 80t46 106q0 57 -47 57q-55 0 -113.5 -45t-108 -128t-80 -200.5t-30.5 -265.5q0 -18 -7 -29t-30 -11q-20 0 -54 5t-67 17t-56.5 32.5t-23.5 53.5zM332 672 q33 31 75 76t85 99t83.5 111.5t72.5 110.5t51.5 100t19.5 78q0 41 -37 41q-29 0 -69 -45t-86 -127t-96 -195.5t-99 -248.5z" />
<glyph unicode="l" horiz-adv-x="585" d="M-12 287q0 102 23.5 227t66.5 251t99 244.5t124 212t140.5 148.5t146.5 55q35 0 65.5 -16t54 -41t38 -54.5t14.5 -56.5q0 -43 -23.5 -109.5t-62.5 -143t-91.5 -158.5t-108.5 -159t-113.5 -143.5t-108.5 -109.5q-4 -25 -8 -51q-4 -23 -6 -50.5t-2 -53.5q0 -72 33.5 -117 t97.5 -45q41 0 80.5 26.5t70.5 61.5q37 37 68 88q2 6 10 14q4 4 12 9.5t19 5.5q16 0 29.5 -12.5t13.5 -28.5q0 -8 -3 -15.5t-8 -15.5q-4 -8 -8 -19q-45 -72 -100 -127q-47 -47 -111.5 -85.5t-140.5 -38.5q-61 0 -117.5 20t-99.5 60t-68.5 97.5t-25.5 129.5zM283 573 q35 29 76.5 82.5t82.5 120t80 138t69 138t48 122t18 86.5q0 29 -24 28q-29 0 -75 -63.5t-96 -166t-99.5 -229.5t-79.5 -256z" />
<glyph unicode="m" horiz-adv-x="1400" d="M-35 92q0 90 19.5 186.5t46 184.5t54.5 161.5t46 116.5q16 39 55 39q23 0 60 -18.5t84 -91.5q43 37 90 65q41 25 91 45.5t103 20.5q68 0 107 -43t61 -109q47 41 99 76q43 29 97 52.5t112 23.5q27 0 54 -13.5t50 -35t36 -48t13 -53.5q0 -41 -19.5 -94t-44 -113.5t-44 -124 t-19.5 -124.5q0 -35 17.5 -56.5t48.5 -21.5q41 0 81 26.5t70 61.5q37 37 68 88q2 6 10 14q4 4 12.5 9.5t18.5 5.5q16 0 29.5 -12.5t13.5 -28.5q0 -8 -3 -15.5t-7 -15.5t-9 -19q-45 -72 -100 -127q-47 -47 -111.5 -85.5t-140.5 -38.5q-117 0 -188.5 62.5t-71.5 162.5 q0 70 16.5 127t36 104t35.5 88t16 76q0 20 -10 29.5t-26 9.5q-35 0 -94.5 -64.5t-110.5 -191.5q-45 -109 -65.5 -200t-20.5 -163q0 -27 -11.5 -33.5t-33.5 -6.5q-82 0 -137.5 31.5t-55.5 80.5q0 63 18.5 136t42 142.5t42 129t18.5 96.5q0 43 -37 43t-85 -41t-90 -120 t-70.5 -194.5t-28.5 -263.5q0 -27 -11.5 -33.5t-33.5 -6.5q-82 0 -137.5 31.5t-55.5 80.5z" />
<glyph unicode="n" horiz-adv-x="1001" d="M-35 92q0 86 19.5 181.5t46 184.5t54.5 164.5t46 118.5q16 39 55 39q23 0 60 -18.5t84 -91.5q43 37 96 65q45 25 102.5 45.5t122.5 20.5q33 0 65 -16.5t56.5 -42t38.5 -56.5t14 -61q0 -47 -17 -99.5t-36.5 -108t-37 -111.5t-17.5 -111q0 -35 17.5 -56.5t47.5 -21.5 q41 0 81 26.5t71 61.5q37 37 67 88q2 6 11 14q4 4 12 9.5t18 5.5q16 0 29.5 -12.5t13.5 -28.5q0 -8 -3 -15.5t-7 -15.5t-8 -19q-45 -72 -100 -127q-47 -47 -111.5 -85.5t-140.5 -38.5q-117 0 -188.5 60t-71.5 146q0 63 16 122t35.5 114t36 105.5t16.5 97.5q0 14 -12 23 t-29 9q-47 0 -101.5 -44t-102.5 -127t-79.5 -200.5t-31.5 -265.5q0 -27 -11.5 -33.5t-33.5 -6.5q-82 0 -137.5 31.5t-55.5 80.5z" />
<glyph unicode="o" d="M-12 268q0 129 44 228.5t113.5 167t153.5 102.5t164 35q63 0 118.5 -20.5t95.5 -60.5t63.5 -96.5t23.5 -125.5q0 -82 -34 -172t-93 -168q8 -2 15 -3t18 -1q53 0 96 21.5t76 47.5q37 31 69 70q2 6 11 14q4 4 12 9.5t18 5.5q16 0 29.5 -12.5t13.5 -28.5q0 -8 -3 -15.5 t-7 -15.5q-4 -9 -8 -19q-35 -51 -88 -88q-45 -35 -111.5 -61.5t-156.5 -26.5q-37 0 -80 6q-49 -39 -108.5 -60t-125.5 -21q-63 0 -121.5 22.5t-102.5 61t-69.5 92t-25.5 112.5zM229 217q0 -61 26 -100t73 -39q33 0 63 24q-35 23 -35 50q0 16 11.5 34.5t28 32.5t33.5 23.5 t30 9.5q10 0 22 -4q31 78 47.5 165t16.5 154q0 70 -22.5 99.5t-57.5 29.5t-76 -35.5t-77 -100t-59.5 -152t-23.5 -191.5z" />
<glyph unicode="p" horiz-adv-x="952" d="M-162 -401q0 37 14.5 115.5t37 181t53 220t62.5 233.5t63.5 218.5t58.5 173.5q16 39 57 39q23 0 59 -18.5t83 -91.5q43 37 88 65q39 25 85 45.5t93 20.5q55 0 100 -23.5t77 -60.5t50.5 -82t18.5 -90q0 -86 -38 -192.5t-108 -196.5q6 -2 19 -2q53 0 96 21.5t76 47.5 q37 31 69 70q2 6 11 14q4 4 12 9.5t18 5.5q16 0 29.5 -12.5t13.5 -28.5q0 -8 -3 -15.5t-7 -15.5q-4 -9 -8 -19q-35 -51 -88 -88q-45 -35 -111.5 -61.5t-156.5 -26.5q-14 0 -31 1t-33 3q-47 -37 -102.5 -58t-116.5 -21q-49 0 -87 15t-65 36q-31 23 -53 53q-18 -45 -37.5 -120 t-36 -159t-27 -165.5t-10.5 -141.5q0 -45 -38 -45q-29 0 -62 7.5t-60.5 23.5t-46 45t-18.5 70zM227 250q0 -59 31 -108.5t82 -49.5q33 0 68 31q-10 14 -11 29q0 16 11.5 33.5t27 31.5t32.5 24.5t30 10.5q20 41 36.5 85t27.5 86t17.5 78t6.5 60q0 55 -17.5 78t-52.5 23 q-41 0 -90 -44.5t-94 -108t-75 -134t-30 -125.5z" />
<glyph unicode="q" horiz-adv-x="948" d="M-29 193q0 111 42 219t109.5 195t151.5 140.5t168 53.5q61 0 104.5 -15.5t69.5 -33.5q31 -23 50 -47q23 0 48 -5.5t46.5 -16.5t36 -29.5t14.5 -45.5q0 -16 -14.5 -69.5t-35 -127t-44 -160.5t-41.5 -173q51 0 100 32.5t88 73.5q45 47 84 109q2 6 10 14q4 4 12.5 9.5 t18.5 5.5q16 0 29.5 -12.5t13.5 -28.5q0 -8 -3 -15.5t-7 -15.5t-8 -19q-37 -59 -84 -110q-41 -43 -95 -85.5t-120 -58.5q23 -27 41 -57q16 -27 29.5 -61.5t13.5 -73.5q0 -25 -19.5 -62.5t-50.5 -78.5t-68.5 -82t-74.5 -73t-69 -52.5t-50 -20.5q-41 0 -71.5 38t-30.5 89 q0 74 11 156t27.5 164t34 156.5t29.5 134.5q-41 -51 -88 -88q-41 -33 -92 -59.5t-111 -26.5q-41 0 -79 15t-65.5 44t-44 67.5t-16.5 86.5zM221 227q0 -92 60 -92q37 0 85 49t92 121t73.5 151t29.5 138q0 45 -22.5 66.5t-53.5 21.5q-45 0 -92 -47t-85 -115.5t-62.5 -148.5 t-24.5 -144zM563 -420q29 41 51 86q20 39 37 86t17 94q0 18 -5.5 35t-11.5 31q-8 14 -16 29q-18 -59 -31.5 -123t-23.5 -117q-11 -64 -17 -121z" />
<glyph unicode="r" horiz-adv-x="804" d="M-23 244q0 14 9.5 27.5t13.5 21.5q29 41 81 130t97 234q-20 14 -35 37q-12 18 -22 47t-10 68q0 31 11 58.5t29.5 48t39 33t38.5 12.5q20 0 43 -11.5t41.5 -27t30.5 -35t12 -33.5q0 -41 -13 -67.5t-13 -51.5q0 -23 24.5 -33t61.5 -10q35 0 58.5 4t42 9.5t34.5 9.5t35 4 q37 0 60.5 -28.5t23.5 -69.5q0 -35 -23.5 -83.5t-52.5 -105.5t-52.5 -120t-23.5 -124q0 -35 18.5 -53t49.5 -18q41 0 81 26.5t70 61.5q37 37 68 88q2 6 10 14q4 4 12.5 9.5t18.5 5.5q16 0 29.5 -12.5t13.5 -28.5q0 -8 -3 -15.5t-7 -15.5t-9 -19q-45 -72 -100 -127 q-47 -47 -111.5 -85.5t-140.5 -38.5q-59 0 -106 16t-82 44t-53.5 64.5t-18.5 79.5q0 68 20.5 127.5t44 108.5t44 87t20.5 62q0 16 -19.5 24.5t-41.5 14.5q-27 6 -62 10q-59 -150 -112.5 -244.5t-85.5 -142.5q-4 -6 -15.5 -18t-30.5 -12q-16 0 -29.5 13t-13.5 30z" />
<glyph unicode="s" horiz-adv-x="837" d="M-47 266q0 45 30.5 76t67.5 51q43 23 99 37q12 20 32 51q16 27 43 67t62 95q72 109 123 151t90 42q16 0 33.5 -9.5t33 -21.5t24.5 -24.5t9 -20.5q0 -10 -8 -25.5t-17.5 -33t-16.5 -37t-7 -39.5q0 -61 12 -106.5t27.5 -85.5t28 -78t12.5 -85q0 -41 -7.5 -68.5t-17.5 -47.5 q-10 -23 -22 -39q59 16 107 45.5t81 58.5q37 35 66 74q2 6 10 14q4 4 12 9.5t19 5.5q16 0 29.5 -12.5t13.5 -28.5q0 -8 -3.5 -15.5t-7.5 -15.5q-4 -9 -8 -19q-51 -76 -133 -133q-70 -51 -179.5 -92t-266.5 -41q-76 0 -143.5 30t-118 75t-80 98t-29.5 98zM174 289 q0 -45 5 -87t17.5 -75t31 -52.5t46.5 -19.5q47 0 81 51.5t34 120.5q0 39 -10 82t-21.5 85t-21.5 82t-10 71q-43 -66 -76 -119q-29 -47 -52.5 -88t-23.5 -51z" />
<glyph unicode="t" horiz-adv-x="557" d="M-20 223q0 43 10 105.5t28.5 136.5t42 155.5t50.5 161.5h-56q-16 0 -16 19q0 16 19.5 43.5t41.5 27.5h41q31 84 60.5 155t58.5 120q8 16 22.5 27.5t32.5 11.5q23 0 50.5 -14.5t52 -34t41 -40t16.5 -34.5t-19.5 -64.5t-47.5 -126.5h137q16 0 16 -18q0 -8 -6 -20.5 t-15.5 -23.5t-19.5 -19.5t-20 -8.5h-127q-25 -68 -50.5 -143.5t-46 -149t-34 -142t-13.5 -124.5q0 -47 32 -76.5t77 -29.5q41 0 81 26.5t70 61.5q37 37 68 88q2 6 10 14q4 4 12.5 9.5t18.5 5.5q16 0 29.5 -12.5t13.5 -28.5q0 -8 -3 -15.5t-7 -15.5t-8 -19q-45 -72 -101 -127 q-47 -47 -111.5 -85.5t-140.5 -38.5q-49 0 -100 17t-93 50t-69.5 78t-27.5 98z" />
<glyph unicode="u" horiz-adv-x="999" d="M-29 178q0 55 18.5 137t43 167t52.5 161t46 119q8 16 22.5 27.5t32.5 11.5q23 0 51.5 -14.5t53 -33t41 -38t16.5 -31.5q0 -47 -20.5 -104.5t-46 -124t-46 -139t-20.5 -146.5q0 -25 12.5 -43t34.5 -18q25 0 51.5 13t51 34.5t45 47t32.5 50.5q16 33 39 100.5t46.5 143 t46 148.5t40.5 116q8 16 22.5 27.5t35.5 11.5q23 0 50.5 -14.5t52 -33t40.5 -38t16 -31.5q0 -47 -18 -101.5t-39.5 -115.5t-40 -129.5t-18.5 -142.5q0 -35 17.5 -56.5t47.5 -21.5q41 0 81 26.5t71 61.5q37 37 67 88q2 6 11 14q4 4 12 9.5t18 5.5q16 0 29.5 -12.5t13.5 -28.5 q0 -8 -3 -15.5t-7 -15.5t-8 -19q-45 -72 -100 -127q-47 -47 -112 -85.5t-140 -38.5q-59 0 -101.5 13t-72 34.5t-48 49t-26.5 56.5q-25 -29 -56.5 -56.5t-68.5 -49t-77 -34.5t-79 -13q-35 0 -72.5 15t-68.5 41.5t-51.5 63.5t-20.5 78z" />
<glyph unicode="v" horiz-adv-x="851" d="M-29 123q0 86 18.5 180t43 182t52.5 161t46 116q8 16 22.5 27.5t32.5 11.5q23 0 51.5 -17.5t53 -40t41 -45t16.5 -34.5q0 -47 -20.5 -105.5t-46 -120t-46 -122t-20.5 -109.5q0 -23 9 -39t26 -16q12 0 29 10v10q0 16 11 34.5t27.5 33t34 23.5t29.5 9h2q33 45 64.5 101.5 t57 120t41 131t15.5 135.5q0 41 43 41q25 0 53.5 -12.5t53 -35t41 -53t16.5 -65.5q0 -39 -21.5 -93.5t-59.5 -112.5t-89 -117.5t-109 -110.5q23 -18 50.5 -32.5t70.5 -14.5q53 0 96.5 21.5t75.5 47.5q37 31 70 70q2 6 10 14q4 4 12.5 9.5t18.5 5.5q16 0 29.5 -12.5 t13.5 -28.5q0 -8 -3 -15.5t-7 -15.5q-4 -9 -8 -19q-35 -51 -89 -88q-45 -35 -111.5 -61.5t-156.5 -26.5q-43 0 -101.5 12.5t-105.5 32.5q-111 -70 -176 -95t-104 -25q-16 0 -35 12t-34 32.5t-24.5 46t-9.5 52.5z" />
<glyph unicode="w" horiz-adv-x="1378" d="M-29 178q0 55 18.5 137t43 167t52.5 161t46 119q8 16 22.5 27.5t32.5 11.5q23 0 51.5 -14.5t53 -33t41 -38t16.5 -31.5q0 -47 -20.5 -104.5t-46 -124t-46 -139t-20.5 -146.5q0 -25 12.5 -43t34.5 -18q25 0 51.5 16t54 44t52 66.5t43.5 83.5q20 55 41.5 116t42 121 t38 113.5t33.5 92.5q8 16 22.5 27.5t35.5 11.5q23 0 50.5 -14.5t52 -33t41 -38t16.5 -31.5q0 -45 -19.5 -103.5t-44 -126t-44 -142t-19.5 -150.5q0 -61 53 -62q33 0 69 27q-8 10 -8 25q0 16 11.5 33.5t27 31.5t32.5 24.5t30 10.5q27 49 48 109.5t36.5 127t24.5 135t9 136.5 q0 41 43 41q23 0 51.5 -12.5t53 -35t42 -53t17.5 -65.5q0 -51 -13 -109.5t-39 -119t-60.5 -120t-77.5 -110.5q16 -10 34.5 -16t43.5 -6q53 0 96 21.5t76 47.5q37 31 69 70q2 6 11 14q4 4 12 9.5t18 5.5q16 0 29.5 -12.5t13.5 -28.5q0 -8 -3 -15.5t-7 -15.5q-4 -9 -8 -19 q-35 -51 -88 -88q-45 -35 -111.5 -61.5t-157.5 -26.5q-63 0 -139 17q-53 -43 -113.5 -67.5t-121.5 -24.5q-57 0 -101.5 25.5t-74.5 55.5q-37 37 -66 82q-39 -45 -84 -82q-39 -31 -91 -56t-112 -25q-35 0 -72.5 15t-68.5 41.5t-51.5 63.5t-20.5 78z" />
<glyph unicode="x" horiz-adv-x="929" d="M-23 244q0 14 9.5 27.5t13.5 21.5q29 41 81 130t97 234q10 33 38 59.5t61.5 45t70.5 29t68 10.5q76 0 104.5 -78t36.5 -262q53 70 76.5 137.5t23.5 95.5q0 18 28 38t62.5 35t67.5 24.5t43 9.5q39 0 39 -37q0 -20 -29.5 -71.5t-78 -113t-107.5 -124t-121 -107.5 q8 -121 46 -176t104 -55q41 0 80.5 26.5t70.5 61.5q37 37 68 88q2 6 10 14q4 4 12.5 9.5t18.5 5.5q16 0 29.5 -12.5t13.5 -28.5q0 -8 -3 -15.5t-7 -15.5t-9 -19q-45 -72 -100 -127q-47 -47 -111.5 -85.5t-140.5 -38.5q-109 0 -189.5 48t-113.5 165q-35 -35 -77 -72t-84 -69 t-81 -52t-67 -20q-14 0 -21.5 6t-7.5 24q0 14 9 39t24.5 50.5t33 46t33.5 24.5q55 12 113.5 49t106.5 74q-10 86 -16.5 143.5t-10.5 93t-10 51t-17 15.5q-14 0 -24 -25q-49 -127 -97.5 -209.5t-80.5 -130.5q-4 -6 -15.5 -18t-30.5 -12q-16 0 -29.5 13t-13.5 30z" />
<glyph unicode="y" horiz-adv-x="954" d="M-20 178q0 55 18 137t43 167t52.5 161t45.5 119q8 16 22.5 27.5t33.5 11.5q23 0 51 -14.5t53 -33t41 -38t16 -31.5q0 -41 -20.5 -100.5t-46 -129t-46 -143t-20.5 -141.5q0 -25 12.5 -43t34.5 -18q25 0 51.5 13t51 34.5t45 47t33.5 50.5q29 53 53 119.5t45.5 135.5 t39 134.5t34.5 118.5q4 18 20 28.5t37 10.5q23 0 50.5 -14.5t52 -33t41 -38t16.5 -31.5q0 -23 -12.5 -80t-31 -134t-42 -163t-45.5 -162l-25 -92q98 57 161.5 117.5t108.5 122.5q4 6 13 14q6 4 14 9.5t18 5.5q18 0 30.5 -12.5t12.5 -28.5q0 -8 -4 -15.5t-8 -15.5 q-6 -8 -10 -19q-53 -72 -139 -146.5t-228 -147.5q-27 -92 -60.5 -185.5t-82.5 -167t-117.5 -121t-161.5 -47.5q-47 0 -89 15.5t-73.5 41t-50 61.5t-18.5 77q0 51 31.5 95t89 83t136.5 75t171 73q16 57 26.5 108t18.5 88q-25 -29 -56.5 -56.5t-68.5 -49t-77 -34.5t-78 -13 q-35 0 -73 15t-69 41.5t-51 63.5t-20 78zM143 -434q0 -41 37 -41q33 0 63.5 23.5t57.5 62.5t49.5 91t40.5 108q-55 -31 -100 -65t-78 -66.5t-51.5 -62.5t-18.5 -50z" />
<glyph unicode="z" horiz-adv-x="962" d="M-23 244q0 14 9.5 27.5t13.5 21.5q29 41 81 130t97 234q29 92 75 118t116 26q49 0 91 -6.5t78.5 -13.5t70.5 -13t69 -6q47 0 80 19.5t55 19.5q14 0 29.5 -12.5t28 -30t19.5 -37t7 -35.5q0 -23 -59.5 -74t-143.5 -116.5t-175 -138t-157 -138.5q70 0 120 -16.5t92 -34.5 t81 -34.5t88 -16.5q41 0 81 26.5t71 61.5q37 37 68 88q2 6 10 14q4 4 12 9.5t19 5.5q16 0 29.5 -12.5t13.5 -28.5q0 -8 -3.5 -15.5t-7.5 -15.5t-8 -19q-45 -72 -100 -127q-47 -47 -111.5 -85.5t-140.5 -38.5q-43 0 -76 6t-65.5 13t-69.5 13t-86 6q-72 0 -121 -19t-86 -19 q-18 0 -35.5 10t-32 25.5t-22.5 33t-8 31.5q0 20 27.5 53t72.5 74t100.5 86t110.5 91t104.5 90t79.5 81q-59 0 -114.5 20.5t-114.5 20.5q-45 0 -76.5 -31.5t-68.5 -103.5q-80 -160 -129 -230q-4 -6 -15.5 -18t-30.5 -12q-16 0 -29.5 13t-13.5 30z" />
<glyph unicode="{" horiz-adv-x="555" d="M-16 121q0 68 17 123t38.5 107t39 106.5t17.5 120.5q0 29 -9 49t-21.5 35.5t-21.5 26.5t-9 22q0 27 22.5 42t40.5 25q53 29 108.5 91.5t98.5 172.5q27 70 46.5 124.5t38 97.5t39 77.5t46.5 63.5q35 39 79 63.5t86 39t78 19.5t56 5q41 0 41 -29q0 -16 -14.5 -24.5 t-32.5 -14.5q-53 -16 -90 -53t-68 -119q-18 -49 -27.5 -87t-16.5 -74.5t-16 -74.5t-28 -83q-23 -55 -69.5 -100.5t-94.5 -77.5q-55 -37 -120 -68q31 -23 53 -49q20 -23 36.5 -56.5t16.5 -74.5q0 -68 -25.5 -127.5t-55.5 -117.5t-55.5 -116.5t-25.5 -122.5q0 -29 9.5 -57.5 t31.5 -50.5q12 -12 20.5 -19.5t8.5 -23.5q0 -31 -39 -31q-41 0 -82 15.5t-73.5 46t-53 75.5t-20.5 103z" />
<glyph unicode="|" horiz-adv-x="532" d="M164 -59v1491q0 51 100 51q57 0 81 -13.5t24 -37.5v-1495q0 -23 -19.5 -34.5t-79.5 -11.5q-106 0 -106 50z" />
<glyph unicode="}" horiz-adv-x="555" d="M-16 -90q0 16 14 24.5t33 14.5q53 16 90 53t67 119q18 49 27.5 87t17 74.5t16.5 73.5t27 84q23 53 70 99.5t94 78.5q55 37 121 68q-31 23 -53 49q-20 23 -36.5 56.5t-16.5 74.5q0 68 25.5 127.5t55 117.5t55 115.5t25.5 123.5q0 29 -9 57.5t-32 50.5q-12 12 -20 19.5 t-8 23.5q0 31 39 31q41 0 82 -15.5t73.5 -46t53 -75.5t20.5 -103q0 -68 -17.5 -123t-39 -107t-39 -107.5t-17.5 -118.5q0 -29 9.5 -49.5t21.5 -36t21.5 -26.5t9.5 -22q0 -27 -23 -42t-41 -25q-53 -29 -108 -91.5t-98 -172.5q-27 -70 -47.5 -124t-39 -97.5t-38 -78 t-45.5 -63.5q-35 -39 -79 -63.5t-86 -39t-78 -19.5t-56 -5q-41 0 -41 29z" />
<glyph unicode="~" horiz-adv-x="954" d="M43 528q0 14 12.5 44t36.5 63q35 47 84 80t141 33q55 0 100.5 -17.5t89.5 -38t90 -38t99 -17.5q45 0 78 11t56.5 23.5t37 24t21.5 11.5q10 0 17 -6.5t7 -16.5q0 -20 -18 -56t-49 -71q-39 -41 -82 -73.5t-117 -32.5q-51 0 -100 18t-99.5 42t-103 42t-111.5 18 q-33 0 -59.5 -10t-48 -22.5t-36.5 -22.5t-21 -10q-25 0 -25 22z" />
<glyph unicode="&#xa1;" horiz-adv-x="589" d="M6 -125q0 20 17.5 70.5t47 119t65.5 151.5t74 168t72.5 167t59.5 151q18 53 57 72q29 14 61 20.5t46 6.5q39 0 39 -35q0 -12 -20.5 -83t-52.5 -172t-68.5 -220t-68.5 -228.5t-52.5 -195.5t-20.5 -123q0 -35 -57 -35q-25 0 -58.5 15.5t-65.5 39t-53.5 53t-21.5 58.5z M377 979q0 27 11 57.5t32.5 56t51.5 42t65 16.5q49 0 77.5 -30t28.5 -79q0 -29 -13.5 -58.5t-35 -54t-51 -40t-60.5 -15.5q-47 0 -76.5 28t-29.5 77z" />
<glyph unicode="&#xa2;" horiz-adv-x="727" d="M20 303q0 74 25 141.5t72 119.5t114.5 88t151.5 48v54q0 27 25.5 40t48.5 13q29 0 52 -13.5t23 -39.5v-52q84 -10 120 -45.5t36 -78.5q0 -35 -19.5 -54.5t-45.5 -19.5q-23 0 -38.5 16.5t-15.5 42.5q0 14 -7 27.5t-30 17.5v-438q31 8 55.5 21.5t41.5 25.5q16 12 27.5 19.5 t21.5 7.5q14 0 21.5 -8.5t7.5 -18.5q0 -16 -10.5 -31.5t-37.5 -40.5q-23 -23 -52 -47t-75 -43v-75q0 -23 -19 -38.5t-50 -15.5q-27 0 -53.5 13.5t-26.5 37.5v41h-21q-74 0 -137 19.5t-108 55.5t-71 89.5t-26 120.5zM299 346q0 -61 26.5 -101t57.5 -61v357 q-29 -35 -56.5 -85.5t-27.5 -109.5z" />
<glyph unicode="&#xa3;" horiz-adv-x="899" d="M4 135q0 18 13.5 35.5t33 41.5t40 57.5t34.5 84.5q12 45 16 104.5t9 143.5h-97q-29 0 -28 31q0 10 5 28.5t13 37t20.5 32.5t24.5 14h64v54q0 260 111.5 399t309.5 139q94 0 161 -18.5t110 -50t62.5 -71.5t19.5 -83q0 -57 -28 -110.5t-69 -93.5t-86 -64.5t-77 -24.5 q-31 0 -31 35q0 10 7 31.5t14.5 51.5t14.5 66.5t7 77.5q0 63 -22.5 94t-63.5 31q-68 0 -110 -67.5t-42 -179.5q0 -59 -1 -112.5t-3 -103.5h103q35 0 34 -28q0 -10 -6 -29.5t-15 -38t-22.5 -33t-25.5 -14.5h-80q-25 -248 -96 -352q16 2 33.5 3t35.5 1q59 0 124 -5t106 -5 q33 0 55.5 4t39.5 12t30.5 21.5t29.5 31.5q27 33 41 33q31 0 31 -37q0 -31 -19.5 -85t-57.5 -106t-94 -90t-132 -38q-51 0 -92 8t-79 18.5t-78 18.5t-89 8q-35 0 -65.5 -21.5t-63.5 -21.5q-16 0 -30.5 14.5t-26 36t-17.5 45t-6 39.5z" />
<glyph unicode="&#xa5;" horiz-adv-x="952" d="M25 395q0 37 22 56q10 8 25 14h159l21 94h-178l-13.5 13.5t-11.5 48.5q0 25 6 39t17 22q10 8 24 12h166l-205 559q0 18 9 35q6 12 22 23.5t45 11.5q47 0 72.5 -10t40.5 -21q16 -14 22 -30l154 -420l285 420q8 18 30 32q16 12 48 22.5t81 10.5q45 0 57.5 -17.5t12.5 -33.5 q0 -6 -1 -10t-1 -9q-2 -4 -2 -6l-414 -557h146q12 0 20 -8q8 -6 14.5 -19.5t6.5 -37.5q0 -27 -10.5 -41.5t-22.5 -20.5q-14 -8 -31 -8h-184l-21 -94h211q8 0 20.5 -8t12.5 -60q0 -25 -10.5 -38t-20.5 -19q-14 -8 -31 -8h-204l-58 -285q-4 -16 -16 -29q-10 -10 -29.5 -19 t-54.5 -9q-41 0 -62.5 9t-31.5 19q-10 12 -12 29l57 285h-158q-6 2 -12 10q-4 6 -8 18.5t-4 34.5z" />
<glyph unicode="&#xa6;" horiz-adv-x="256" d="M47 283q0 12 18.5 25.5t42 23.5t46 16t32.5 6q16 0 22.5 -7t6.5 -30v-604q0 -12 -17.5 -24.5t-40 -21.5t-45 -14t-32.5 -5q-33 0 -33 30v605zM47 600v604q0 12 18.5 25.5t42 24t46 16.5t32.5 6q16 0 22.5 -7t6.5 -30v-604q0 -12 -17.5 -24.5t-40 -21.5t-45 -14.5 t-32.5 -5.5q-33 0 -33 31z" />
<glyph unicode="&#xa7;" horiz-adv-x="772" d="M20 59q0 49 33 77t68 28q33 0 50 -18.5t28.5 -40t21.5 -40t31 -18.5q41 0 55.5 34t14.5 75q0 55 -39 110.5t-85 121t-84 144t-38 179.5q0 106 44 203.5t117.5 170t169 115.5t197.5 43q66 0 107 -30.5t41 -79.5t-27 -78t-68 -29t-59 17.5t-27.5 39t-17.5 40t-29 18.5 q-39 0 -55 -32t-16 -71q0 -55 37.5 -105t81.5 -110.5t82 -137.5t38 -183t-41 -206.5t-111.5 -177.5t-164.5 -124t-201 -47q-78 0 -116 31.5t-38 80.5zM233 793q0 -70 35 -133.5t77 -126t77 -129t35 -144.5q0 -18 -2 -35.5t-6 -34.5q-4 -18 -7 -32q27 33 50 69q18 33 33.5 75 t15.5 91q0 61 -35 125t-78 128.5t-78 132t-35 139.5q0 25 2 44t7 33q4 17 8 31q-12 -10 -29.5 -31.5t-33 -52.5t-26 -68.5t-10.5 -80.5z" />
<glyph unicode="&#xa8;" horiz-adv-x="610" d="M43 1085q0 27 11.5 54.5t30.5 50t45 38t54 15.5q39 0 62.5 -28.5t23.5 -69.5q0 -27 -10 -55.5t-29.5 -51t-46 -38t-59.5 -15.5q-35 0 -58.5 28.5t-23.5 71.5zM340 1085q0 27 11 54.5t30.5 50t45.5 38t54 15.5q39 0 62.5 -28.5t23.5 -69.5q0 -27 -10 -55.5t-29.5 -51 t-46 -38t-59.5 -15.5q-35 0 -58.5 28.5t-23.5 71.5z" />
<glyph unicode="&#xa9;" horiz-adv-x="1024" d="M25 889q0 98 37.5 185t104 153.5t155 104.5t186.5 38q100 0 188 -38t153.5 -104.5t104.5 -153.5t39 -185q0 -100 -39 -188.5t-104.5 -155t-153.5 -104.5t-188 -38q-98 0 -186.5 38t-155 104.5t-104 155t-37.5 188.5zM145 889q0 -78 29 -144.5t78 -115.5t114.5 -77 t141.5 -28t143.5 28t116.5 77t77.5 115.5t28.5 144.5q0 76 -28.5 141.5t-77.5 114.5t-116.5 77.5t-143.5 28.5t-141.5 -28.5t-114.5 -77.5t-78 -114.5t-29 -141.5zM211 883q0 68 23.5 123t66.5 95t103.5 61.5t132.5 21.5q29 0 58.5 -6.5t53 -15.5t38.5 -20.5t15 -21.5 q0 -82 -38 -82q-16 0 -46 18.5t-77 18.5q-92 0 -146.5 -50t-54.5 -138q0 -90 51 -140.5t141 -50.5q31 0 53.5 5.5t38 12.5t27 12t23.5 5q41 0 41 -59q0 -23 -20.5 -38.5t-50.5 -24.5t-63.5 -13t-60.5 -4q-68 0 -124 17.5t-97 54t-64.5 91t-23.5 128.5z" />
<glyph unicode="&#xaa;" horiz-adv-x="675" d="M4 1049q0 68 25.5 135t67.5 120.5t93.5 86t104.5 32.5q39 0 64.5 -10t41.5 -20q18 -12 31 -29q29 0 59.5 -13.5t30.5 -45.5q0 -14 -11 -46t-25.5 -71t-25.5 -79t-11 -73q0 -14 9 -24.5t25 -10.5q27 0 51.5 16.5t43.5 37.5q23 23 40 55q2 4 7 8q10 10 20 10t18.5 -8 t8.5 -18q0 -4 -2 -9.5t-4 -9.5q-5 -6 -7 -10q-27 -43 -61 -78q-29 -29 -69 -53t-87 -24q-53 0 -90 26.5t-43 79.5q-25 -31 -53 -53q-25 -20 -58.5 -36.5t-68.5 -16.5q-51 0 -88 35.5t-37 95.5zM158 1069q0 -55 37 -55q23 0 52 30.5t56 73.5t45.5 92t18.5 86q0 27 -13.5 40.5 t-31.5 13.5q-29 0 -57.5 -29t-52.5 -72t-39 -92t-15 -88z" />
<glyph unicode="&#xab;" horiz-adv-x="1128" d="M41 580q0 35 6 59.5t18.5 47t31 44t40.5 49.5q43 53 137 140.5t213 191.5q12 10 26.5 21.5t37.5 11.5q12 0 30.5 -11.5t36 -29t28.5 -36.5t11 -36q0 -18 -9 -28.5t-23 -24.5q-121 -111 -203 -189.5t-107 -105.5q-23 -23 -38 -48.5t-15 -53.5q0 -23 13.5 -44.5t31.5 -41.5 q70 -76 152 -157t168 -161q16 -16 23 -24.5t7 -28.5q0 -14 -10 -32.5t-26.5 -36t-35 -30t-34.5 -12.5t-29.5 6.5t-23.5 16.5q-68 59 -166.5 151.5t-200.5 202.5q-29 31 -59.5 75t-30.5 114zM471 580q0 35 6 59.5t18.5 47t31 44t40.5 49.5q43 53 137.5 140.5t213.5 191.5 q12 10 26 21.5t37 11.5q12 0 30.5 -11.5t36 -29t28.5 -36.5t11 -36q0 -18 -9 -28.5t-23 -24.5q-121 -111 -203 -189.5t-107 -105.5q-23 -23 -38 -48.5t-15 -53.5q0 -23 13.5 -44.5t31.5 -41.5q70 -76 152 -157t168 -161q16 -16 23 -24.5t7 -28.5q0 -14 -10 -32.5t-26.5 -36 t-35 -30t-34.5 -12.5t-29.5 6.5t-23.5 16.5q-68 59 -166 151.5t-201 202.5q-29 31 -59.5 75t-30.5 114z" />
<glyph unicode="&#xad;" horiz-adv-x="890" d="M35 643q0 12 8 20.5t18 8.5t22.5 -8.5t28 -17.5t36 -16t47.5 -7q78 0 148.5 7t134 16t117.5 16.5t101 7.5q27 0 57.5 -21.5t56.5 -49.5t43 -55.5t17 -39.5t-11 -22.5t-19 -10.5q-12 0 -48 20.5t-87 20.5q-74 0 -137.5 -17.5t-122 -37t-109.5 -37t-100 -17.5q-41 0 -77 32 t-63.5 73t-44 80t-16.5 55z" />
<glyph unicode="&#xae;" horiz-adv-x="1005" d="M12 889q0 98 38 186t103.5 154.5t153.5 104.5t187 38q100 0 188 -38t153.5 -104.5t104.5 -154.5t39 -186t-39 -186.5t-104.5 -154t-153.5 -103t-188 -37.5q-98 0 -186.5 37.5t-154 103t-103.5 154t-38 186.5zM127 889q0 -76 29.5 -142.5t80 -115.5t117 -77t140.5 -28 q76 0 142 28t116.5 77t79 115.5t28.5 142.5t-28.5 142.5t-79 116.5t-117 78.5t-141.5 28.5q-74 0 -140.5 -28.5t-117 -78.5t-80 -116.5t-29.5 -142.5zM299 655v488q0 20 23 24q27 4 66.5 8.5t78.5 4.5q63 0 105 -12.5t75 -34.5q53 -37 53 -115q0 -45 -19 -76t-56 -55 q37 -33 51 -90l41 -135q2 -4 2 -11q0 -23 -23 -22h-78q-4 0 -10 4t-6 8q-20 29 -45 125q-20 78 -90 80h-47v-191q0 -27 -23 -26h-73q-25 0 -25 26zM420 942h51q49 0 78 18.5t29 49.5q0 35 -31 51t-78 16h-25.5t-23.5 -4v-131z" />
<glyph unicode="&#xaf;" horiz-adv-x="735" d="M61 1030q0 10 5.5 30.5t13.5 41t19.5 36t25.5 15.5h522q23 0 31 -6t8 -25q0 -10 -6 -31.5t-15.5 -42t-21.5 -36t-27 -15.5h-522q-33 0 -33 33z" />
<glyph unicode="&#xb0;" horiz-adv-x="495" d="M31 1055q0 45 17.5 85t47 69.5t69.5 47t85 17.5t85 -17.5t69.5 -47t47 -69.5t17.5 -85t-17.5 -85t-47 -70t-69.5 -47t-85 -17t-85 17t-69.5 47t-47 70t-17.5 85zM154 1055q0 -41 27.5 -69t68.5 -28t67.5 28t26.5 69t-26.5 67.5t-67.5 26.5t-68.5 -26.5t-27.5 -67.5z" />
<glyph unicode="&#xb1;" horiz-adv-x="1015" d="M41 35q0 10 8 35.5t21.5 52.5t29 47t27.5 20h747q23 0 30 -6t7 -22q0 -10 -9 -36t-23.5 -53.5t-31 -49t-28.5 -21.5h-747q-31 0 -31 33zM72 696q0 29 10 60.5t29 31.5h301v299q0 23 31.5 33t60.5 10t62.5 -10t33.5 -28v-304h299q23 0 33 -31.5t10 -60.5t-10 -62.5 t-29 -33.5h-303v-297q0 -10 -10 -18.5t-24.5 -13.5t-31 -8t-30.5 -3q-29 0 -60.5 10.5t-31.5 28.5v301h-297q-10 0 -18.5 10.5t-13.5 24.5t-8 30.5t-3 30.5z" />
<glyph unicode="&#xb2;" horiz-adv-x="825" d="M-4 692q0 47 40 85t101 38q37 0 87 -11t108 -26q57 51 115.5 115.5t103.5 134.5t73.5 138.5t28.5 125.5q0 39 -26.5 61.5t-63.5 22.5q-35 0 -74.5 -22.5t-75.5 -58t-59.5 -82t-23.5 -93.5q0 -51 21.5 -63.5t31.5 -12.5q14 0 14 -12q0 -10 -25.5 -31.5t-72.5 -21.5 q-25 0 -48.5 8t-44 22.5t-32.5 36t-12 50.5q0 76 43 140t109.5 111.5t145 73t152.5 25.5q117 0 177.5 -51.5t60.5 -147.5q0 -51 -34 -113.5t-89 -129t-125 -132t-143 -120.5q57 -12 116 -13q35 0 59.5 8.5t41 18.5t27 18.5t16.5 8.5q20 0 20 -19q0 -8 -15 -38.5t-43 -64.5 t-64.5 -60.5t-79.5 -26.5q-45 0 -99.5 24.5t-111.5 53.5q-59 -37 -110.5 -57.5t-86.5 -20.5q-59 0 -96 32.5t-37 75.5zM82 700q0 -18 13.5 -25t29.5 -7q43 0 108 39q-29 10 -53.5 18t-44.5 8q-27 0 -40 -10t-13 -23z" />
<glyph unicode="&#xb3;" horiz-adv-x="776" d="M16 735q0 33 25 59.5t56.5 45t60 28t39.5 9.5q27 0 26 -21q0 -10 -12 -22q-16 -16 -27.5 -37t-11.5 -49q0 -35 27.5 -64t81.5 -29q43 0 82.5 23.5t70.5 68t48.5 104.5t17.5 134q0 51 -23.5 81t-66.5 30q-10 -12 -27.5 -30.5t-39 -35t-45.5 -29t-48 -12.5 q-31 0 -48.5 17.5t-17.5 46.5t27 49t59 33q37 14 86 20l111 102q-29 0 -74 2.5t-88 10.5t-74.5 24.5t-31.5 44.5q0 25 22.5 44.5t51 33t58 21.5t44.5 8q20 0 20 -16q0 -8 -13 -17.5t-13 -26.5q0 -12 14 -23t38.5 -19.5t55.5 -12.5t64 -4q23 33 47 59q23 23 50.5 41.5 t55.5 18.5q29 0 47.5 -15.5t18.5 -41.5q0 -37 -33 -67t-104 -46l-125 -119q33 0 68.5 -9t65.5 -31.5t48 -59.5t18 -90q0 -80 -41 -149.5t-104.5 -122t-141 -82t-149.5 -29.5q-106 0 -176 42t-70 109z" />
<glyph unicode="&#xb4;" horiz-adv-x="403" d="M12 1014q0 12 6.5 20t26.5 19q47 29 99.5 87t99.5 134q12 20 22.5 30.5t26.5 10.5q12 0 29.5 -14.5t35 -36t28.5 -45t11 -39.5q0 -25 -9 -42.5t-40 -43.5q-33 -29 -75 -49.5t-84 -34t-78.5 -20.5t-61.5 -7q-16 0 -26.5 9t-10.5 22z" />
<glyph unicode="&#xb6;" horiz-adv-x="950" d="M10 1024q0 88 41 150.5t105.5 102.5t144.5 58.5t160 18.5h424q27 0 38 -15.5t11 -58.5q0 -70 -47 -70h-94v-1177q0 -23 -27 -35t-49 -12q-25 0 -49.5 12t-24.5 35v1177h-115v-1177q0 -23 -27.5 -35t-47.5 -12q-27 0 -53.5 12t-26.5 35v653q-74 2 -139.5 25.5t-114.5 66.5 t-79 104.5t-30 141.5z" />
<glyph unicode="&#xb7;" horiz-adv-x="299" d="M41 618q0 25 10 51.5t28.5 48t43 36t53.5 14.5q37 0 59.5 -26.5t22.5 -67.5q0 -25 -10 -52.5t-28.5 -49t-44 -36t-56.5 -14.5q-35 0 -56.5 27.5t-21.5 68.5z" />
<glyph unicode="&#xb8;" horiz-adv-x="536" d="M12 -350q0 35 24.5 62.5t55.5 27.5q23 0 35 -10.5t24.5 -22.5t30 -22.5t49.5 -10.5q33 0 66 13.5t58.5 31t41 35t15.5 27.5t-11 10q-47 0 -96 -15.5t-84 -15.5q-27 0 -41 18.5t-14 35.5q0 23 4 54.5t10 59.5q8 35 17 72h114q0 -10 1 -25.5t5.5 -31t11.5 -26.5t21 -11 q27 0 56.5 4t52.5 4q31 0 46 -20.5t15 -53.5q0 -41 -21.5 -91t-65.5 -94t-110.5 -74t-154.5 -30q-66 0 -111 27t-45 72z" />
<glyph unicode="&#xb9;" horiz-adv-x="512" d="M25 1202q0 20 9 41t21.5 38t25.5 31.5t23 24.5q12 12 27 13q12 0 12 -13q0 -29 12.5 -47t39.5 -18q16 0 29.5 2t25.5 6t26 8q23 43 48 78q23 29 51 54.5t61 25.5q39 0 59.5 -21.5t20.5 -56.5q0 -27 -26.5 -64.5t-71.5 -72.5q-16 -12 -40 -49t-50.5 -89.5t-54 -116 t-50 -129t-36 -128t-13.5 -111.5q0 -10 -3 -17t-19 -7q-10 0 -32 10t-42.5 25.5t-35.5 33t-15 33.5q0 53 30.5 136t67.5 165q43 95 100 199q-20 -14 -43 -23q-18 -10 -42.5 -16t-49.5 -6t-45 16.5t-20 44.5z" />
<glyph unicode="&#xba;" horiz-adv-x="528" d="M20 1092q0 80 28 142t71 104t95 63.5t101 21.5q80 0 134.5 -50t54.5 -138q0 -51 -20.5 -107.5t-58.5 -104.5t-90 -80t-116 -32q-41 0 -77 14.5t-62.5 39t-43 57.5t-16.5 70zM170 1061q0 -39 16.5 -63.5t44.5 -24.5q31 0 55.5 31.5t43 78.5t28 100.5t9.5 94.5 q0 43 -13.5 61.5t-36.5 18.5t-48 -22.5t-46.5 -61.5t-37 -94.5t-15.5 -118.5z" />
<glyph unicode="&#xbb;" horiz-adv-x="1128" d="M41 125q0 20 7 28.5t24 24.5q86 80 168 161t151 157q18 20 31.5 41.5t13.5 44.5q0 29 -15 54.5t-38 47.5q-25 27 -106.5 105.5t-202.5 189.5q-14 14 -23.5 24.5t-9.5 28.5q0 16 11 35.5t28.5 37t36 29t30.5 11.5q23 0 37.5 -11.5t26.5 -21.5q119 -104 213 -191t137 -141 q23 -29 41.5 -50t30.5 -43.5t18 -47.5t6 -59q0 -70 -30.5 -114t-59.5 -75q-102 -111 -200.5 -203t-165.5 -151q-10 -10 -23.5 -16.5t-30.5 -6.5q-16 0 -34.5 12.5t-35 30t-26.5 36t-10 32.5zM471 125q0 20 7 28.5t24 24.5q86 80 168 161t151 157q18 20 31.5 41.5t13.5 44.5 q0 29 -15 54.5t-38 47.5q-25 27 -106.5 105.5t-202.5 189.5q-14 14 -23.5 24.5t-9.5 28.5q0 16 11.5 35.5t28.5 37t35.5 29t31.5 11.5q23 0 37 -11.5t26 -21.5q119 -104 213 -191t137 -141q23 -29 41.5 -50t30.5 -43.5t18 -47.5t6 -59q0 -70 -30.5 -114t-59.5 -75 q-102 -111 -200.5 -203t-165.5 -151q-10 -10 -23.5 -16.5t-29.5 -6.5t-35 12.5t-35 30t-26.5 36t-10.5 32.5z" />
<glyph unicode="&#xbc;" horiz-adv-x="1292" d="M25 1202q0 20 9 41t21.5 38t25.5 31.5t23 24.5q12 12 27 13q12 0 12 -13q0 -29 12.5 -47t39.5 -18q16 0 29.5 2t25.5 6t26 8q23 43 48 78q23 29 51 54.5t61 25.5q39 0 59.5 -21.5t20.5 -56.5q0 -27 -26.5 -64.5t-71.5 -72.5q-16 -12 -40 -49t-50.5 -89.5t-54 -116 t-50 -129t-36 -128t-13.5 -111.5q0 -10 -3 -17t-19 -7q-10 0 -32 10t-42.5 25.5t-35.5 33t-15 33.5q0 53 30.5 136t67.5 165q43 95 100 199q-20 -14 -43 -23q-18 -10 -42.5 -16t-49.5 -6t-45 16.5t-20 44.5zM100 33q0 8 2 15t7 18l542 1370q4 10 14.5 19t22.5 9 q43 0 86 -13.5t43 -29.5q0 -23 -10 -47l-543 -1345q-4 -16 -15 -22.5t-22 -6.5h-69q-23 0 -40.5 5t-17.5 28zM483 395q0 41 34 60.5t69 19.5q23 0 43 -2t37 -6q18 -4 32 -6q39 45 72 92q27 41 49.5 89t22.5 95q0 23 -13.5 35t-31.5 12q-29 0 -51.5 -15t-32.5 -15 q-6 0 -12.5 6t-6.5 12q0 8 17.5 25.5t45 33t60.5 27.5t62 12q45 0 79.5 -22.5t34.5 -69.5q0 -45 -31.5 -104.5t-68.5 -112.5q-43 -63 -98 -127q18 -12 41 -20q20 -10 45.5 -18.5t56.5 -14.5q25 63 55.5 128.5t61 124t61.5 104.5t55 71q16 16 40 28.5t47.5 19.5t43 10t29.5 3 t10 -12q0 -6 -22.5 -30.5t-54.5 -75.5q-10 -16 -31 -51t-48.5 -85.5t-58 -112t-57.5 -128.5q41 8 65.5 21.5t41.5 25.5q8 8 18 8q12 0 12 -10q0 -8 -6 -21q-10 -16 -27.5 -39.5t-40 -48t-51 -43t-59.5 -22.5q-18 -59 -28.5 -114.5t-10.5 -104.5q0 -23 -22 -23q-12 0 -31 7 t-37.5 21.5t-30.5 32t-12 39.5q0 23 11 68t34 100q-31 14 -58.5 32t-51 32t-42 24.5t-26.5 10.5q-23 -16 -45 -27q-20 -10 -47 -17.5t-56 -7.5q-33 0 -59.5 23t-26.5 53z" />
<glyph unicode="&#xbd;" horiz-adv-x="1273" d="M25 1202q0 20 9 41t21.5 38t25.5 31.5t23 24.5q12 12 27 13q12 0 12 -13q0 -29 12.5 -47t39.5 -18q16 0 29.5 2t25.5 6t26 8q23 43 48 78q23 29 51 54.5t61 25.5q39 0 59.5 -21.5t20.5 -56.5q0 -27 -26.5 -64.5t-71.5 -72.5q-16 -12 -40 -49t-50.5 -89.5t-54 -116 t-50 -129t-36 -128t-13.5 -111.5q0 -10 -3 -17t-19 -7q-10 0 -32 10t-42.5 25.5t-35.5 33t-15 33.5q0 53 30.5 136t67.5 165q43 95 100 199q-20 -14 -43 -23q-18 -10 -42.5 -16t-49.5 -6t-45 16.5t-20 44.5zM100 33q0 8 2 15t7 18l542 1370q4 10 14.5 19t22.5 9 q43 0 86 -13.5t43 -29.5q0 -23 -10 -47l-543 -1345q-4 -16 -15 -22.5t-22 -6.5h-69q-23 0 -40.5 5t-17.5 28zM379 111q0 47 40 84.5t101 37.5q37 0 87 -11t108 -25q57 51 115.5 115.5t103.5 134t73.5 138t28.5 126.5q0 39 -26.5 61.5t-63.5 22.5q-35 0 -75 -22.5 t-75.5 -58.5t-59 -82t-23.5 -93q0 -51 21.5 -63.5t31.5 -12.5q14 0 14 -12q0 -10 -25.5 -32t-72.5 -22q-25 0 -48.5 8.5t-44 22.5t-32.5 35.5t-12 50.5q0 76 43 140.5t109.5 111.5t145 72.5t152.5 25.5q117 0 177.5 -51t60.5 -147q0 -51 -34 -114t-89 -129.5t-125 -132 t-143 -120.5q57 -12 116 -12q35 0 59.5 8t41 18.5t27 18.5t16.5 8q20 0 20 -18q0 -8 -15 -39t-43 -65t-64.5 -60.5t-79.5 -26.5q-45 0 -99.5 24.5t-111.5 53.5q-59 -37 -110.5 -57.5t-86.5 -20.5q-59 0 -96 33t-37 76zM465 119q0 -18 13.5 -25.5t29.5 -7.5q43 0 108 39 q-29 10 -53.5 18.5t-44.5 8.5q-27 0 -40 -10.5t-13 -22.5z" />
<glyph unicode="&#xbe;" horiz-adv-x="1662" d="M16 735q0 33 25 59.5t56.5 45t60 28t39.5 9.5q27 0 26 -21q0 -10 -12 -22q-16 -16 -27.5 -37t-11.5 -49q0 -35 27.5 -64t81.5 -29q43 0 82.5 23.5t70.5 68t48.5 104.5t17.5 134q0 51 -23.5 81t-66.5 30q-10 -12 -27.5 -30.5t-39 -35t-45.5 -29t-48 -12.5 q-31 0 -48.5 17.5t-17.5 46.5t27 49t59 33q37 14 86 20l111 102q-29 0 -74 2.5t-88 10.5t-74.5 24.5t-31.5 44.5q0 25 22.5 44.5t51 33t58 21.5t44.5 8q20 0 20 -16q0 -8 -13 -17.5t-13 -26.5q0 -12 14 -23t38.5 -19.5t55.5 -12.5t64 -4q23 33 47 59q23 23 50.5 41.5 t55.5 18.5q29 0 47.5 -15.5t18.5 -41.5q0 -37 -33 -67t-104 -46l-125 -119q33 0 68.5 -9t65.5 -31.5t48 -59.5t18 -90q0 -80 -41 -149.5t-104.5 -122t-141 -82t-149.5 -29.5q-106 0 -176 42t-70 109zM449 33q0 8 2 15t6 18l542 1370q4 10 14.5 19t22.5 9q43 0 86 -13.5 t43 -29.5q0 -23 -10 -47l-543 -1345q-4 -16 -15 -22.5t-22 -6.5h-69q-23 0 -40 5t-17 28zM831 395q0 41 34 60.5t69 19.5q23 0 43 -2t37 -6q18 -4 33 -6q39 45 71 92q27 41 49.5 89t22.5 95q0 23 -13.5 35t-31.5 12q-29 0 -51.5 -15t-32.5 -15q-6 0 -12.5 6t-6.5 12 q0 8 17.5 25.5t45.5 33t60.5 27.5t61.5 12q45 0 79.5 -22.5t34.5 -69.5q0 -45 -31.5 -104.5t-68.5 -112.5q-43 -63 -98 -127q18 -12 41 -20q20 -10 45.5 -18.5t56.5 -14.5q25 63 55.5 128.5t61.5 124t61.5 104.5t55.5 71q16 16 39.5 28.5t47 19.5t43 10t29.5 3t11 -12 q0 -6 -22.5 -30.5t-55.5 -75.5q-10 -16 -30.5 -51t-48.5 -85.5t-58.5 -112t-57.5 -128.5q41 8 65.5 21.5t41.5 25.5q8 8 18 8q12 0 12 -10q0 -8 -6 -21q-10 -16 -27.5 -39.5t-40 -48t-51 -43t-59.5 -22.5q-18 -59 -28.5 -114.5t-10.5 -104.5q0 -23 -22 -23q-12 0 -30.5 7 t-37 21.5t-31 32t-12.5 39.5q0 23 11.5 68t33.5 100q-31 14 -58.5 32t-51 32t-42 24.5t-26.5 10.5q-23 -16 -45 -27q-20 -10 -47 -17.5t-55 -7.5q-33 0 -60 23t-27 53z" />
<glyph unicode="&#xbf;" horiz-adv-x="892" d="M4 43q0 80 36 146.5t91 125t123 110.5t130 100t112.5 96.5t72.5 99.5q10 25 23.5 36t36.5 15q43 6 74.5 18.5t50.5 12.5q10 0 20 -8.5t10 -24.5q0 -49 -35.5 -104.5t-89 -116t-117 -126t-116.5 -136t-89 -148.5t-36 -159q0 -66 39 -100t88 -34q39 0 76 15.5t65.5 44 t47 68.5t18.5 92q0 37 -7 63.5t-16.5 45t-16.5 29.5t-7 21q0 20 35 21q39 0 84 -17.5t84.5 -47t66.5 -71.5t27 -92q0 -66 -36 -120t-97.5 -94t-144.5 -61.5t-175 -21.5q-203 0 -315.5 82t-112.5 240zM606 1001q0 27 11.5 58t33 56.5t51 42t64.5 16.5q49 0 77.5 -30t28.5 -79 q0 -29 -13 -58.5t-34.5 -54t-51.5 -40t-60 -15.5q-47 0 -77 27.5t-30 76.5z" />
<glyph unicode="&#xc0;" horiz-adv-x="1998" d="M0 518q0 100 36 187.5t102.5 152t160.5 101t211 36.5q141 0 278.5 -38.5t270.5 -92.5q94 154 174 270.5t154.5 193.5t147.5 116t153 39q63 0 108 -24.5t55 -35.5q43 27 88.5 36t77.5 9q61 0 62 -28q0 -10 -11.5 -23.5t-37.5 -44.5q-20 -25 -56.5 -97.5t-77.5 -173 t-84 -219t-77 -237.5h24q29 0 54.5 8.5t47 17.5t37 17t25.5 8q6 0 12.5 -6t6.5 -18q0 -14 -22 -45t-56.5 -64t-79.5 -61.5t-94 -36.5q-12 -59 -19.5 -113.5t-7.5 -99.5q0 -72 35 -103.5t82 -31.5q41 0 81 26.5t70 61.5q37 37 68 88q2 6 10 14q4 4 12.5 9.5t18.5 5.5 q16 0 29.5 -12.5t13.5 -28.5q0 -8 -3 -15.5t-7 -15.5t-9 -19q-45 -72 -100 -127q-47 -47 -111.5 -85.5t-140.5 -38.5q-57 0 -110.5 20t-93.5 57t-63.5 89.5t-23.5 115.5q0 121 31 260q-63 31 -131 70t-143 80q-88 -158 -160 -286t-147.5 -218t-164 -139t-208.5 -49 q-90 0 -179.5 44t-160 118.5t-114.5 172t-44 203.5zM193 438q0 -55 20 -102t55 -80t82.5 -51.5t100.5 -18.5q74 0 135 35t123.5 105.5t131 178t154.5 251.5q-78 31 -160.5 50t-170.5 19q-221 0 -346 -105.5t-125 -281.5zM1243 786q66 -27 128.5 -51t123.5 -43 q27 90 60.5 179.5t68.5 172t71 156.5t68 133l15 25q-10 4 -19.5 6t-25.5 2q-55 0 -105.5 -33t-107 -102.5t-123 -180t-154.5 -264.5zM1569 1776q0 16 12 39.5t28.5 45t35 36t30.5 14.5q33 0 49 -41q14 -35 36 -74t48.5 -72.5t53 -61.5t49.5 -42q20 -10 26.5 -18.5t6.5 -20.5 t-9.5 -21.5t-27.5 -9.5q-23 0 -59 11.5t-76.5 31t-80.5 44t-73 53.5q-31 27 -40 44t-9 42z" />
<glyph unicode="&#xc1;" horiz-adv-x="1998" d="M0 518q0 100 36 187.5t102.5 152t160.5 101t211 36.5q141 0 278.5 -38.5t270.5 -92.5q94 154 174 270.5t154.5 193.5t147.5 116t153 39q63 0 108 -24.5t55 -35.5q43 27 88.5 36t77.5 9q61 0 62 -28q0 -10 -11.5 -23.5t-37.5 -44.5q-20 -25 -56.5 -97.5t-77.5 -173 t-84 -219t-77 -237.5h24q29 0 54.5 8.5t47 17.5t37 17t25.5 8q6 0 12.5 -6t6.5 -18q0 -14 -22 -45t-56.5 -64t-79.5 -61.5t-94 -36.5q-12 -59 -19.5 -113.5t-7.5 -99.5q0 -72 35 -103.5t82 -31.5q41 0 81 26.5t70 61.5q37 37 68 88q2 6 10 14q4 4 12.5 9.5t18.5 5.5 q16 0 29.5 -12.5t13.5 -28.5q0 -8 -3 -15.5t-7 -15.5t-9 -19q-45 -72 -100 -127q-47 -47 -111.5 -85.5t-140.5 -38.5q-57 0 -110.5 20t-93.5 57t-63.5 89.5t-23.5 115.5q0 121 31 260q-63 31 -131 70t-143 80q-88 -158 -160 -286t-147.5 -218t-164 -139t-208.5 -49 q-90 0 -179.5 44t-160 118.5t-114.5 172t-44 203.5zM193 438q0 -55 20 -102t55 -80t82.5 -51.5t100.5 -18.5q74 0 135 35t123.5 105.5t131 178t154.5 251.5q-78 31 -160.5 50t-170.5 19q-221 0 -346 -105.5t-125 -281.5zM1243 786q66 -27 128.5 -51t123.5 -43 q27 90 60.5 179.5t68.5 172t71 156.5t68 133l15 25q-10 4 -19.5 6t-25.5 2q-55 0 -105.5 -33t-107 -102.5t-123 -180t-154.5 -264.5zM1763 1579q0 12 6.5 20.5t26.5 18.5q47 29 99.5 87t99.5 134q12 20 22.5 30.5t26.5 10.5q12 0 29.5 -14.5t35 -36t28.5 -45t11 -39.5 q0 -25 -9 -42t-40 -44q-33 -29 -75 -49.5t-84 -33.5t-78.5 -20.5t-61.5 -7.5q-16 0 -26.5 9.5t-10.5 21.5z" />
<glyph unicode="&#xc2;" horiz-adv-x="1998" d="M0 518q0 100 36 187.5t102.5 152t160.5 101t211 36.5q141 0 278.5 -38.5t270.5 -92.5q94 154 174 270.5t154.5 193.5t147.5 116t153 39q63 0 108 -24.5t55 -35.5q43 27 88.5 36t77.5 9q61 0 62 -28q0 -10 -11.5 -23.5t-37.5 -44.5q-20 -25 -56.5 -97.5t-77.5 -173 t-84 -219t-77 -237.5h24q29 0 54.5 8.5t47 17.5t37 17t25.5 8q6 0 12.5 -6t6.5 -18q0 -14 -22 -45t-56.5 -64t-79.5 -61.5t-94 -36.5q-12 -59 -19.5 -113.5t-7.5 -99.5q0 -72 35 -103.5t82 -31.5q41 0 81 26.5t70 61.5q37 37 68 88q2 6 10 14q4 4 12.5 9.5t18.5 5.5 q16 0 29.5 -12.5t13.5 -28.5q0 -8 -3 -15.5t-7 -15.5t-9 -19q-45 -72 -100 -127q-47 -47 -111.5 -85.5t-140.5 -38.5q-57 0 -110.5 20t-93.5 57t-63.5 89.5t-23.5 115.5q0 121 31 260q-63 31 -131 70t-143 80q-88 -158 -160 -286t-147.5 -218t-164 -139t-208.5 -49 q-90 0 -179.5 44t-160 118.5t-114.5 172t-44 203.5zM193 438q0 -55 20 -102t55 -80t82.5 -51.5t100.5 -18.5q74 0 135 35t123.5 105.5t131 178t154.5 251.5q-78 31 -160.5 50t-170.5 19q-221 0 -346 -105.5t-125 -281.5zM1243 786q66 -27 128.5 -51t123.5 -43 q27 90 60.5 179.5t68.5 172t71 156.5t68 133l15 25q-10 4 -19.5 6t-25.5 2q-55 0 -105.5 -33t-107 -102.5t-123 -180t-154.5 -264.5zM1522 1597q0 27 32 50q53 35 97.5 70.5t103.5 99.5q23 29 42.5 49t60.5 20q23 0 34 -6t19 -16.5t14 -24.5t17 -31q33 -53 66.5 -92 t68.5 -67q20 -14 28.5 -22.5t8.5 -24.5q0 -12 -11.5 -25.5t-27.5 -13.5q-8 0 -29 5t-50.5 17t-66.5 33.5t-76 54.5q-12 13 -22 13q-4 0 -12.5 -4.5t-16.5 -8.5q-35 -20 -73.5 -39.5t-73.5 -35t-60.5 -25.5t-35.5 -10q-16 0 -26.5 11t-10.5 23z" />
<glyph unicode="&#xc3;" horiz-adv-x="1998" d="M0 518q0 100 36 187.5t102.5 152t160.5 101t211 36.5q141 0 278.5 -38.5t270.5 -92.5q94 154 174 270.5t154.5 193.5t147.5 116t153 39q63 0 108 -24.5t55 -35.5q43 27 88.5 36t77.5 9q61 0 62 -28q0 -10 -11.5 -23.5t-37.5 -44.5q-20 -25 -56.5 -97.5t-77.5 -173 t-84 -219t-77 -237.5h24q29 0 54.5 8.5t47 17.5t37 17t25.5 8q6 0 12.5 -6t6.5 -18q0 -14 -22 -45t-56.5 -64t-79.5 -61.5t-94 -36.5q-12 -59 -19.5 -113.5t-7.5 -99.5q0 -72 35 -103.5t82 -31.5q41 0 81 26.5t70 61.5q37 37 68 88q2 6 10 14q4 4 12.5 9.5t18.5 5.5 q16 0 29.5 -12.5t13.5 -28.5q0 -8 -3 -15.5t-7 -15.5t-9 -19q-45 -72 -100 -127q-47 -47 -111.5 -85.5t-140.5 -38.5q-57 0 -110.5 20t-93.5 57t-63.5 89.5t-23.5 115.5q0 121 31 260q-63 31 -131 70t-143 80q-88 -158 -160 -286t-147.5 -218t-164 -139t-208.5 -49 q-90 0 -179.5 44t-160 118.5t-114.5 172t-44 203.5zM193 438q0 -55 20 -102t55 -80t82.5 -51.5t100.5 -18.5q74 0 135 35t123.5 105.5t131 178t154.5 251.5q-78 31 -160.5 50t-170.5 19q-221 0 -346 -105.5t-125 -281.5zM1243 786q66 -27 128.5 -51t123.5 -43 q27 90 60.5 179.5t68.5 172t71 156.5t68 133l15 25q-10 4 -19.5 6t-25.5 2q-55 0 -105.5 -33t-107 -102.5t-123 -180t-154.5 -264.5zM1481 1606q0 10 7 23t15 24q12 18 34 40.5t46.5 41t52 32t54.5 13.5q37 0 81 -12.5t89 -27t89 -26.5t83 -12q25 0 46 7t39.5 16.5t33 16.5 t22.5 7q10 0 18.5 -5t8.5 -15t-4.5 -20.5t-8.5 -18.5q-35 -51 -84 -97.5t-112 -46.5q-37 0 -84 11.5t-96.5 25.5t-95.5 25.5t-83 11.5q-39 0 -73.5 -20.5t-51.5 -20.5q-10 0 -18 7t-8 20z" />
<glyph unicode="&#xc4;" horiz-adv-x="1998" d="M0 518q0 100 36 187.5t102.5 152t160.5 101t211 36.5q141 0 278.5 -38.5t270.5 -92.5q94 154 174 270.5t154.5 193.5t147.5 116t153 39q63 0 108 -24.5t55 -35.5q43 27 88.5 36t77.5 9q61 0 62 -28q0 -10 -11.5 -23.5t-37.5 -44.5q-20 -25 -56.5 -97.5t-77.5 -173 t-84 -219t-77 -237.5h24q29 0 54.5 8.5t47 17.5t37 17t25.5 8q6 0 12.5 -6t6.5 -18q0 -14 -22 -45t-56.5 -64t-79.5 -61.5t-94 -36.5q-12 -59 -19.5 -113.5t-7.5 -99.5q0 -72 35 -103.5t82 -31.5q41 0 81 26.5t70 61.5q37 37 68 88q2 6 10 14q4 4 12.5 9.5t18.5 5.5 q16 0 29.5 -12.5t13.5 -28.5q0 -8 -3 -15.5t-7 -15.5t-9 -19q-45 -72 -100 -127q-47 -47 -111.5 -85.5t-140.5 -38.5q-57 0 -110.5 20t-93.5 57t-63.5 89.5t-23.5 115.5q0 121 31 260q-63 31 -131 70t-143 80q-88 -158 -160 -286t-147.5 -218t-164 -139t-208.5 -49 q-90 0 -179.5 44t-160 118.5t-114.5 172t-44 203.5zM193 438q0 -55 20 -102t55 -80t82.5 -51.5t100.5 -18.5q74 0 135 35t123.5 105.5t131 178t154.5 251.5q-78 31 -160.5 50t-170.5 19q-221 0 -346 -105.5t-125 -281.5zM1243 786q66 -27 128.5 -51t123.5 -43 q27 90 60.5 179.5t68.5 172t71 156.5t68 133l15 25q-10 4 -19.5 6t-25.5 2q-55 0 -105.5 -33t-107 -102.5t-123 -180t-154.5 -264.5zM1612 1694q0 27 11 54.5t30.5 50t45 37.5t54.5 15q39 0 62.5 -28.5t23.5 -69.5q0 -27 -10 -55.5t-29.5 -51t-46.5 -38t-59 -15.5 q-35 0 -58.5 29t-23.5 72zM1909 1694q0 27 11 54.5t30.5 50t45 37.5t54.5 15q39 0 62.5 -28.5t23.5 -69.5q0 -27 -10 -55.5t-29.5 -51t-46.5 -38t-59 -15.5q-35 0 -58.5 29t-23.5 72z" />
<glyph unicode="&#xc5;" horiz-adv-x="1998" d="M0 518q0 100 36 187.5t102.5 152t160.5 101t211 36.5q141 0 278.5 -38.5t270.5 -92.5q94 154 174 270.5t154.5 193.5t147.5 116t153 39q63 0 108 -24.5t55 -35.5q43 27 88.5 36t77.5 9q61 0 62 -28q0 -10 -11.5 -23.5t-37.5 -44.5q-20 -25 -56.5 -97.5t-77.5 -173 t-84 -219t-77 -237.5h24q29 0 54.5 8.5t47 17.5t37 17t25.5 8q6 0 12.5 -6t6.5 -18q0 -14 -22 -45t-56.5 -64t-79.5 -61.5t-94 -36.5q-12 -59 -19.5 -113.5t-7.5 -99.5q0 -72 35 -103.5t82 -31.5q41 0 81 26.5t70 61.5q37 37 68 88q2 6 10 14q4 4 12.5 9.5t18.5 5.5 q16 0 29.5 -12.5t13.5 -28.5q0 -8 -3 -15.5t-7 -15.5t-9 -19q-45 -72 -100 -127q-47 -47 -111.5 -85.5t-140.5 -38.5q-57 0 -110.5 20t-93.5 57t-63.5 89.5t-23.5 115.5q0 121 31 260q-63 31 -131 70t-143 80q-88 -158 -160 -286t-147.5 -218t-164 -139t-208.5 -49 q-90 0 -179.5 44t-160 118.5t-114.5 172t-44 203.5zM193 438q0 -55 20 -102t55 -80t82.5 -51.5t100.5 -18.5q74 0 135 35t123.5 105.5t131 178t154.5 251.5q-78 31 -160.5 50t-170.5 19q-221 0 -346 -105.5t-125 -281.5zM1243 786q66 -27 128.5 -51t123.5 -43 q27 90 60.5 179.5t68.5 172t71 156.5t68 133l15 25q-10 4 -19.5 6t-25.5 2q-55 0 -105.5 -33t-107 -102.5t-123 -180t-154.5 -264.5zM1653 1778q0 90 61.5 151.5t151.5 61.5t151.5 -61.5t61.5 -151.5t-61.5 -151.5t-151.5 -61.5t-151.5 61.5t-61.5 151.5zM1776 1778 q0 -37 26.5 -63.5t63.5 -26.5t61.5 26.5t24.5 63.5t-24.5 61.5t-61.5 24.5t-63.5 -24.5t-26.5 -61.5z" />
<glyph unicode="&#xc6;" horiz-adv-x="2357" d="M0 518q0 100 36 187.5t102.5 152t160.5 101t211 36.5q141 0 278.5 -38.5t270.5 -92.5q94 154 174 270.5t154.5 193.5t147.5 116t153 39q31 0 67.5 -15.5t68 -35t55.5 -37t30 -21.5q72 53 167 81t216 28q55 0 103 -13.5t84 -37t56.5 -57.5t20.5 -75t-28.5 -81.5 t-66.5 -73.5t-75 -53.5t-51 -20.5q-18 0 -26.5 7t-8.5 18q0 14 14.5 34.5t30.5 48t30.5 63.5t14.5 81q0 33 -30.5 52.5t-73.5 19.5q-55 0 -111.5 -29t-103 -78t-75 -117.5t-28.5 -148.5q0 -39 7 -69.5t18 -53.5q10 -27 24 -47q16 2 39 6q18 2 44 4t59 2q121 0 120 -71 q0 -31 -35.5 -63t-95.5 -32q-37 0 -67.5 5.5t-52.5 13.5q-25 8 -46 20q-76 -45 -135 -106q-51 -53 -93 -131t-42 -183q0 -129 69.5 -191.5t198.5 -62.5q55 0 109.5 21.5t104 54.5t91.5 74t72 80q4 6 13 14q6 4 13 9.5t17 5.5q18 0 30.5 -12.5t12.5 -28.5q0 -8 -4 -15.5 t-8 -15.5q-6 -8 -10 -19q-29 -41 -77 -91t-113.5 -94t-145.5 -74.5t-174 -30.5q-86 0 -172 20.5t-154.5 65.5t-113 115.5t-44.5 168.5q0 45 11 97q4 29 9 56.5t9 55.5q-63 31 -132 71t-146 81q-88 -158 -160 -286t-147.5 -218t-164 -139t-208.5 -49q-90 0 -179.5 44 t-160 118.5t-114.5 172t-44 203.5zM193 438q0 -55 20 -102t55 -80t82.5 -51.5t100.5 -18.5q74 0 135 35t123.5 105.5t131 178t154.5 251.5q-78 31 -160.5 50t-170.5 19q-221 0 -346 -105.5t-125 -281.5zM1243 786q66 -27 129.5 -51t124.5 -45q27 90 58.5 179t67.5 172 t72 157t68 135l15 25q-10 4 -19.5 6t-25.5 2q-55 0 -105.5 -33t-107 -102.5t-123 -180t-154.5 -264.5zM1774 774q35 16 57 24.5t27 10.5q-2 0 -18.5 10t-39.5 29z" />
<glyph unicode="&#xc7;" horiz-adv-x="1349" d="M0 995q0 86 52 160t123 127t144.5 84t116.5 31q35 0 35 -23q0 -14 -11 -22.5t-28 -22.5q-23 -16 -50.5 -39.5t-52 -57.5t-41 -80t-16.5 -110q0 -68 34 -134t130 -107q57 139 148.5 263t197 217t217 147.5t209.5 54.5q61 0 115.5 -29t93.5 -72t61.5 -93t22.5 -93 q0 -80 -58.5 -176t-166 -180t-260 -141.5t-342.5 -61.5q-25 -104 -25 -207q0 -197 79 -282t226 -85q55 0 110.5 18.5t108 49.5t97.5 73t80 89q2 6 10 14q4 4 12 9.5t19 5.5q18 0 30.5 -12.5t12.5 -28.5q0 -8 -3.5 -15.5t-7.5 -15.5q-4 -9 -8 -19q-33 -49 -79 -97t-105.5 -88 t-131 -67.5t-153.5 -35.5q0 -23 7.5 -52.5t31.5 -29.5q27 0 56.5 4t52.5 4q31 0 46 -20.5t15 -53.5q0 -41 -21.5 -91t-65.5 -94t-110.5 -74t-154.5 -30q-66 0 -111 27t-45 72q0 35 24.5 62.5t55.5 27.5q23 0 35 -10.5t24.5 -22.5t30 -22.5t49.5 -10.5q33 0 66 13.5t58.5 31 t41 35t15.5 27.5t-11 10q-47 0 -96 -15.5t-84 -15.5q-27 0 -41 18.5t-14 35.5q0 20 3 45.5t8 51t9 47t6 32.5q-88 8 -172 40.5t-150.5 93t-106.5 149.5t-40 208q0 57 8.5 114.5t24.5 115.5q-92 23 -163.5 58.5t-123 79.5t-78 93t-26.5 98zM711 760q139 4 250.5 56t189.5 128 t119 162t41 160q0 35 -20.5 56t-59.5 21q-68 0 -141.5 -47t-144.5 -128t-132 -186t-102 -222z" />
<glyph unicode="&#xc8;" horiz-adv-x="974" d="M20 1188q0 51 30 100t71 88t83 63.5t64 24.5q10 0 14.5 -6t4.5 -12q0 -10 -18.5 -36t-18.5 -62q0 -49 28.5 -91.5t79.5 -74.5q33 63 93.5 118.5t135.5 96.5t158.5 63.5t163.5 22.5q55 0 103.5 -13.5t84.5 -37t56.5 -57.5t20.5 -75q0 -53 -41 -102t-118 -89t-185.5 -67.5 t-243.5 -35.5q2 -35 9 -63t17 -48q10 -23 23 -43q16 2 39 6q18 2 43.5 4t58.5 2q121 0 121 -71q0 -31 -36 -63t-95 -32q-37 0 -67.5 5.5t-53.5 13.5q-25 8 -45 20q-76 -45 -135 -106q-51 -53 -93 -131t-42 -183q0 -129 69.5 -191.5t198.5 -62.5q111 0 209 61.5t168 168.5 q2 6 10 14q4 4 12.5 9.5t18.5 5.5q18 0 30.5 -12.5t12.5 -28.5q0 -10 -8 -31q-4 -8 -9 -17q-33 -55 -82 -107t-113.5 -93t-144.5 -66.5t-174 -25.5q-86 0 -172 20.5t-154.5 65.5t-112.5 115.5t-44 168.5q0 88 30.5 158t77 125t100.5 94t101 65.5t81 40t40 15.5 q-2 0 -22.5 11t-45 35t-47 60.5t-30.5 90.5q-156 14 -233 61t-77 121zM598 1122q88 0 163 14.5t130 41t86 63.5t31 82q0 33 -31 52.5t-74 19.5q-47 0 -94 -20.5t-88 -56.5t-74 -86t-49 -110zM715 1792q0 16 12 39.5t28.5 45t35 36t30.5 14.5q33 0 49 -41q14 -35 36 -73.5 t48.5 -72.5t53 -61.5t49.5 -42.5q20 -10 26.5 -18t6.5 -21q0 -12 -9.5 -21t-27.5 -9q-23 0 -59 11t-76.5 30.5t-80.5 44t-73 53.5q-31 27 -40 44t-9 42z" />
<glyph unicode="&#xc9;" horiz-adv-x="974" d="M20 1188q0 51 30 100t71 88t83 63.5t64 24.5q10 0 14.5 -6t4.5 -12q0 -10 -18.5 -36t-18.5 -62q0 -49 28.5 -91.5t79.5 -74.5q33 63 93.5 118.5t135.5 96.5t158.5 63.5t163.5 22.5q55 0 103.5 -13.5t84.5 -37t56.5 -57.5t20.5 -75q0 -53 -41 -102t-118 -89t-185.5 -67.5 t-243.5 -35.5q2 -35 9 -63t17 -48q10 -23 23 -43q16 2 39 6q18 2 43.5 4t58.5 2q121 0 121 -71q0 -31 -36 -63t-95 -32q-37 0 -67.5 5.5t-53.5 13.5q-25 8 -45 20q-76 -45 -135 -106q-51 -53 -93 -131t-42 -183q0 -129 69.5 -191.5t198.5 -62.5q111 0 209 61.5t168 168.5 q2 6 10 14q4 4 12.5 9.5t18.5 5.5q18 0 30.5 -12.5t12.5 -28.5q0 -10 -8 -31q-4 -8 -9 -17q-33 -55 -82 -107t-113.5 -93t-144.5 -66.5t-174 -25.5q-86 0 -172 20.5t-154.5 65.5t-112.5 115.5t-44 168.5q0 88 30.5 158t77 125t100.5 94t101 65.5t81 40t40 15.5 q-2 0 -22.5 11t-45 35t-47 60.5t-30.5 90.5q-156 14 -233 61t-77 121zM598 1122q88 0 163 14.5t130 41t86 63.5t31 82q0 33 -31 52.5t-74 19.5q-47 0 -94 -20.5t-88 -56.5t-74 -86t-49 -110zM745 1597q0 12 6.5 20.5t26.5 18.5q47 29 99.5 87.5t99.5 134.5q12 20 22.5 30 t26.5 10q12 0 29.5 -14t35 -35.5t28.5 -45t11 -40.5q0 -25 -9 -42t-40 -44q-33 -29 -74.5 -49t-83.5 -33.5t-79 -20.5t-62 -7q-16 0 -26.5 9t-10.5 21z" />
<glyph unicode="&#xca;" horiz-adv-x="974" d="M20 1188q0 51 30 100t71 88t83 63.5t64 24.5q10 0 14.5 -6t4.5 -12q0 -10 -18.5 -36t-18.5 -62q0 -49 28.5 -91.5t79.5 -74.5q33 63 93.5 118.5t135.5 96.5t158.5 63.5t163.5 22.5q55 0 103.5 -13.5t84.5 -37t56.5 -57.5t20.5 -75q0 -53 -41 -102t-118 -89t-185.5 -67.5 t-243.5 -35.5q2 -35 9 -63t17 -48q10 -23 23 -43q16 2 39 6q18 2 43.5 4t58.5 2q121 0 121 -71q0 -31 -36 -63t-95 -32q-37 0 -67.5 5.5t-53.5 13.5q-25 8 -45 20q-76 -45 -135 -106q-51 -53 -93 -131t-42 -183q0 -129 69.5 -191.5t198.5 -62.5q111 0 209 61.5t168 168.5 q2 6 10 14q4 4 12.5 9.5t18.5 5.5q18 0 30.5 -12.5t12.5 -28.5q0 -10 -8 -31q-4 -8 -9 -17q-33 -55 -82 -107t-113.5 -93t-144.5 -66.5t-174 -25.5q-86 0 -172 20.5t-154.5 65.5t-112.5 115.5t-44 168.5q0 88 30.5 158t77 125t100.5 94t101 65.5t81 40t40 15.5 q-2 0 -22.5 11t-45 35t-47 60.5t-30.5 90.5q-156 14 -233 61t-77 121zM598 1122q88 0 163 14.5t130 41t86 63.5t31 82q0 33 -31 52.5t-74 19.5q-47 0 -94 -20.5t-88 -56.5t-74 -86t-49 -110zM602 1571q0 27 33 49q53 35 97 70.5t104 99.5q23 29 42 49.5t60 20.5 q23 0 34 -6.5t19 -16.5t14.5 -24.5t16.5 -30.5q33 -53 66.5 -92t68.5 -68q20 -14 28.5 -22.5t8.5 -24.5q0 -12 -11.5 -25.5t-27.5 -13.5q-8 0 -28.5 5t-50 17.5t-66.5 34t-76 54.5q-13 12 -23 12q-4 0 -12 -4l-16 -8q-35 -20 -74 -40t-74 -35.5t-60.5 -25.5t-35.5 -10 q-16 0 -26.5 11.5t-10.5 23.5z" />
<glyph unicode="&#xcb;" horiz-adv-x="974" d="M20 1188q0 51 30 100t71 88t83 63.5t64 24.5q10 0 14.5 -6t4.5 -12q0 -10 -18.5 -36t-18.5 -62q0 -49 28.5 -91.5t79.5 -74.5q33 63 93.5 118.5t135.5 96.5t158.5 63.5t163.5 22.5q55 0 103.5 -13.5t84.5 -37t56.5 -57.5t20.5 -75q0 -53 -41 -102t-118 -89t-185.5 -67.5 t-243.5 -35.5q2 -35 9 -63t17 -48q10 -23 23 -43q16 2 39 6q18 2 43.5 4t58.5 2q121 0 121 -71q0 -31 -36 -63t-95 -32q-37 0 -67.5 5.5t-53.5 13.5q-25 8 -45 20q-76 -45 -135 -106q-51 -53 -93 -131t-42 -183q0 -129 69.5 -191.5t198.5 -62.5q111 0 209 61.5t168 168.5 q2 6 10 14q4 4 12.5 9.5t18.5 5.5q18 0 30.5 -12.5t12.5 -28.5q0 -10 -8 -31q-4 -8 -9 -17q-33 -55 -82 -107t-113.5 -93t-144.5 -66.5t-174 -25.5q-86 0 -172 20.5t-154.5 65.5t-112.5 115.5t-44 168.5q0 88 30.5 158t77 125t100.5 94t101 65.5t81 40t40 15.5 q-2 0 -22.5 11t-45 35t-47 60.5t-30.5 90.5q-156 14 -233 61t-77 121zM598 1122q88 0 163 14.5t130 41t86 63.5t31 82q0 33 -31 52.5t-74 19.5q-47 0 -94 -20.5t-88 -56.5t-74 -86t-49 -110zM680 1659q0 27 11 54.5t30.5 50t45.5 38t54 15.5q39 0 62.5 -29t23.5 -70 q0 -27 -10 -55.5t-29.5 -51t-46 -37.5t-59.5 -15q-35 0 -58.5 28.5t-23.5 71.5zM977 1659q0 27 11 54.5t30.5 50t45.5 38t54 15.5q39 0 62.5 -29t23.5 -70q0 -27 -10 -55.5t-29.5 -51t-46 -37.5t-59.5 -15q-35 0 -58.5 28.5t-23.5 71.5z" />
<glyph unicode="&#xcc;" horiz-adv-x="1099" d="M16 328q0 16 7.5 28.5t23.5 12.5q14 0 20.5 -8.5t12.5 -16.5q14 -23 36.5 -48.5t53.5 -49t68.5 -38.5t85.5 -15q92 0 165.5 43t132 117.5t102.5 179t77 227.5t60.5 214t49.5 152q25 72 47 123q-137 -39 -245 -106q-47 -29 -90 -67t-78 -86t-55.5 -107.5t-20.5 -130.5 q0 -66 24.5 -98.5t47.5 -51.5q10 -10 21 -18.5t11 -20.5q0 -27 -41 -26q-37 0 -88 22.5t-98 63.5t-80 99t-33 130q0 78 36 143.5t96.5 118.5t139.5 94t164 74t171 55.5t159 36.5q47 63 96.5 86t96.5 23q35 0 61.5 -21.5t26.5 -62.5q0 -29 -13.5 -52.5t-33 -42t-44 -30.5 t-46.5 -17q-12 -12 -24.5 -45.5t-25 -95t-28.5 -156t-39 -227.5q-27 -166 -76 -304t-122.5 -237.5t-174 -155.5t-231.5 -56q-90 0 -165 36.5t-128 90t-83 114t-30 107.5zM944 1800q0 16 12.5 40t28.5 45.5t35 35.5t31 14q33 0 49 -41q14 -35 35.5 -73.5t48 -72.5t53.5 -61.5 t49 -41.5q20 -10 26.5 -18.5t6.5 -20.5t-9.5 -21.5t-27.5 -9.5q-23 0 -58.5 11t-76.5 30.5t-81 44.5t-73 53q-31 27 -40 44.5t-9 41.5z" />
<glyph unicode="&#xcd;" horiz-adv-x="1099" d="M16 328q0 16 7.5 28.5t23.5 12.5q14 0 20.5 -8.5t12.5 -16.5q14 -23 36.5 -48.5t53.5 -49t68.5 -38.5t85.5 -15q92 0 165.5 43t132 117.5t102.5 179t77 227.5t60.5 214t49.5 152q25 72 47 123q-137 -39 -245 -106q-47 -29 -90 -67t-78 -86t-55.5 -107.5t-20.5 -130.5 q0 -66 24.5 -98.5t47.5 -51.5q10 -10 21 -18.5t11 -20.5q0 -27 -41 -26q-37 0 -88 22.5t-98 63.5t-80 99t-33 130q0 78 36 143.5t96.5 118.5t139.5 94t164 74t171 55.5t159 36.5q47 63 96.5 86t96.5 23q35 0 61.5 -21.5t26.5 -62.5q0 -29 -13.5 -52.5t-33 -42t-44 -30.5 t-46.5 -17q-12 -12 -24.5 -45.5t-25 -95t-28.5 -156t-39 -227.5q-27 -166 -76 -304t-122.5 -237.5t-174 -155.5t-231.5 -56q-90 0 -165 36.5t-128 90t-83 114t-30 107.5zM893 1561q0 12 6 20t27 18q47 29 99 87.5t99 134.5q12 20 23 30.5t27 10.5q12 0 29.5 -14.5t34.5 -36 t28.5 -45t11.5 -40.5q0 -25 -9 -42t-40 -44q-33 -29 -75 -49t-84 -33.5t-79 -20.5t-61 -7q-16 0 -26.5 9t-10.5 22z" />
<glyph unicode="&#xce;" horiz-adv-x="1099" d="M16 328q0 16 7.5 28.5t23.5 12.5q14 0 20.5 -8.5t12.5 -16.5q14 -23 36.5 -48.5t53.5 -49t68.5 -38.5t85.5 -15q92 0 165.5 43t132 117.5t102.5 179t77 227.5t60.5 214t49.5 152q25 72 47 123q-137 -39 -245 -106q-47 -29 -90 -67t-78 -86t-55.5 -107.5t-20.5 -130.5 q0 -66 24.5 -98.5t47.5 -51.5q10 -10 21 -18.5t11 -20.5q0 -27 -41 -26q-37 0 -88 22.5t-98 63.5t-80 99t-33 130q0 78 36 143.5t96.5 118.5t139.5 94t164 74t171 55.5t159 36.5q47 63 96.5 86t96.5 23q35 0 61.5 -21.5t26.5 -62.5q0 -29 -13.5 -52.5t-33 -42t-44 -30.5 t-46.5 -17q-12 -12 -24.5 -45.5t-25 -95t-28.5 -156t-39 -227.5q-27 -166 -76 -304t-122.5 -237.5t-174 -155.5t-231.5 -56q-90 0 -165 36.5t-128 90t-83 114t-30 107.5zM872 1563q0 27 33 49q53 35 97.5 70.5t103.5 99.5q23 29 42 49t60 20q23 0 34 -6t19.5 -16t14.5 -24.5 t16 -30.5q33 -53 67 -92.5t68 -67.5q20 -14 28.5 -22.5t8.5 -24.5q0 -12 -11 -25.5t-28 -13.5q-8 0 -28.5 5t-50 17.5t-66.5 34t-76 53.5q-12 13 -22 13q-4 0 -12.5 -4.5t-16.5 -8.5q-35 -20 -74 -39.5t-73.5 -35t-60 -25.5t-36.5 -10q-16 0 -26.5 11t-10.5 24z" />
<glyph unicode="&#xcf;" horiz-adv-x="1099" d="M16 328q0 16 7.5 28.5t23.5 12.5q14 0 20.5 -8.5t12.5 -16.5q14 -23 36.5 -48.5t53.5 -49t68.5 -38.5t85.5 -15q92 0 165.5 43t132 117.5t102.5 179t77 227.5t60.5 214t49.5 152q25 72 47 123q-137 -39 -245 -106q-47 -29 -90 -67t-78 -86t-55.5 -107.5t-20.5 -130.5 q0 -66 24.5 -98.5t47.5 -51.5q10 -10 21 -18.5t11 -20.5q0 -27 -41 -26q-37 0 -88 22.5t-98 63.5t-80 99t-33 130q0 78 36 143.5t96.5 118.5t139.5 94t164 74t171 55.5t159 36.5q47 63 96.5 86t96.5 23q35 0 61.5 -21.5t26.5 -62.5q0 -29 -13.5 -52.5t-33 -42t-44 -30.5 t-46.5 -17q-12 -12 -24.5 -45.5t-25 -95t-28.5 -156t-39 -227.5q-27 -166 -76 -304t-122.5 -237.5t-174 -155.5t-231.5 -56q-90 0 -165 36.5t-128 90t-83 114t-30 107.5zM938 1663q0 27 11.5 54.5t30.5 50t45 38t54 15.5q39 0 62.5 -29t23.5 -70q0 -27 -10 -55.5t-29.5 -51 t-46 -37.5t-59.5 -15q-35 0 -58.5 28.5t-23.5 71.5zM1235 1663q0 27 11 54.5t30.5 50t45.5 38t54 15.5q39 0 62.5 -29t23.5 -70q0 -27 -10 -55.5t-29.5 -51t-46 -37.5t-59.5 -15q-35 0 -58.5 28.5t-23.5 71.5z" />
<glyph unicode="&#xd0;" horiz-adv-x="1900" d="M0 213q0 57 24.5 102t62.5 76t84 47.5t91 16.5q92 0 176 -32t168 -75q8 12 14.5 25.5t12.5 27.5l20 48h-14q-41 0 -77 31.5t-63.5 72.5t-44 80t-16.5 55q0 12 8.5 20.5t18.5 8.5t22.5 -8.5t27.5 -17.5t35.5 -16t47.5 -7h75t62 4q31 86 61.5 172t60.5 158.5t55.5 124 t48.5 65.5q74 49 144.5 66.5t104.5 17.5q20 0 26.5 -8t6.5 -21q0 -12 -40 -59t-77 -129q-6 -12 -18 -46t-29.5 -83t-39 -109.5t-46.5 -126.5h4q27 0 57.5 -21.5t56.5 -49t43 -55t17 -40.5q0 -12 -11 -22t-19 -10q-12 0 -48 20.5t-87 20.5q-41 0 -74 -7q-20 -49 -41 -97 t-41 -93q-12 -27 -25.5 -50.5t-27.5 -45.5q72 -37 143.5 -61.5t144.5 -24.5q111 0 203 62.5t158.5 162.5t103.5 228t37 261q0 129 -41 222.5t-108.5 154t-155.5 89t-180 28.5q-287 0 -440.5 -87t-153.5 -273q0 -47 15.5 -79t35 -53.5t34.5 -35t15 -23.5q0 -39 -43 -39 q-41 0 -97 18.5t-106.5 53.5t-86 83t-35.5 109q0 115 73.5 198t195.5 137.5t277.5 81t319.5 26.5q117 0 248 -39t241.5 -121t183 -210t72.5 -306q0 -156 -49 -304.5t-137 -265t-209 -187t-264 -70.5q-133 0 -255 45t-235 102q-78 -76 -172 -111.5t-202 -35.5q-63 0 -122 16 t-105 47t-73.5 74t-27.5 96zM168 197q0 -41 36 -67t85 -26q68 0 125 28t110 89q-70 35 -131.5 56.5t-116.5 21.5q-47 0 -77.5 -30.5t-30.5 -71.5z" />
<glyph unicode="&#xd1;" horiz-adv-x="1751" d="M0 334q0 61 39 113.5t95 89t117.5 58t106.5 21.5q23 0 37.5 -9t14.5 -21q0 -16 -9.5 -28.5t-31.5 -31.5q-16 -14 -39 -34.5t-43.5 -50t-33.5 -66.5t-13 -82q0 -66 42 -108t101 -42q57 0 128 65.5t142.5 169t139 232.5t121 254t85 232.5t31.5 171.5q0 37 -24.5 64.5 t-81.5 27.5q-47 0 -114 -32t-127 -85t-103 -122.5t-43 -143.5q0 -47 16 -82t34.5 -59.5t35 -41t16.5 -26.5q0 -41 -43 -41q-41 0 -97.5 21.5t-107.5 60.5t-86 90t-35 113q0 94 66.5 180t168 150.5t223.5 102.5t235 38q49 0 110.5 -21.5t116.5 -64.5t94 -109.5t43 -154.5 q4 -94 6 -200t7.5 -213.5t12.5 -214t21 -200.5q10 27 29.5 90.5t46.5 150.5t60.5 188.5t72.5 203.5t81 197.5t85 168t87 116.5t85 44q43 0 86 -14t77 -34.5t55.5 -44t21.5 -42.5q0 -18 -10.5 -28.5t-26.5 -10.5q-80 0 -153 -68.5t-136 -177t-119.5 -240.5t-102.5 -260 t-83 -236t-64 -167q-14 -33 -41.5 -61.5t-56.5 -51t-55.5 -35.5t-38.5 -13q-23 0 -47.5 18t-45 51t-34.5 74t-21 88q-6 47 -10 144.5t-8 207t-6 215t-2 170.5q-27 -88 -59.5 -193.5t-74.5 -213t-92.5 -209t-111 -180t-132 -125.5t-153.5 -47q-94 0 -180 35.5t-152.5 89 t-105.5 115t-39 114.5zM1159 1581q0 10 7.5 23.5t15.5 23.5q12 18 33.5 41t46 41.5t52 31.5t54.5 13q37 0 81 -12t89 -26.5t89 -27t83 -12.5q25 0 46.5 7.5t40 16.5t32.5 16t22 7q10 0 18.5 -5t8.5 -15t-4 -20.5t-8 -18.5q-35 -51 -84.5 -97t-112.5 -46q-37 0 -84 11 t-96 25.5t-95 25.5t-83 11q-39 0 -74 -20.5t-51 -20.5q-10 0 -18.5 7.5t-8.5 19.5z" />
<glyph unicode="&#xd2;" horiz-adv-x="1181" d="M2 455q0 135 33 264t90 242.5t133 210t162 165t178 107.5t182 39q98 0 183.5 -35t149 -96.5t99 -145.5t35.5 -184q0 -115 -27.5 -237.5t-78.5 -238.5t-124 -219.5t-162 -180t-192.5 -121.5t-218.5 -45q-88 0 -167.5 35.5t-141 98t-97.5 149.5t-36 192zM250 502 q0 -94 20.5 -168t54 -124t76.5 -77t88 -27q70 0 133.5 48.5t119 129.5t101.5 189.5t77.5 228t49 244.5t17.5 242q0 88 -45 135t-104 47t-116.5 -30.5t-103 -84t-73 -125t-27.5 -153.5q0 -47 12.5 -85t33 -64.5t47 -41t53.5 -14.5q23 0 30.5 4t18.5 4q25 0 24 -24 q0 -10 -10 -23.5t-30.5 -28t-54.5 -23.5t-79 -9q-41 0 -83 21.5t-75.5 60.5t-55 92t-21.5 117q-23 -49 -39 -117q-16 -59 -27.5 -144.5t-11.5 -199.5zM733 1774q0 16 12.5 39.5t29 45t35 36t30.5 14.5q33 0 49 -41q14 -35 35.5 -74t48 -72.5t53.5 -61.5t49 -42 q20 -10 26.5 -18.5t6.5 -20.5t-9 -21.5t-28 -9.5q-23 0 -58.5 11.5t-76.5 31t-81 44t-73 53.5q-31 27 -40 44t-9 42z" />
<glyph unicode="&#xd3;" horiz-adv-x="1181" d="M2 455q0 135 33 264t90 242.5t133 210t162 165t178 107.5t182 39q98 0 183.5 -35t149 -96.5t99 -145.5t35.5 -184q0 -115 -27.5 -237.5t-78.5 -238.5t-124 -219.5t-162 -180t-192.5 -121.5t-218.5 -45q-88 0 -167.5 35.5t-141 98t-97.5 149.5t-36 192zM250 502 q0 -94 20.5 -168t54 -124t76.5 -77t88 -27q70 0 133.5 48.5t119 129.5t101.5 189.5t77.5 228t49 244.5t17.5 242q0 88 -45 135t-104 47t-116.5 -30.5t-103 -84t-73 -125t-27.5 -153.5q0 -47 12.5 -85t33 -64.5t47 -41t53.5 -14.5q23 0 30.5 4t18.5 4q25 0 24 -24 q0 -10 -10 -23.5t-30.5 -28t-54.5 -23.5t-79 -9q-41 0 -83 21.5t-75.5 60.5t-55 92t-21.5 117q-23 -49 -39 -117q-16 -59 -27.5 -144.5t-11.5 -199.5zM686 1610q0 12 6 20t27 19q47 29 99 87t100 134q12 20 22.5 30.5t26.5 10.5q12 0 29.5 -14.5t35 -36t28.5 -45t11 -39.5 q0 -25 -9 -42.5t-40 -43.5q-33 -29 -75 -49.5t-84 -34t-78.5 -20.5t-61.5 -7q-16 0 -26.5 9t-10.5 22z" />
<glyph unicode="&#xd4;" horiz-adv-x="1181" d="M2 455q0 135 33 264t90 242.5t133 210t162 165t178 107.5t182 39q98 0 183.5 -35t149 -96.5t99 -145.5t35.5 -184q0 -115 -27.5 -237.5t-78.5 -238.5t-124 -219.5t-162 -180t-192.5 -121.5t-218.5 -45q-88 0 -167.5 35.5t-141 98t-97.5 149.5t-36 192zM250 502 q0 -94 20.5 -168t54 -124t76.5 -77t88 -27q70 0 133.5 48.5t119 129.5t101.5 189.5t77.5 228t49 244.5t17.5 242q0 88 -45 135t-104 47t-116.5 -30.5t-103 -84t-73 -125t-27.5 -153.5q0 -47 12.5 -85t33 -64.5t47 -41t53.5 -14.5q23 0 30.5 4t18.5 4q25 0 24 -24 q0 -10 -10 -23.5t-30.5 -28t-54.5 -23.5t-79 -9q-41 0 -83 21.5t-75.5 60.5t-55 92t-21.5 117q-23 -49 -39 -117q-16 -59 -27.5 -144.5t-11.5 -199.5zM530 1597q0 27 33 50q53 35 97.5 70.5t103.5 99.5q23 29 42 49t60 20q23 0 34 -6t19.5 -16.5t14.5 -24.5t16 -31 q33 -53 67 -92t68 -67q20 -14 28.5 -22.5t8.5 -24.5q0 -12 -11 -25.5t-28 -13.5q-8 0 -28.5 5t-50 17t-66.5 33.5t-76 54.5q-12 13 -22 13q-4 0 -12.5 -4.5t-16.5 -8.5q-35 -20 -74 -39.5t-73.5 -35t-60 -25.5t-36.5 -10q-16 0 -26.5 11t-10.5 23z" />
<glyph unicode="&#xd5;" horiz-adv-x="1181" d="M2 455q0 135 33 264t90 242.5t133 210t162 165t178 107.5t182 39q98 0 183.5 -35t149 -96.5t99 -145.5t35.5 -184q0 -115 -27.5 -237.5t-78.5 -238.5t-124 -219.5t-162 -180t-192.5 -121.5t-218.5 -45q-88 0 -167.5 35.5t-141 98t-97.5 149.5t-36 192zM250 502 q0 -94 20.5 -168t54 -124t76.5 -77t88 -27q70 0 133.5 48.5t119 129.5t101.5 189.5t77.5 228t49 244.5t17.5 242q0 88 -45 135t-104 47t-116.5 -30.5t-103 -84t-73 -125t-27.5 -153.5q0 -47 12.5 -85t33 -64.5t47 -41t53.5 -14.5q23 0 30.5 4t18.5 4q25 0 24 -24 q0 -10 -10 -23.5t-30.5 -28t-54.5 -23.5t-79 -9q-41 0 -83 21.5t-75.5 60.5t-55 92t-21.5 117q-23 -49 -39 -117q-16 -59 -27.5 -144.5t-11.5 -199.5zM573 1616q0 10 7.5 23.5t15.5 23.5q12 18 33.5 40.5t46 41t52.5 32t54 13.5q37 0 81 -12.5t89 -26.5t89 -26.5t83 -12.5 q25 0 46.5 7t40 16.5t32.5 16.5t23 7q10 0 18 -5t8 -15t-4 -20.5t-8 -18.5q-35 -51 -84.5 -97.5t-112.5 -46.5q-37 0 -84 11.5t-96 26t-95 25.5t-83 11q-39 0 -74 -20.5t-51 -20.5q-10 0 -18.5 7.5t-8.5 19.5z" />
<glyph unicode="&#xd6;" horiz-adv-x="1181" d="M2 455q0 135 33 264t90 242.5t133 210t162 165t178 107.5t182 39q98 0 183.5 -35t149 -96.5t99 -145.5t35.5 -184q0 -115 -27.5 -237.5t-78.5 -238.5t-124 -219.5t-162 -180t-192.5 -121.5t-218.5 -45q-88 0 -167.5 35.5t-141 98t-97.5 149.5t-36 192zM250 502 q0 -94 20.5 -168t54 -124t76.5 -77t88 -27q70 0 133.5 48.5t119 129.5t101.5 189.5t77.5 228t49 244.5t17.5 242q0 88 -45 135t-104 47t-116.5 -30.5t-103 -84t-73 -125t-27.5 -153.5q0 -47 12.5 -85t33 -64.5t47 -41t53.5 -14.5q23 0 30.5 4t18.5 4q25 0 24 -24 q0 -10 -10 -23.5t-30.5 -28t-54.5 -23.5t-79 -9q-41 0 -83 21.5t-75.5 60.5t-55 92t-21.5 117q-23 -49 -39 -117q-16 -59 -27.5 -144.5t-11.5 -199.5zM592 1673q0 27 11 54.5t30.5 50t45.5 38t54 15.5q39 0 62.5 -28.5t23.5 -69.5q0 -27 -10 -55.5t-29.5 -51t-46 -38 t-59.5 -15.5q-35 0 -58.5 28.5t-23.5 71.5zM889 1673q0 27 11 54.5t30.5 50t45 38t54.5 15.5q39 0 62.5 -28.5t23.5 -69.5q0 -27 -10 -55.5t-29.5 -51t-46 -38t-59.5 -15.5q-35 0 -58.5 28.5t-23.5 71.5z" />
<glyph unicode="&#xd7;" horiz-adv-x="782" d="M29 385q0 10 4 14l213 213l-211 211q-6 6 -6 17q0 18 14 41.5t31 40.5q16 16 38.5 28.5t39.5 12.5q10 0 14 -5l213 -213l211 211q6 6 18 7q18 0 40 -12.5t38 -28.5t30.5 -41t14.5 -41q0 -8 -4 -13l-215 -215l211 -211q6 -6 6 -18q0 -18 -12 -39.5t-29 -38.5 q-16 -16 -40.5 -30.5t-41.5 -14.5q-8 0 -12 4l-215 215l-211 -211q-6 -6 -16 -6q-18 0 -42 14.5t-40 30.5t-28.5 39t-12.5 39z" />
<glyph unicode="&#xd8;" horiz-adv-x="1181" d="M2 455q0 135 33 264t90 242.5t133 210t162 165t178 107.5t182 39q14 0 28.5 -1t29.5 -3l30 71q4 12 12.5 23.5t18.5 11.5q39 0 77 -14t38 -37q0 -14 -2 -27.5t-6 -25.5l-19 -43q117 -53 188.5 -163t71.5 -253q0 -115 -27.5 -237.5t-78.5 -238.5t-124 -219.5t-162 -180 t-192.5 -121.5t-218.5 -45q-35 0 -67 6l-23 -56q-4 -16 -13 -24t-19 -8h-62q-18 0 -34.5 5t-16.5 31q0 10 2 19.5t6 21.5l23 56q-104 59 -171 168.5t-67 255.5zM250 502q0 -92 18.5 -162t48.5 -121l476 1147q-119 -12 -218.5 -88t-172 -194.5t-112.5 -269t-40 -312.5z M432 117q31 -10 57 -11q70 0 133.5 48.5t119 129.5t101.5 189.5t77.5 228t49 244.5t17.5 242q0 45 -12 80t-35 57z" />
<glyph unicode="&#xd9;" horiz-adv-x="1712" d="M-20 1012q0 94 72.5 180t182 150.5t237.5 102.5t241 38q125 0 205.5 -58.5t80.5 -156.5q0 -68 -27.5 -155t-69.5 -181t-90 -192.5t-90 -191.5t-69.5 -174t-27.5 -143q0 -88 90 -88q49 0 113.5 52.5t131 129t129 160.5t105.5 150q29 102 66.5 206.5t76.5 198t75 170 t65 123.5q25 41 61.5 66.5t75.5 41t75.5 21.5t63.5 6q59 0 59 -28q0 -16 -49 -74q-20 -25 -56 -94.5t-79 -166.5t-87 -212t-81 -230.5t-59.5 -223t-22.5 -187.5q0 -72 34 -103.5t81 -31.5q41 0 81 26.5t71 61.5q37 37 67 88q2 6 10 14q4 4 12.5 9.5t18.5 5.5 q16 0 29.5 -12.5t13.5 -28.5q0 -8 -3 -15.5t-7 -15.5t-8 -19q-45 -72 -101 -127q-47 -47 -111.5 -85.5t-140.5 -38.5q-55 0 -108 20t-95 57t-69 89.5t-27 115.5v34.5t4 39.5q-37 -55 -89 -117.5t-116.5 -116t-139 -88t-156.5 -34.5q-57 0 -108.5 18t-90.5 51t-62.5 76 t-23.5 90q0 66 29.5 153t74 183t95.5 196.5t95 194.5t73.5 178t29.5 148q0 37 -15 64.5t-73 27.5q-47 0 -115.5 -32t-133 -85t-110.5 -122.5t-46 -143.5q0 -47 16.5 -82t34.5 -59.5t34.5 -41t16.5 -26.5q0 -41 -43 -41q-41 0 -97 21.5t-107.5 60.5t-87 90t-35.5 113z M1026 1708q0 16 12.5 40t28.5 45.5t35 35.5t31 14q33 0 49 -41q14 -35 35.5 -73.5t48 -72.5t53.5 -61.5t49 -42.5q20 -10 26.5 -18t6.5 -21q0 -12 -9.5 -21t-27.5 -9q-23 0 -58.5 11t-76.5 30.5t-81 44t-73 53.5q-31 27 -40 44t-9 42z" />
<glyph unicode="&#xda;" horiz-adv-x="1712" d="M-20 1012q0 94 72.5 180t182 150.5t237.5 102.5t241 38q125 0 205.5 -58.5t80.5 -156.5q0 -68 -27.5 -155t-69.5 -181t-90 -192.5t-90 -191.5t-69.5 -174t-27.5 -143q0 -88 90 -88q49 0 113.5 52.5t131 129t129 160.5t105.5 150q29 102 66.5 206.5t76.5 198t75 170 t65 123.5q25 41 61.5 66.5t75.5 41t75.5 21.5t63.5 6q59 0 59 -28q0 -16 -49 -74q-20 -25 -56 -94.5t-79 -166.5t-87 -212t-81 -230.5t-59.5 -223t-22.5 -187.5q0 -72 34 -103.5t81 -31.5q41 0 81 26.5t71 61.5q37 37 67 88q2 6 10 14q4 4 12.5 9.5t18.5 5.5 q16 0 29.5 -12.5t13.5 -28.5q0 -8 -3 -15.5t-7 -15.5t-8 -19q-45 -72 -101 -127q-47 -47 -111.5 -85.5t-140.5 -38.5q-55 0 -108 20t-95 57t-69 89.5t-27 115.5v34.5t4 39.5q-37 -55 -89 -117.5t-116.5 -116t-139 -88t-156.5 -34.5q-57 0 -108.5 18t-90.5 51t-62.5 76 t-23.5 90q0 66 29.5 153t74 183t95.5 196.5t95 194.5t73.5 178t29.5 148q0 37 -15 64.5t-73 27.5q-47 0 -115.5 -32t-133 -85t-110.5 -122.5t-46 -143.5q0 -47 16.5 -82t34.5 -59.5t34.5 -41t16.5 -26.5q0 -41 -43 -41q-41 0 -97 21.5t-107.5 60.5t-87 90t-35.5 113z M1163 1501q0 12 6.5 20.5t26.5 18.5q47 29 99.5 87.5t99.5 133.5q12 20 22.5 30.5t26.5 10.5q12 0 29.5 -14t35 -35.5t28.5 -45.5t11 -40q0 -25 -9 -42t-40 -44q-33 -29 -75 -49.5t-84 -33.5t-78.5 -20.5t-61.5 -7.5q-16 0 -26.5 9.5t-10.5 21.5z" />
<glyph unicode="&#xdb;" horiz-adv-x="1712" d="M-20 1012q0 94 72.5 180t182 150.5t237.5 102.5t241 38q125 0 205.5 -58.5t80.5 -156.5q0 -68 -27.5 -155t-69.5 -181t-90 -192.5t-90 -191.5t-69.5 -174t-27.5 -143q0 -88 90 -88q49 0 113.5 52.5t131 129t129 160.5t105.5 150q29 102 66.5 206.5t76.5 198t75 170 t65 123.5q25 41 61.5 66.5t75.5 41t75.5 21.5t63.5 6q59 0 59 -28q0 -16 -49 -74q-20 -25 -56 -94.5t-79 -166.5t-87 -212t-81 -230.5t-59.5 -223t-22.5 -187.5q0 -72 34 -103.5t81 -31.5q41 0 81 26.5t71 61.5q37 37 67 88q2 6 10 14q4 4 12.5 9.5t18.5 5.5 q16 0 29.5 -12.5t13.5 -28.5q0 -8 -3 -15.5t-7 -15.5t-8 -19q-45 -72 -101 -127q-47 -47 -111.5 -85.5t-140.5 -38.5q-55 0 -108 20t-95 57t-69 89.5t-27 115.5v34.5t4 39.5q-37 -55 -89 -117.5t-116.5 -116t-139 -88t-156.5 -34.5q-57 0 -108.5 18t-90.5 51t-62.5 76 t-23.5 90q0 66 29.5 153t74 183t95.5 196.5t95 194.5t73.5 178t29.5 148q0 37 -15 64.5t-73 27.5q-47 0 -115.5 -32t-133 -85t-110.5 -122.5t-46 -143.5q0 -47 16.5 -82t34.5 -59.5t34.5 -41t16.5 -26.5q0 -41 -43 -41q-41 0 -97 21.5t-107.5 60.5t-87 90t-35.5 113z M983 1573q0 27 33 49q53 35 97 71t104 99q23 29 42 49.5t60 20.5q23 0 34 -6.5t19 -16.5t14.5 -24.5t16.5 -30.5q33 -53 66.5 -92t68.5 -68q20 -14 28.5 -22.5t8.5 -24.5q0 -12 -11.5 -25.5t-27.5 -13.5q-8 0 -28.5 5t-50.5 17.5t-66.5 34t-75.5 54.5q-13 12 -23 12 q-4 0 -12 -4l-16 -8q-35 -20 -74 -40t-74 -35t-60.5 -25.5t-35.5 -10.5q-16 0 -26.5 11.5t-10.5 23.5z" />
<glyph unicode="&#xdc;" horiz-adv-x="1712" d="M-20 1012q0 94 72.5 180t182 150.5t237.5 102.5t241 38q125 0 205.5 -58.5t80.5 -156.5q0 -68 -27.5 -155t-69.5 -181t-90 -192.5t-90 -191.5t-69.5 -174t-27.5 -143q0 -88 90 -88q49 0 113.5 52.5t131 129t129 160.5t105.5 150q29 102 66.5 206.5t76.5 198t75 170 t65 123.5q25 41 61.5 66.5t75.5 41t75.5 21.5t63.5 6q59 0 59 -28q0 -16 -49 -74q-20 -25 -56 -94.5t-79 -166.5t-87 -212t-81 -230.5t-59.5 -223t-22.5 -187.5q0 -72 34 -103.5t81 -31.5q41 0 81 26.5t71 61.5q37 37 67 88q2 6 10 14q4 4 12.5 9.5t18.5 5.5 q16 0 29.5 -12.5t13.5 -28.5q0 -8 -3 -15.5t-7 -15.5t-8 -19q-45 -72 -101 -127q-47 -47 -111.5 -85.5t-140.5 -38.5q-55 0 -108 20t-95 57t-69 89.5t-27 115.5v34.5t4 39.5q-37 -55 -89 -117.5t-116.5 -116t-139 -88t-156.5 -34.5q-57 0 -108.5 18t-90.5 51t-62.5 76 t-23.5 90q0 66 29.5 153t74 183t95.5 196.5t95 194.5t73.5 178t29.5 148q0 37 -15 64.5t-73 27.5q-47 0 -115.5 -32t-133 -85t-110.5 -122.5t-46 -143.5q0 -47 16.5 -82t34.5 -59.5t34.5 -41t16.5 -26.5q0 -41 -43 -41q-41 0 -97 21.5t-107.5 60.5t-87 90t-35.5 113z M1001 1606q0 27 11.5 54.5t31 50t45 37.5t54.5 15q39 0 62.5 -28.5t23.5 -69.5q0 -27 -10.5 -55.5t-30 -51t-46 -38t-59.5 -15.5q-35 0 -58.5 29t-23.5 72zM1298 1606q0 27 11.5 54.5t31 50t45 37.5t54.5 15q39 0 62.5 -28.5t23.5 -69.5q0 -27 -10.5 -55.5t-30 -51t-46 -38 t-59.5 -15.5q-35 0 -58.5 29t-23.5 72z" />
<glyph unicode="&#xdd;" horiz-adv-x="1583" d="M0 1012q0 94 69.5 180t175 150.5t230.5 102.5t238 38q61 0 116.5 -18.5t95.5 -49.5t63.5 -74t23.5 -92q0 -104 -41 -210.5t-89 -207t-89 -190.5t-41 -160q0 -47 24.5 -83t71.5 -36q49 0 102.5 35t104.5 85t95 105.5t73 96.5q45 143 78.5 236.5t63.5 161t60.5 124 t71.5 127.5q25 41 57.5 66.5t68.5 41t69.5 21.5t60.5 6q59 0 59 -28q0 -16 -49 -74q-18 -23 -51 -82t-73 -143t-80.5 -186.5t-71.5 -209.5q-53 -186 -101.5 -355t-95.5 -316q115 43 184.5 101t108.5 118q2 6 10 14q4 4 12.5 9.5t18.5 5.5q16 0 29.5 -12.5t13.5 -28.5 q0 -8 -3 -15.5t-7 -15.5q-4 -9 -8 -19q-47 -78 -140.5 -148.5t-259.5 -127.5q-45 -123 -97 -222.5t-117.5 -170t-146.5 -108.5t-183 -38q-80 0 -149 26t-120 67.5t-79.5 93t-28.5 100.5q0 80 56 131t148.5 83t208 50.5t234.5 32.5q10 0 16 2q33 82 67 177t68 206 q-35 -33 -80 -69.5t-97 -67.5t-110.5 -51.5t-115.5 -20.5q-53 0 -103.5 19.5t-90.5 52.5t-64.5 77t-24.5 91q0 92 47.5 201.5t103.5 222t103 223.5t47 205q0 37 -15 64.5t-73 27.5q-47 0 -115.5 -32t-133 -85t-110.5 -122.5t-46 -143.5q0 -47 16.5 -82t34.5 -59.5t34.5 -41 t16.5 -26.5q0 -41 -43 -41q-41 0 -94 21.5t-100 60.5t-80 90t-33 113zM530 -369q0 -41 31 -69.5t70 -28.5q86 0 159.5 86t147.5 256q-86 -16 -159.5 -42t-129 -57.5t-87.5 -68.5t-32 -76zM1135 1403q0 12 6 20.5t26 18.5q47 29 99.5 87t99.5 134q12 20 22.5 30.5t26.5 10.5 q12 0 29.5 -14.5t35 -36t29 -45t11.5 -39.5q0 -25 -9.5 -42.5t-40.5 -43.5q-33 -29 -74.5 -49.5t-83.5 -34t-79 -20.5t-62 -7q-16 0 -26 9.5t-10 21.5z" />
<glyph unicode="&#xdf;" horiz-adv-x="993" d="M-31 90q0 86 22.5 218t65.5 279.5t102.5 297t133.5 269.5t160 194.5t182 74.5q47 0 99 -20.5t96 -56t73 -82.5t29 -101q0 -84 -52.5 -158.5t-116 -136t-115.5 -107.5t-52 -77q0 -29 33 -69t72.5 -92t73.5 -119.5t34 -149.5q0 -14 -5 -32.5t-9 -37.5q-8 -23 -15 -45 q45 10 84 36t68 52q35 31 61 66q2 6 11 14q4 4 12 9.5t18 5.5q16 0 29.5 -12.5t13.5 -28.5q0 -8 -3 -15.5t-7 -15.5t-8 -19q-23 -37 -80 -81t-132 -82.5t-162 -64.5t-169 -26q-57 0 -98 12.5t-68.5 31t-41 39t-13.5 36.5t12 36t29.5 35t37.5 25.5t32 10.5q29 0 54 -10.5 t48 -22.5q25 -14 49 -31q6 10 12 25q4 12 8.5 27.5t4.5 33.5q0 72 -21.5 129.5t-47.5 108.5t-47.5 97t-21.5 95q0 61 44 133t98.5 148t98.5 152.5t44 148.5q0 23 -15.5 37t-33.5 14q-61 0 -120.5 -68.5t-112 -180t-96.5 -251t-76.5 -280.5t-50 -269t-17.5 -219q0 -18 -7 -29 t-30 -11q-31 0 -65.5 6t-65.5 19t-50.5 34.5t-19.5 50.5z" />
<glyph unicode="&#xe0;" horiz-adv-x="972" d="M-25 193q0 111 42 219t110 195t151.5 140.5t167.5 53.5q61 0 104.5 -15.5t70.5 -33.5q31 -23 49 -47q23 0 48 -5.5t46.5 -16.5t36 -29.5t14.5 -45.5q0 -23 -18.5 -74t-41 -113.5t-41 -129t-18.5 -117.5q0 -25 15.5 -41t42.5 -16q41 0 80.5 26.5t70.5 61.5q37 37 68 88 q2 6 10 14q4 4 12.5 9.5t18.5 5.5q16 0 29.5 -12.5t13.5 -28.5q0 -8 -3 -15.5t-7 -15.5q-5 -9 -9 -19q-45 -72 -100 -127q-47 -47 -111.5 -85.5t-140.5 -38.5q-86 0 -145.5 44t-69.5 130q-41 -51 -88 -88q-41 -33 -92 -59.5t-111 -26.5q-41 0 -79 15t-65.5 44t-44 67.5 t-16.5 86.5zM225 227q0 -92 60 -92q37 0 85 49t91 121t72.5 151t29.5 138q0 45 -21.5 66.5t-52.5 21.5q-45 0 -92 -47t-85 -115.5t-62.5 -148.5t-24.5 -144zM352 1071q0 16 12.5 40t29 45.5t35 35.5t30.5 14q33 0 49 -41q14 -35 35.5 -73.5t48 -72.5t53.5 -61.5t49 -42.5 q20 -10 26.5 -18t6.5 -20t-9 -21.5t-28 -9.5q-23 0 -58.5 11t-76.5 30.5t-81 44t-73 53.5q-31 27 -40 44.5t-9 41.5z" />
<glyph unicode="&#xe1;" horiz-adv-x="972" d="M-25 193q0 111 42 219t110 195t151.5 140.5t167.5 53.5q61 0 104.5 -15.5t70.5 -33.5q31 -23 49 -47q23 0 48 -5.5t46.5 -16.5t36 -29.5t14.5 -45.5q0 -23 -18.5 -74t-41 -113.5t-41 -129t-18.5 -117.5q0 -25 15.5 -41t42.5 -16q41 0 80.5 26.5t70.5 61.5q37 37 68 88 q2 6 10 14q4 4 12.5 9.5t18.5 5.5q16 0 29.5 -12.5t13.5 -28.5q0 -8 -3 -15.5t-7 -15.5q-5 -9 -9 -19q-45 -72 -100 -127q-47 -47 -111.5 -85.5t-140.5 -38.5q-86 0 -145.5 44t-69.5 130q-41 -51 -88 -88q-41 -33 -92 -59.5t-111 -26.5q-41 0 -79 15t-65.5 44t-44 67.5 t-16.5 86.5zM225 227q0 -92 60 -92q37 0 85 49t91 121t72.5 151t29.5 138q0 45 -21.5 66.5t-52.5 21.5q-45 0 -92 -47t-85 -115.5t-62.5 -148.5t-24.5 -144zM442 909q0 12 6.5 20.5t26.5 18.5q47 29 99.5 87.5t99.5 133.5q12 20 22.5 30.5t26.5 10.5q12 0 29.5 -14t35 -35.5 t28.5 -45t11 -40.5q0 -25 -9 -42t-40 -44q-33 -29 -74.5 -49t-83.5 -33.5t-79 -20.5t-62 -7q-16 0 -26.5 9t-10.5 21z" />
<glyph unicode="&#xe2;" horiz-adv-x="972" d="M-25 193q0 111 42 219t110 195t151.5 140.5t167.5 53.5q61 0 104.5 -15.5t70.5 -33.5q31 -23 49 -47q23 0 48 -5.5t46.5 -16.5t36 -29.5t14.5 -45.5q0 -23 -18.5 -74t-41 -113.5t-41 -129t-18.5 -117.5q0 -25 15.5 -41t42.5 -16q41 0 80.5 26.5t70.5 61.5q37 37 68 88 q2 6 10 14q4 4 12.5 9.5t18.5 5.5q16 0 29.5 -12.5t13.5 -28.5q0 -8 -3 -15.5t-7 -15.5q-5 -9 -9 -19q-45 -72 -100 -127q-47 -47 -111.5 -85.5t-140.5 -38.5q-86 0 -145.5 44t-69.5 130q-41 -51 -88 -88q-41 -33 -92 -59.5t-111 -26.5q-41 0 -79 15t-65.5 44t-44 67.5 t-16.5 86.5zM225 227q0 -92 60 -92q37 0 85 49t91 121t72.5 151t29.5 138q0 45 -21.5 66.5t-52.5 21.5q-45 0 -92 -47t-85 -115.5t-62.5 -148.5t-24.5 -144zM283 899q0 27 32 49q53 35 97.5 71t103.5 99q23 29 42.5 49.5t59.5 20.5q23 0 34.5 -6t19.5 -16.5t14 -25t16 -30.5 q33 -53 67 -92t69 -68q20 -14 28 -22t8 -25q0 -12 -11 -25.5t-27 -13.5q-8 0 -29 5t-50.5 17.5t-66.5 34t-76 54.5q-12 12 -22 12q-4 0 -12.5 -4t-16.5 -8q-35 -20 -73.5 -40t-73.5 -35t-60.5 -25.5t-36.5 -10.5q-16 0 -26 11.5t-10 23.5z" />
<glyph unicode="&#xe3;" horiz-adv-x="972" d="M-25 193q0 111 42 219t110 195t151.5 140.5t167.5 53.5q61 0 104.5 -15.5t70.5 -33.5q31 -23 49 -47q23 0 48 -5.5t46.5 -16.5t36 -29.5t14.5 -45.5q0 -23 -18.5 -74t-41 -113.5t-41 -129t-18.5 -117.5q0 -25 15.5 -41t42.5 -16q41 0 80.5 26.5t70.5 61.5q37 37 68 88 q2 6 10 14q4 4 12.5 9.5t18.5 5.5q16 0 29.5 -12.5t13.5 -28.5q0 -8 -3 -15.5t-7 -15.5q-5 -9 -9 -19q-45 -72 -100 -127q-47 -47 -111.5 -85.5t-140.5 -38.5q-86 0 -145.5 44t-69.5 130q-41 -51 -88 -88q-41 -33 -92 -59.5t-111 -26.5q-41 0 -79 15t-65.5 44t-44 67.5 t-16.5 86.5zM219 915q0 10 7 23.5t16 24.5q12 18 33.5 40.5t46 41t52 32t54.5 13.5q37 0 81 -12.5t89 -27t89 -26.5t83 -12q25 0 46.5 7t39.5 16t32.5 16.5t22.5 7.5q10 0 18.5 -5t8.5 -16q0 -10 -4 -20t-8 -19q-35 -51 -84.5 -97t-112.5 -46q-37 0 -84 11.5t-96 25.5 t-95 25.5t-83 11.5q-39 0 -74 -20.5t-51 -20.5q-10 0 -18.5 7t-8.5 19zM225 227q0 -92 60 -92q37 0 85 49t91 121t72.5 151t29.5 138q0 45 -21.5 66.5t-52.5 21.5q-45 0 -92 -47t-85 -115.5t-62.5 -148.5t-24.5 -144z" />
<glyph unicode="&#xe4;" horiz-adv-x="972" d="M-25 193q0 111 42 219t110 195t151.5 140.5t167.5 53.5q61 0 104.5 -15.5t70.5 -33.5q31 -23 49 -47q23 0 48 -5.5t46.5 -16.5t36 -29.5t14.5 -45.5q0 -23 -18.5 -74t-41 -113.5t-41 -129t-18.5 -117.5q0 -25 15.5 -41t42.5 -16q41 0 80.5 26.5t70.5 61.5q37 37 68 88 q2 6 10 14q4 4 12.5 9.5t18.5 5.5q16 0 29.5 -12.5t13.5 -28.5q0 -8 -3 -15.5t-7 -15.5q-5 -9 -9 -19q-45 -72 -100 -127q-47 -47 -111.5 -85.5t-140.5 -38.5q-86 0 -145.5 44t-69.5 130q-41 -51 -88 -88q-41 -33 -92 -59.5t-111 -26.5q-41 0 -79 15t-65.5 44t-44 67.5 t-16.5 86.5zM225 227q0 -92 60 -92q37 0 85 49t91 121t72.5 151t29.5 138q0 45 -21.5 66.5t-52.5 21.5q-45 0 -92 -47t-85 -115.5t-62.5 -148.5t-24.5 -144zM244 963q0 27 11 54t30.5 50t45 38t54.5 15q39 0 62.5 -28.5t23.5 -69.5q0 -27 -10 -55.5t-29.5 -51t-46.5 -38 t-59 -15.5q-35 0 -58.5 29t-23.5 72zM541 963q0 27 11 54t30.5 50t45 38t54.5 15q39 0 62.5 -28.5t23.5 -69.5q0 -27 -10 -55.5t-29.5 -51t-46.5 -38t-59 -15.5q-35 0 -58.5 29t-23.5 72z" />
<glyph unicode="&#xe5;" horiz-adv-x="972" d="M-25 193q0 111 42 219t110 195t151.5 140.5t167.5 53.5q61 0 104.5 -15.5t70.5 -33.5q31 -23 49 -47q23 0 48 -5.5t46.5 -16.5t36 -29.5t14.5 -45.5q0 -23 -18.5 -74t-41 -113.5t-41 -129t-18.5 -117.5q0 -25 15.5 -41t42.5 -16q41 0 80.5 26.5t70.5 61.5q37 37 68 88 q2 6 10 14q4 4 12.5 9.5t18.5 5.5q16 0 29.5 -12.5t13.5 -28.5q0 -8 -3 -15.5t-7 -15.5q-5 -9 -9 -19q-45 -72 -100 -127q-47 -47 -111.5 -85.5t-140.5 -38.5q-86 0 -145.5 44t-69.5 130q-41 -51 -88 -88q-41 -33 -92 -59.5t-111 -26.5q-41 0 -79 15t-65.5 44t-44 67.5 t-16.5 86.5zM225 227q0 -92 60 -92q37 0 85 49t91 121t72.5 151t29.5 138q0 45 -21.5 66.5t-52.5 21.5q-45 0 -92 -47t-85 -115.5t-62.5 -148.5t-24.5 -144zM395 1096q0 90 61.5 151.5t151.5 61.5t151.5 -61.5t61.5 -151.5t-61.5 -151.5t-151.5 -61.5t-151.5 61.5 t-61.5 151.5zM518 1096q0 -37 26.5 -63.5t63.5 -26.5t61.5 26.5t24.5 63.5t-24.5 61.5t-61.5 24.5t-63.5 -24.5t-26.5 -61.5z" />
<glyph unicode="&#xe6;" horiz-adv-x="1232" d="M-25 193q0 111 42 219t110 195t151.5 140.5t167.5 53.5q61 0 105.5 -17.5t73.5 -38.5q33 -23 53 -53q16 18 48 37t70 35t76.5 26.5t71.5 10.5q47 0 88 -18.5t72 -48t48 -68.5t17 -80q0 -37 -16 -89.5t-54 -99.5t-102.5 -80.5t-160.5 -33.5q-23 0 -48 6q-14 2 -30 6 q0 -92 43 -141.5t117 -49.5q72 0 131 30t100 65q49 41 84 94q4 6 12 14q6 4 14.5 9.5t18.5 5.5q16 0 29.5 -12.5t13.5 -28.5q0 -8 -4 -15.5t-8 -15.5q-7 -9 -13 -19q-45 -72 -110 -127q-57 -47 -142.5 -85.5t-201.5 -38.5q-131 0 -216 60t-112 161q-10 -12 -44 -48t-80 -75 t-101.5 -68.5t-108.5 -29.5q-41 0 -79 15t-65.5 44t-44 67.5t-16.5 86.5zM225 227q0 -92 60 -92q37 0 85 49t91 121t72.5 151t29.5 138q0 45 -21.5 66.5t-52.5 21.5q-45 0 -92 -47t-85 -115.5t-62.5 -148.5t-24.5 -144zM768 379q55 0 104.5 30.5t85 74.5t56 91.5t20.5 79.5 q0 41 -37 41q-43 0 -84 -34.5t-72.5 -84t-52 -104.5t-20.5 -94z" />
<glyph unicode="&#xe7;" horiz-adv-x="757" d="M-8 291q0 102 42 195.5t108.5 163t148.5 110.5t160 41q55 0 98 -17.5t72.5 -46t46 -64.5t16.5 -71q0 -27 -11 -54.5t-29.5 -50t-40 -37t-42.5 -14.5q-41 0 -72.5 26t-31.5 60q0 27 12 43.5t27.5 29.5t29 24.5t13.5 27.5t-17.5 29.5t-42.5 13.5q-45 0 -87 -33.5t-74.5 -89 t-53 -124t-20.5 -138.5q0 -106 58 -157.5t144 -51.5q70 0 127.5 29t98.5 64q49 41 86 94q4 6 12 14q6 4 14.5 9.5t18.5 5.5q18 0 30.5 -12.5t12.5 -28.5q0 -8 -4 -15.5t-8 -15.5q-7 -9 -11 -19q-45 -57 -102 -108q-49 -43 -121 -83t-164 -54q0 -23 7.5 -48.5t29.5 -25.5 q25 0 52.5 4t49.5 4q29 0 43.5 -19.5t14.5 -50.5q0 -39 -20.5 -86t-62.5 -88t-103.5 -68.5t-143.5 -27.5q-63 0 -104 25.5t-41 66.5q0 33 22.5 58.5t50.5 25.5q20 0 32.5 -9t24 -21.5t28 -21.5t46.5 -9q31 0 62 12t54.5 29.5t37.5 34t14 24.5q0 10 -10 10q-45 0 -89 -15 t-79 -15q-25 0 -38 17.5t-13 33.5q0 33 8 80t15 76q-61 4 -121 22.5t-107 55t-75.5 94t-28.5 137.5z" />
<glyph unicode="&#xe8;" horiz-adv-x="731" d="M-16 281q0 117 43 213t108.5 164.5t142 105.5t144.5 37q47 0 88 -18.5t71.5 -48t48 -68.5t17.5 -80q0 -37 -16.5 -89.5t-54 -99.5t-102 -80.5t-161.5 -33.5q-23 0 -47 6q-14 2 -30 6q0 -92 53 -141.5t127 -49.5q72 0 131 30t100 65q49 41 84 94q2 6 10 14q4 4 12.5 9.5 t18.5 5.5q16 0 29.5 -12.5t13.5 -28.5q0 -8 -3 -15.5t-7 -15.5q-4 -9 -8 -19q-45 -72 -113 -127q-57 -47 -142 -85.5t-202 -38.5q-78 0 -143.5 22.5t-112.5 62t-73.5 95t-26.5 121.5zM246 379q55 0 104 30.5t85 74.5t56.5 91.5t20.5 79.5q0 41 -37 41q-43 0 -84 -34.5 t-72.5 -84t-52 -104.5t-20.5 -94zM252 1098q0 16 12 39.5t28.5 45t35 36t30.5 14.5q33 0 50 -41q14 -35 35.5 -74t48 -72.5t53 -61.5t49.5 -42q20 -10 26.5 -18.5t6.5 -20.5t-9.5 -21.5t-27.5 -9.5q-23 0 -58.5 11.5t-76.5 31t-81 44t-73 53.5q-31 27 -40 44t-9 42z" />
<glyph unicode="&#xe9;" horiz-adv-x="731" d="M-16 281q0 117 43 213t108.5 164.5t142 105.5t144.5 37q47 0 88 -18.5t71.5 -48t48 -68.5t17.5 -80q0 -37 -16.5 -89.5t-54 -99.5t-102 -80.5t-161.5 -33.5q-23 0 -47 6q-14 2 -30 6q0 -92 53 -141.5t127 -49.5q72 0 131 30t100 65q49 41 84 94q2 6 10 14q4 4 12.5 9.5 t18.5 5.5q16 0 29.5 -12.5t13.5 -28.5q0 -8 -3 -15.5t-7 -15.5q-4 -9 -8 -19q-45 -72 -113 -127q-57 -47 -142 -85.5t-202 -38.5q-78 0 -143.5 22.5t-112.5 62t-73.5 95t-26.5 121.5zM246 379q55 0 104 30.5t85 74.5t56.5 91.5t20.5 79.5q0 41 -37 41q-43 0 -84 -34.5 t-72.5 -84t-52 -104.5t-20.5 -94zM266 918q0 12 6.5 20t26.5 18q47 29 99.5 87.5t99.5 134.5q12 20 22.5 30.5t26.5 10.5q12 0 29.5 -14.5t35 -36t28.5 -45t11 -40.5q0 -25 -9 -42t-40 -44q-33 -29 -75 -49t-84 -33.5t-78.5 -20.5t-61.5 -7q-16 0 -26.5 9t-10.5 22z" />
<glyph unicode="&#xea;" horiz-adv-x="731" d="M-16 281q0 117 43 213t108.5 164.5t142 105.5t144.5 37q47 0 88 -18.5t71.5 -48t48 -68.5t17.5 -80q0 -37 -16.5 -89.5t-54 -99.5t-102 -80.5t-161.5 -33.5q-23 0 -47 6q-14 2 -30 6q0 -92 53 -141.5t127 -49.5q72 0 131 30t100 65q49 41 84 94q2 6 10 14q4 4 12.5 9.5 t18.5 5.5q16 0 29.5 -12.5t13.5 -28.5q0 -8 -3 -15.5t-7 -15.5q-4 -9 -8 -19q-45 -72 -113 -127q-57 -47 -142 -85.5t-202 -38.5q-78 0 -143.5 22.5t-112.5 62t-73.5 95t-26.5 121.5zM147 891q0 27 33 49q53 35 97.5 71t103.5 99q23 29 42 49.5t60 20.5q23 0 34 -6.5 t19.5 -16.5t14.5 -24.5t16 -30.5q33 -53 67 -92t68 -68q20 -14 28.5 -22.5t8.5 -24.5q0 -12 -11 -25.5t-28 -13.5q-8 0 -28.5 5t-50 17.5t-66.5 34t-76 54.5q-12 12 -22 12q-4 0 -12.5 -4t-16.5 -8q-35 -20 -74 -40t-73.5 -35t-60 -25.5t-36.5 -10.5q-16 0 -26.5 11.5 t-10.5 23.5zM246 379q55 0 104 30.5t85 74.5t56.5 91.5t20.5 79.5q0 41 -37 41q-43 0 -84 -34.5t-72.5 -84t-52 -104.5t-20.5 -94z" />
<glyph unicode="&#xeb;" horiz-adv-x="731" d="M-16 281q0 117 43 213t108.5 164.5t142 105.5t144.5 37q47 0 88 -18.5t71.5 -48t48 -68.5t17.5 -80q0 -37 -16.5 -89.5t-54 -99.5t-102 -80.5t-161.5 -33.5q-23 0 -47 6q-14 2 -30 6q0 -92 53 -141.5t127 -49.5q72 0 131 30t100 65q49 41 84 94q2 6 10 14q4 4 12.5 9.5 t18.5 5.5q16 0 29.5 -12.5t13.5 -28.5q0 -8 -3 -15.5t-7 -15.5q-4 -9 -8 -19q-45 -72 -113 -127q-57 -47 -142 -85.5t-202 -38.5q-78 0 -143.5 22.5t-112.5 62t-73.5 95t-26.5 121.5zM201 983q0 27 11 54.5t30.5 50t45 38t54.5 15.5q39 0 62.5 -29t23.5 -70q0 -27 -10 -55.5 t-29.5 -51t-46.5 -37.5t-59 -15q-35 0 -58.5 28.5t-23.5 71.5zM246 379q55 0 104 30.5t85 74.5t56.5 91.5t20.5 79.5q0 41 -37 41q-43 0 -84 -34.5t-72.5 -84t-52 -104.5t-20.5 -94zM498 983q0 27 11 54.5t30.5 50t45 38t54.5 15.5q39 0 62.5 -29t23.5 -70q0 -27 -10 -55.5 t-29.5 -51t-46.5 -37.5t-59 -15q-35 0 -58.5 28.5t-23.5 71.5z" />
<glyph unicode="&#xec;" horiz-adv-x="518" d="M-29 205q0 55 18.5 133t43 157.5t52.5 151.5t46 115q8 16 22.5 27.5t32.5 11.5q23 0 51.5 -14.5t53 -33t41 -38t16.5 -31.5q0 -47 -18.5 -101.5t-40 -115.5t-39 -129.5t-17.5 -142.5q0 -35 17.5 -56.5t48.5 -21.5q41 0 81 26.5t71 61.5q37 37 67 88q2 6 10 14 q4 4 12.5 9.5t18.5 5.5q16 0 29.5 -12.5t13.5 -28.5q0 -8 -3 -15.5t-7 -15.5t-8 -19q-45 -72 -101 -127q-47 -47 -111.5 -85.5t-140.5 -38.5q-117 0 -188.5 62t-71.5 163zM84 1114q0 16 12.5 40t28.5 45.5t34.5 35.5t30.5 14q33 0 50 -41q14 -35 35.5 -73.5t48 -72.5 t53 -61.5t49.5 -42.5q20 -10 26.5 -18t6.5 -20t-9.5 -21.5t-27.5 -9.5q-23 0 -58.5 11t-76.5 30.5t-81 44t-73 53.5q-31 27 -40 44.5t-9 41.5z" />
<glyph unicode="&#xed;" horiz-adv-x="518" d="M-29 205q0 55 18.5 133t43 157.5t52.5 151.5t46 115q8 16 22.5 27.5t32.5 11.5q23 0 51.5 -14.5t53 -33t41 -38t16.5 -31.5q0 -47 -18.5 -101.5t-40 -115.5t-39 -129.5t-17.5 -142.5q0 -35 17.5 -56.5t48.5 -21.5q41 0 81 26.5t71 61.5q37 37 67 88q2 6 10 14 q4 4 12.5 9.5t18.5 5.5q16 0 29.5 -12.5t13.5 -28.5q0 -8 -3 -15.5t-7 -15.5t-8 -19q-45 -72 -101 -127q-47 -47 -111.5 -85.5t-140.5 -38.5q-117 0 -188.5 62t-71.5 163zM106 922q0 12 6.5 20t26.5 19q47 29 99.5 87t99.5 134q12 20 22.5 30.5t26.5 10.5q12 0 29.5 -14.5 t35 -36t29 -45t11.5 -40.5q0 -25 -9.5 -42t-40.5 -44q-33 -29 -74.5 -49t-83.5 -33.5t-79 -20.5t-62 -7q-16 0 -26.5 9t-10.5 22z" />
<glyph unicode="&#xee;" horiz-adv-x="518" d="M-33 889q0 27 33 49q53 35 97 70.5t104 99.5q23 29 42 49.5t60 20.5q23 0 34 -6.5t19.5 -16.5t14.5 -24.5t16 -30.5q33 -53 66.5 -92t68.5 -68q20 -14 28.5 -22.5t8.5 -24.5q0 -12 -11 -25.5t-28 -13.5q-8 0 -28.5 5t-50 17.5t-66.5 34t-76 54.5q-13 12 -23 12 q-4 0 -12 -4l-16 -8q-35 -20 -74 -40t-73.5 -35.5t-60.5 -25.5t-36 -10q-16 0 -26.5 11.5t-10.5 23.5zM-29 205q0 55 18.5 133t43 157.5t52.5 151.5t46 115q8 16 22.5 27.5t32.5 11.5q23 0 51.5 -14.5t53 -33t41 -38t16.5 -31.5q0 -47 -18.5 -101.5t-40 -115.5t-39 -129.5 t-17.5 -142.5q0 -35 17.5 -56.5t48.5 -21.5q41 0 81 26.5t71 61.5q37 37 67 88q2 6 10 14q4 4 12.5 9.5t18.5 5.5q16 0 29.5 -12.5t13.5 -28.5q0 -8 -3 -15.5t-7 -15.5t-8 -19q-45 -72 -101 -127q-47 -47 -111.5 -85.5t-140.5 -38.5q-117 0 -188.5 62t-71.5 163z" />
<glyph unicode="&#xef;" horiz-adv-x="518" d="M-29 205q0 55 18.5 133t43 157.5t52.5 151.5t46 115q8 16 22.5 27.5t32.5 11.5q23 0 51.5 -14.5t53 -33t41 -38t16.5 -31.5q0 -47 -18.5 -101.5t-40 -115.5t-39 -129.5t-17.5 -142.5q0 -35 17.5 -56.5t48.5 -21.5q41 0 81 26.5t71 61.5q37 37 67 88q2 6 10 14 q4 4 12.5 9.5t18.5 5.5q16 0 29.5 -12.5t13.5 -28.5q0 -8 -3 -15.5t-7 -15.5t-8 -19q-45 -72 -101 -127q-47 -47 -111.5 -85.5t-140.5 -38.5q-117 0 -188.5 62t-71.5 163zM25 995q0 27 11 54.5t30.5 50t45 38t54.5 15.5q39 0 62.5 -28.5t23.5 -69.5q0 -27 -10.5 -55.5 t-29.5 -51t-46 -38t-60 -15.5q-35 0 -58 28.5t-23 71.5zM322 995q0 27 11 54.5t30.5 50t45 38t54.5 15.5q39 0 62.5 -28.5t23.5 -69.5q0 -27 -10.5 -55.5t-30 -51t-46 -38t-59.5 -15.5q-35 0 -58 28.5t-23 71.5z" />
<glyph unicode="&#xf0;" horiz-adv-x="829" d="M-16 285q0 86 33.5 188t97 190.5t151.5 147.5t199 59l-72 101l-172 -68q-4 -2 -11 -1t-11 7t-5 23.5t0 36t5 34t14 19.5l113 43q-16 20 -31 43q-12 18 -26.5 37.5t-22.5 32.5q-4 8 -8.5 16t-4.5 18t16.5 25.5t40 30t47 25t36.5 10.5q23 0 35 -19l98 -147l172 67 q16 6 24 -4q2 -6 4.5 -23.5t0.5 -36t-6.5 -34.5t-12.5 -21l-117 -45q39 -61 78 -119.5t70 -112.5t50 -102.5t19 -89.5q0 -82 -35.5 -191.5t-100 -208.5t-154.5 -167.5t-201 -68.5q-37 0 -91 16t-103.5 52t-84 94.5t-34.5 142.5zM203 190q0 -104 90 -104q39 0 89 62.5 t95 151.5t75 186.5t30 168.5q0 33 -20.5 58.5t-53.5 25.5q-41 0 -93.5 -56t-99.5 -139t-79.5 -178.5t-32.5 -175.5z" />
<glyph unicode="&#xf1;" horiz-adv-x="1001" d="M-35 92q0 86 19.5 181.5t46 184.5t54.5 164.5t46 118.5q16 39 55 39q23 0 60 -18.5t84 -91.5q43 37 96 65q45 25 102.5 45.5t122.5 20.5q33 0 65 -16.5t56.5 -42t38.5 -56.5t14 -61q0 -47 -17 -99.5t-36.5 -108t-37 -111.5t-17.5 -111q0 -35 17.5 -56.5t47.5 -21.5 q41 0 81 26.5t71 61.5q37 37 67 88q2 6 11 14q4 4 12 9.5t18 5.5q16 0 29.5 -12.5t13.5 -28.5q0 -8 -3 -15.5t-7 -15.5t-8 -19q-45 -72 -100 -127q-47 -47 -111.5 -85.5t-140.5 -38.5q-117 0 -188.5 60t-71.5 146q0 63 16 122t35.5 114t36 105.5t16.5 97.5q0 14 -12 23 t-29 9q-47 0 -101.5 -44t-102.5 -127t-79.5 -200.5t-31.5 -265.5q0 -27 -11.5 -33.5t-33.5 -6.5q-82 0 -137.5 31.5t-55.5 80.5zM195 952q0 10 7 23.5t15 23.5q12 18 33.5 41t46.5 41.5t52.5 31.5t53.5 13q37 0 81 -12t89 -26.5t89.5 -26.5t82.5 -12q25 0 46.5 7t40 16 t33 16.5t22.5 7.5q10 0 18 -5.5t8 -15.5t-4 -20.5t-8 -18.5q-35 -51 -84 -97t-112 -46q-37 0 -84.5 11t-96.5 25.5t-95 26t-83 11.5q-39 0 -73.5 -20.5t-51.5 -20.5q-10 0 -18 7t-8 19z" />
<glyph unicode="&#xf2;" d="M-12 268q0 129 44 228.5t113.5 167t153.5 102.5t164 35q63 0 118.5 -20.5t95.5 -60.5t63.5 -96.5t23.5 -125.5q0 -82 -34 -172t-93 -168q8 -2 15 -3t18 -1q53 0 96 21.5t76 47.5q37 31 69 70q2 6 11 14q4 4 12 9.5t18 5.5q16 0 29.5 -12.5t13.5 -28.5q0 -8 -3 -15.5 t-7 -15.5q-4 -9 -8 -19q-35 -51 -88 -88q-45 -35 -111.5 -61.5t-156.5 -26.5q-37 0 -80 6q-49 -39 -108.5 -60t-125.5 -21q-63 0 -121.5 22.5t-102.5 61t-69.5 92t-25.5 112.5zM229 217q0 -61 26 -100t73 -39q33 0 63 24q-35 23 -35 50q0 16 11.5 34.5t28 32.5t33.5 23.5 t30 9.5q10 0 22 -4q31 78 47.5 165t16.5 154q0 70 -22.5 99.5t-57.5 29.5t-76 -35.5t-77 -100t-59.5 -152t-23.5 -191.5zM317 1112q0 16 12.5 40t29 45.5t35 35.5t30.5 14q33 0 49 -41q14 -35 35.5 -73.5t48.5 -72.5t53.5 -61.5t48.5 -42.5q20 -10 26.5 -18t6.5 -20 t-9 -21.5t-28 -9.5q-23 0 -58.5 11t-76.5 30.5t-81 44t-72 53.5q-31 27 -40.5 44t-9.5 42z" />
<glyph unicode="&#xf3;" d="M-12 268q0 129 44 228.5t113.5 167t153.5 102.5t164 35q63 0 118.5 -20.5t95.5 -60.5t63.5 -96.5t23.5 -125.5q0 -82 -34 -172t-93 -168q8 -2 15 -3t18 -1q53 0 96 21.5t76 47.5q37 31 69 70q2 6 11 14q4 4 12 9.5t18 5.5q16 0 29.5 -12.5t13.5 -28.5q0 -8 -3 -15.5 t-7 -15.5q-4 -9 -8 -19q-35 -51 -88 -88q-45 -35 -111.5 -61.5t-156.5 -26.5q-37 0 -80 6q-49 -39 -108.5 -60t-125.5 -21q-63 0 -121.5 22.5t-102.5 61t-69.5 92t-25.5 112.5zM229 217q0 -61 26 -100t73 -39q33 0 63 24q-35 23 -35 50q0 16 11.5 34.5t28 32.5t33.5 23.5 t30 9.5q10 0 22 -4q31 78 47.5 165t16.5 154q0 70 -22.5 99.5t-57.5 29.5t-76 -35.5t-77 -100t-59.5 -152t-23.5 -191.5zM356 926q0 12 6.5 20t26.5 19q47 29 99.5 87t99.5 134q12 20 22.5 30.5t26.5 10.5q12 0 29.5 -14.5t35 -36t28.5 -45t11 -39.5q0 -25 -9 -42.5 t-40 -43.5q-33 -29 -75 -49.5t-83.5 -34t-78.5 -20.5t-62 -7q-16 0 -26.5 9t-10.5 22z" />
<glyph unicode="&#xf4;" d="M-12 268q0 129 44 228.5t113.5 167t153.5 102.5t164 35q63 0 118.5 -20.5t95.5 -60.5t63.5 -96.5t23.5 -125.5q0 -82 -34 -172t-93 -168q8 -2 15 -3t18 -1q53 0 96 21.5t76 47.5q37 31 69 70q2 6 11 14q4 4 12 9.5t18 5.5q16 0 29.5 -12.5t13.5 -28.5q0 -8 -3 -15.5 t-7 -15.5q-4 -9 -8 -19q-35 -51 -88 -88q-45 -35 -111.5 -61.5t-156.5 -26.5q-37 0 -80 6q-49 -39 -108.5 -60t-125.5 -21q-63 0 -121.5 22.5t-102.5 61t-69.5 92t-25.5 112.5zM213 883q0 27 33 49q53 35 97 70.5t103 99.5q23 29 42.5 49t60.5 20q23 0 34 -6t19 -16 t14.5 -24.5t16.5 -30.5q33 -53 66.5 -92t68.5 -68q20 -14 28.5 -22.5t8.5 -24.5q0 -12 -11.5 -25.5t-27.5 -13.5q-8 0 -28.5 5t-50.5 17.5t-66.5 34t-75.5 53.5q-13 13 -23 13q-4 0 -12 -4t-16 -9q-35 -20 -74 -39.5t-74 -35t-60.5 -25.5t-35.5 -10q-16 0 -26.5 11t-10.5 24 zM229 217q0 -61 26 -100t73 -39q33 0 63 24q-35 23 -35 50q0 16 11.5 34.5t28 32.5t33.5 23.5t30 9.5q10 0 22 -4q31 78 47.5 165t16.5 154q0 70 -22.5 99.5t-57.5 29.5t-76 -35.5t-77 -100t-59.5 -152t-23.5 -191.5z" />
<glyph unicode="&#xf5;" d="M-12 268q0 129 44 228.5t113.5 167t153.5 102.5t164 35q63 0 118.5 -20.5t95.5 -60.5t63.5 -96.5t23.5 -125.5q0 -82 -34 -172t-93 -168q8 -2 15 -3t18 -1q53 0 96 21.5t76 47.5q37 31 69 70q2 6 11 14q4 4 12 9.5t18 5.5q16 0 29.5 -12.5t13.5 -28.5q0 -8 -3 -15.5 t-7 -15.5q-4 -9 -8 -19q-35 -51 -88 -88q-45 -35 -111.5 -61.5t-156.5 -26.5q-37 0 -80 6q-49 -39 -108.5 -60t-125.5 -21q-63 0 -121.5 22.5t-102.5 61t-69.5 92t-25.5 112.5zM178 928q0 10 7.5 23.5t15.5 23.5q12 18 33.5 40.5t46 41t52 32t54.5 13.5q37 0 81 -12.5 t89 -26.5t89 -26.5t83 -12.5q25 0 46.5 7t40 16.5t32.5 16.5t22 7q10 0 18.5 -5t8.5 -15t-4 -20.5t-8 -18.5q-35 -51 -84.5 -97.5t-112.5 -46.5q-37 0 -84 11.5t-96 26t-95 25.5t-83 11q-39 0 -74 -20.5t-51 -20.5q-10 0 -18.5 7t-8.5 20zM229 217q0 -61 26 -100t73 -39 q33 0 63 24q-35 23 -35 50q0 16 11.5 34.5t28 32.5t33.5 23.5t30 9.5q10 0 22 -4q31 78 47.5 165t16.5 154q0 70 -22.5 99.5t-57.5 29.5t-76 -35.5t-77 -100t-59.5 -152t-23.5 -191.5z" />
<glyph unicode="&#xf6;" d="M-12 268q0 129 44 228.5t113.5 167t153.5 102.5t164 35q63 0 118.5 -20.5t95.5 -60.5t63.5 -96.5t23.5 -125.5q0 -82 -34 -172t-93 -168q8 -2 15 -3t18 -1q53 0 96 21.5t76 47.5q37 31 69 70q2 6 11 14q4 4 12 9.5t18 5.5q16 0 29.5 -12.5t13.5 -28.5q0 -8 -3 -15.5 t-7 -15.5q-4 -9 -8 -19q-35 -51 -88 -88q-45 -35 -111.5 -61.5t-156.5 -26.5q-37 0 -80 6q-49 -39 -108.5 -60t-125.5 -21q-63 0 -121.5 22.5t-102.5 61t-69.5 92t-25.5 112.5zM229 217q0 -61 26 -100t73 -39q33 0 63 24q-35 23 -35 50q0 16 11.5 34.5t28 32.5t33.5 23.5 t30 9.5q10 0 22 -4q31 78 47.5 165t16.5 154q0 70 -22.5 99.5t-57.5 29.5t-76 -35.5t-77 -100t-59.5 -152t-23.5 -191.5zM274 989q0 27 11.5 54.5t31 50t45 38t54.5 15.5q39 0 62.5 -28.5t23.5 -69.5q0 -27 -10.5 -55.5t-30 -51t-46 -38t-59.5 -15.5q-35 0 -58.5 28.5 t-23.5 71.5zM571 989q0 27 11.5 54.5t31 50t45 38t54.5 15.5q39 0 62.5 -28.5t23.5 -69.5q0 -27 -10.5 -55.5t-30 -51t-46 -38t-59.5 -15.5q-35 0 -58.5 28.5t-23.5 71.5z" />
<glyph unicode="&#xf7;" horiz-adv-x="993" d="M82 633q0 10 8 35.5t21.5 52.5t29 47t27.5 20h747q23 0 30 -6t7 -22q0 -10 -9 -36t-23.5 -53.5t-31 -49t-28.5 -21.5h-747q-31 0 -31 33zM315 354q0 27 12.5 54.5t32 50t46 38t57.5 15.5q41 0 65.5 -28.5t24.5 -69.5q0 -27 -11.5 -55.5t-30.5 -51t-48 -38t-62 -15.5 q-37 0 -61.5 28.5t-24.5 71.5zM479 985q0 27 12.5 54.5t32 50t46 38t57.5 15.5q41 0 65.5 -29t24.5 -70q0 -27 -11.5 -55t-32 -51t-49 -38t-61.5 -15q-37 0 -60.5 28.5t-23.5 71.5z" />
<glyph unicode="&#xf8;" d="M-12 268q0 129 44 228.5t113.5 167t153.5 102.5t164 35h13t13 -2l27 57q4 6 11.5 12t17.5 6q33 0 66.5 -8t33.5 -20t-8 -29l-25 -51q70 -35 111 -103.5t41 -164.5q0 -82 -34 -172t-93 -168q8 -2 15 -3t18 -1q53 0 96 21.5t76 47.5q37 31 69 70q2 6 11 14q4 4 12 9.5 t18 5.5q16 0 29.5 -12.5t13.5 -28.5q0 -8 -3 -15.5t-7 -15.5q-4 -9 -8 -19q-35 -51 -88 -88q-45 -35 -111.5 -61.5t-156.5 -26.5q-37 0 -80 6q-49 -39 -108.5 -60t-125.5 -21q-14 0 -26.5 1t-24.5 3l-12 -29q-6 -18 -27 -18h-55q-16 0 -29.5 3t-13.5 17q0 10 6 23l18 40 q-70 39 -112.5 104.5t-42.5 143.5zM229 217q0 -61 26 -100t73 -39q33 0 63 24q-35 23 -35 50q0 16 11.5 34.5t28 32.5t33.5 23.5t30 9.5q10 0 22 -4q31 78 47.5 165t16.5 154q0 70 -22.5 99.5t-57.5 29.5t-76 -35.5t-77 -100t-59.5 -152t-23.5 -191.5z" />
<glyph unicode="&#xf9;" horiz-adv-x="999" d="M-29 178q0 55 18.5 137t43 167t52.5 161t46 119q8 16 22.5 27.5t32.5 11.5q23 0 51.5 -14.5t53 -33t41 -38t16.5 -31.5q0 -47 -20.5 -104.5t-46 -124t-46 -139t-20.5 -146.5q0 -25 12.5 -43t34.5 -18q25 0 51.5 13t51 34.5t45 47t32.5 50.5q16 33 39 100.5t46.5 143 t46 148.5t40.5 116q8 16 22.5 27.5t35.5 11.5q23 0 50.5 -14.5t52 -33t40.5 -38t16 -31.5q0 -47 -18 -101.5t-39.5 -115.5t-40 -129.5t-18.5 -142.5q0 -35 17.5 -56.5t47.5 -21.5q41 0 81 26.5t71 61.5q37 37 67 88q2 6 11 14q4 4 12 9.5t18 5.5q16 0 29.5 -12.5t13.5 -28.5 q0 -8 -3 -15.5t-7 -15.5t-8 -19q-45 -72 -100 -127q-47 -47 -112 -85.5t-140 -38.5q-59 0 -101.5 13t-72 34.5t-48 49t-26.5 56.5q-25 -29 -56.5 -56.5t-68.5 -49t-77 -34.5t-79 -13q-35 0 -72.5 15t-68.5 41.5t-51.5 63.5t-20.5 78zM201 1102q0 16 12 39.5t28.5 45t35 36 t30.5 14.5q33 0 49 -41q14 -35 36 -74t48.5 -72.5t53 -61t49.5 -42.5q20 -10 26 -18t6 -21q0 -12 -9 -21t-27 -9q-23 0 -59 11t-77 30.5t-80.5 44t-72.5 53.5q-31 27 -40 44t-9 42z" />
<glyph unicode="&#xfa;" horiz-adv-x="999" d="M-29 178q0 55 18.5 137t43 167t52.5 161t46 119q8 16 22.5 27.5t32.5 11.5q23 0 51.5 -14.5t53 -33t41 -38t16.5 -31.5q0 -47 -20.5 -104.5t-46 -124t-46 -139t-20.5 -146.5q0 -25 12.5 -43t34.5 -18q25 0 51.5 13t51 34.5t45 47t32.5 50.5q16 33 39 100.5t46.5 143 t46 148.5t40.5 116q8 16 22.5 27.5t35.5 11.5q23 0 50.5 -14.5t52 -33t40.5 -38t16 -31.5q0 -47 -18 -101.5t-39.5 -115.5t-40 -129.5t-18.5 -142.5q0 -35 17.5 -56.5t47.5 -21.5q41 0 81 26.5t71 61.5q37 37 67 88q2 6 11 14q4 4 12 9.5t18 5.5q16 0 29.5 -12.5t13.5 -28.5 q0 -8 -3 -15.5t-7 -15.5t-8 -19q-45 -72 -100 -127q-47 -47 -112 -85.5t-140 -38.5q-59 0 -101.5 13t-72 34.5t-48 49t-26.5 56.5q-25 -29 -56.5 -56.5t-68.5 -49t-77 -34.5t-79 -13q-35 0 -72.5 15t-68.5 41.5t-51.5 63.5t-20.5 78zM328 901q0 12 6 20.5t26 18.5 q47 29 99.5 87t99.5 134q12 20 22.5 30.5t26.5 10.5q12 0 29.5 -14t35 -36t29 -45.5t11.5 -39.5q0 -25 -9.5 -42t-39.5 -44q-33 -29 -75 -49.5t-84 -33.5t-79 -20.5t-61 -7.5q-16 0 -26.5 9.5t-10.5 21.5z" />
<glyph unicode="&#xfb;" horiz-adv-x="999" d="M-29 178q0 55 18.5 137t43 167t52.5 161t46 119q8 16 22.5 27.5t32.5 11.5q23 0 51.5 -14.5t53 -33t41 -38t16.5 -31.5q0 -47 -20.5 -104.5t-46 -124t-46 -139t-20.5 -146.5q0 -25 12.5 -43t34.5 -18q25 0 51.5 13t51 34.5t45 47t32.5 50.5q16 33 39 100.5t46.5 143 t46 148.5t40.5 116q8 16 22.5 27.5t35.5 11.5q23 0 50.5 -14.5t52 -33t40.5 -38t16 -31.5q0 -47 -18 -101.5t-39.5 -115.5t-40 -129.5t-18.5 -142.5q0 -35 17.5 -56.5t47.5 -21.5q41 0 81 26.5t71 61.5q37 37 67 88q2 6 11 14q4 4 12 9.5t18 5.5q16 0 29.5 -12.5t13.5 -28.5 q0 -8 -3 -15.5t-7 -15.5t-8 -19q-45 -72 -100 -127q-47 -47 -112 -85.5t-140 -38.5q-59 0 -101.5 13t-72 34.5t-48 49t-26.5 56.5q-25 -29 -56.5 -56.5t-68.5 -49t-77 -34.5t-79 -13q-35 0 -72.5 15t-68.5 41.5t-51.5 63.5t-20.5 78zM236 936q0 27 32 49q53 35 97.5 71 t103.5 99q23 29 42 49.5t60 20.5q23 0 34 -6.5t19.5 -16.5t14.5 -24.5t16 -30.5q33 -53 67 -92t69 -68q20 -14 28 -22.5t8 -24.5q0 -12 -11 -25.5t-28 -13.5q-8 0 -28.5 5t-50 17.5t-66.5 34t-76 54.5q-12 12 -22 12q-4 0 -12.5 -4t-16.5 -8q-35 -20 -74 -40t-73.5 -35 t-60 -25.5t-36.5 -10.5q-16 0 -26 11.5t-10 23.5z" />
<glyph unicode="&#xfc;" horiz-adv-x="999" d="M-29 178q0 55 18.5 137t43 167t52.5 161t46 119q8 16 22.5 27.5t32.5 11.5q23 0 51.5 -14.5t53 -33t41 -38t16.5 -31.5q0 -47 -20.5 -104.5t-46 -124t-46 -139t-20.5 -146.5q0 -25 12.5 -43t34.5 -18q25 0 51.5 13t51 34.5t45 47t32.5 50.5q16 33 39 100.5t46.5 143 t46 148.5t40.5 116q8 16 22.5 27.5t35.5 11.5q23 0 50.5 -14.5t52 -33t40.5 -38t16 -31.5q0 -47 -18 -101.5t-39.5 -115.5t-40 -129.5t-18.5 -142.5q0 -35 17.5 -56.5t47.5 -21.5q41 0 81 26.5t71 61.5q37 37 67 88q2 6 11 14q4 4 12 9.5t18 5.5q16 0 29.5 -12.5t13.5 -28.5 q0 -8 -3 -15.5t-7 -15.5t-8 -19q-45 -72 -100 -127q-47 -47 -112 -85.5t-140 -38.5q-59 0 -101.5 13t-72 34.5t-48 49t-26.5 56.5q-25 -29 -56.5 -56.5t-68.5 -49t-77 -34.5t-79 -13q-35 0 -72.5 15t-68.5 41.5t-51.5 63.5t-20.5 78zM254 1010q0 27 11 54.5t30.5 50 t45.5 37.5t54 15q39 0 62.5 -28.5t23.5 -69.5q0 -27 -10 -55.5t-29.5 -51t-46 -38t-59.5 -15.5q-35 0 -58.5 29t-23.5 72zM551 1010q0 27 11 54.5t30.5 50t45.5 37.5t54 15q39 0 62.5 -28.5t23.5 -69.5q0 -27 -10 -55.5t-29.5 -51t-46 -38t-59.5 -15.5q-35 0 -58.5 29 t-23.5 72z" />
<glyph unicode="&#xfd;" horiz-adv-x="954" d="M-20 178q0 55 18 137t43 167t52.5 161t45.5 119q8 16 22.5 27.5t33.5 11.5q23 0 51 -14.5t53 -33t41 -38t16 -31.5q0 -41 -20.5 -100.5t-46 -129t-46 -143t-20.5 -141.5q0 -25 12.5 -43t34.5 -18q25 0 51.5 13t51 34.5t45 47t33.5 50.5q29 53 53 119.5t45.5 135.5 t39 134.5t34.5 118.5q4 18 20 28.5t37 10.5q23 0 50.5 -14.5t52 -33t41 -38t16.5 -31.5q0 -23 -12.5 -80t-31 -134t-42 -163t-45.5 -162l-25 -92q98 57 161.5 117.5t108.5 122.5q4 6 13 14q6 4 14 9.5t18 5.5q18 0 30.5 -12.5t12.5 -28.5q0 -8 -4 -15.5t-8 -15.5 q-6 -8 -10 -19q-53 -72 -139 -146.5t-228 -147.5q-27 -92 -60.5 -185.5t-82.5 -167t-117.5 -121t-161.5 -47.5q-47 0 -89 15.5t-73.5 41t-50 61.5t-18.5 77q0 51 31.5 95t89 83t136.5 75t171 73q16 57 26.5 108t18.5 88q-25 -29 -56.5 -56.5t-68.5 -49t-77 -34.5t-78 -13 q-35 0 -73 15t-69 41.5t-51 63.5t-20 78zM143 -434q0 -41 37 -41q33 0 63.5 23.5t57.5 62.5t49.5 91t40.5 108q-55 -31 -100 -65t-78 -66.5t-51.5 -62.5t-18.5 -50zM334 889q0 12 6 20.5t27 18.5q47 29 99 87t99 134q12 20 22.5 30.5t26.5 10.5q12 0 30 -14.5t35 -36 t28.5 -45t11.5 -39.5q0 -25 -9.5 -42.5t-39.5 -43.5q-33 -29 -75 -49.5t-84 -34t-79 -20.5t-61 -7q-16 0 -26.5 9.5t-10.5 21.5z" />
<glyph unicode="&#xff;" horiz-adv-x="954" d="M-20 178q0 55 18 137t43 167t52.5 161t45.5 119q8 16 22.5 27.5t33.5 11.5q23 0 51 -14.5t53 -33t41 -38t16 -31.5q0 -41 -20.5 -100.5t-46 -129t-46 -143t-20.5 -141.5q0 -25 12.5 -43t34.5 -18q25 0 51.5 13t51 34.5t45 47t33.5 50.5q29 53 53 119.5t45.5 135.5 t39 134.5t34.5 118.5q4 18 20 28.5t37 10.5q23 0 50.5 -14.5t52 -33t41 -38t16.5 -31.5q0 -23 -12.5 -80t-31 -134t-42 -163t-45.5 -162l-25 -92q98 57 161.5 117.5t108.5 122.5q4 6 13 14q6 4 14 9.5t18 5.5q18 0 30.5 -12.5t12.5 -28.5q0 -8 -4 -15.5t-8 -15.5 q-6 -8 -10 -19q-53 -72 -139 -146.5t-228 -147.5q-27 -92 -60.5 -185.5t-82.5 -167t-117.5 -121t-161.5 -47.5q-47 0 -89 15.5t-73.5 41t-50 61.5t-18.5 77q0 51 31.5 95t89 83t136.5 75t171 73q16 57 26.5 108t18.5 88q-25 -29 -56.5 -56.5t-68.5 -49t-77 -34.5t-78 -13 q-35 0 -73 15t-69 41.5t-51 63.5t-20 78zM143 -434q0 -41 37 -41q33 0 63.5 23.5t57.5 62.5t49.5 91t40.5 108q-55 -31 -100 -65t-78 -66.5t-51.5 -62.5t-18.5 -50zM256 1008q0 27 11.5 54.5t30.5 50t45 37.5t54 15q39 0 62.5 -28.5t23.5 -69.5q0 -27 -10 -55.5t-29.5 -51 t-46 -38t-59.5 -15.5q-35 0 -58.5 29t-23.5 72zM553 1008q0 27 11 54.5t30.5 50t45.5 37.5t54 15q39 0 62.5 -28.5t23.5 -69.5q0 -27 -10 -55.5t-29.5 -51t-46 -38t-59.5 -15.5q-35 0 -58.5 29t-23.5 72z" />
<glyph unicode="&#x152;" horiz-adv-x="1726" d="M2 455q0 135 33 264t90 242.5t133 210t162 165t178 107.5t182 39q127 0 230.5 -56.5t165.5 -152.5q43 47 99 85t120.5 65.5t132 43t133.5 15.5q55 0 103 -13.5t84 -37t56.5 -57.5t20.5 -75t-28.5 -81.5t-66.5 -73.5t-75 -53.5t-51 -20.5q-18 0 -26.5 7t-8.5 18 q0 14 14.5 34.5t31 48t30.5 63.5t14 81q0 33 -30.5 52.5t-73.5 19.5q-55 0 -111.5 -29t-102.5 -78t-75 -117.5t-29 -148.5q0 -39 7.5 -69.5t17.5 -53.5q10 -27 24 -47q16 2 39 6q18 2 44 4t59 2q121 0 121 -71q0 -31 -36 -63t-95 -32q-37 0 -68 5.5t-53 13.5q-25 8 -45 20 q-76 -45 -135 -106q-51 -53 -93.5 -131t-42.5 -183q0 -129 70 -191.5t199 -62.5q55 0 109 21.5t103.5 54.5t91.5 74t72 80q4 6 13 14q6 4 13 9.5t17 5.5q18 0 30.5 -12.5t12.5 -28.5q0 -8 -4 -15.5t-8 -15.5q-6 -8 -10 -19q-29 -41 -77 -91t-113.5 -94t-145.5 -74.5 t-174 -30.5q-63 0 -126.5 11t-122 35.5t-108 61.5t-79.5 88q-88 -74 -188.5 -115.5t-211.5 -41.5q-88 0 -167.5 35.5t-141 98t-97.5 149.5t-36 192zM250 502q0 -94 20.5 -168t54 -124t76.5 -77t88 -27q53 0 111.5 48.5t114 129.5t104.5 189.5t87 228t59.5 244.5t21.5 242 q0 88 -45 135t-104 47t-116.5 -30.5t-103 -84t-73 -125t-27.5 -153.5q0 -47 12.5 -85t33 -64.5t47 -41t53.5 -14.5q23 0 30.5 4t18.5 4q25 0 24 -24q0 -10 -10 -23.5t-30.5 -28t-54.5 -23.5t-79 -9q-41 0 -83 21.5t-75.5 60.5t-55 92t-21.5 117q-23 -49 -39 -117 q-16 -59 -27.5 -144.5t-11.5 -199.5z" />
<glyph unicode="&#x153;" horiz-adv-x="1243" d="M-12 268q0 129 44 228.5t113.5 167t153.5 102.5t164 35q74 0 136.5 -29t102.5 -82q59 53 126 82t126 29q47 0 88 -18.5t72 -48t48.5 -68.5t17.5 -80q0 -37 -16.5 -89.5t-54.5 -99.5t-102.5 -80.5t-160.5 -33.5q-23 0 -47 6q-14 2 -31 6q0 -92 43 -141.5t117 -49.5 q72 0 131 30t100 65q49 41 84 94q4 6 12 14q6 4 14.5 9.5t18.5 5.5q16 0 29.5 -12.5t13.5 -28.5q0 -8 -4 -15.5t-8 -15.5q-6 -9 -12 -19q-45 -72 -111 -127q-57 -47 -142 -85.5t-202 -38.5q-92 0 -160.5 29.5t-111.5 82.5q-55 -51 -125 -81.5t-148 -30.5q-63 0 -121.5 22.5 t-102.5 61t-69.5 92t-25.5 112.5zM229 217q0 -61 26 -100t73 -39q49 0 89 51t68.5 127t44 161t15.5 150q0 70 -22.5 99.5t-57.5 29.5t-76 -35.5t-77 -100t-59.5 -152t-23.5 -191.5zM778 379q55 0 104.5 30.5t85.5 74.5t56 91.5t20 79.5q0 41 -36 41q-43 0 -84 -34.5t-73 -84 t-52.5 -104.5t-20.5 -94z" />
<glyph unicode="&#x178;" horiz-adv-x="1583" d="M0 1012q0 94 69.5 180t175 150.5t230.5 102.5t238 38q61 0 116.5 -18.5t95.5 -49.5t63.5 -74t23.5 -92q0 -104 -41 -210.5t-89 -207t-89 -190.5t-41 -160q0 -47 24.5 -83t71.5 -36q49 0 102.5 35t104.5 85t95 105.5t73 96.5l24 76q37 115 64.5 192.5t55.5 138t58.5 116 t71.5 126.5q25 41 57.5 66.5t68.5 41t69.5 21.5t60.5 6q59 0 59 -28q0 -16 -49 -74q-18 -23 -51 -82t-73 -143t-80.5 -186.5t-71.5 -209.5q-53 -186 -101.5 -355t-95.5 -316q115 43 184.5 101t108.5 118q2 6 10 14q4 4 12.5 9.5t18.5 5.5q16 0 29.5 -12.5t13.5 -28.5 q0 -8 -3 -15.5t-7 -15.5q-4 -9 -8 -19q-47 -78 -140.5 -148.5t-259.5 -127.5q-45 -123 -97 -222.5t-117.5 -170t-146.5 -108.5t-183 -38q-80 0 -149 26t-120 67.5t-79.5 93t-28.5 100.5q0 80 56 131t148.5 83t208 50.5t234.5 32.5q10 0 16 2q33 82 67 177t68 206 q-35 -33 -80 -69.5t-97 -67.5t-110.5 -51.5t-115.5 -20.5q-53 0 -103.5 19.5t-90.5 52.5t-64.5 77t-24.5 91q0 92 47.5 201.5t103.5 222t103 223.5t47 205q0 37 -15 64.5t-73 27.5q-47 0 -115.5 -32t-133 -85t-110.5 -122.5t-46 -143.5q0 -47 16.5 -82t34.5 -59.5t34.5 -41 t16.5 -26.5q0 -41 -43 -41q-41 0 -94 21.5t-100 60.5t-80 90t-33 113zM530 -369q0 -41 31 -69.5t70 -28.5q86 0 159.5 86t147.5 256q-86 -16 -159.5 -42t-129 -57.5t-87.5 -68.5t-32 -76zM1044 1614q0 27 11.5 54.5t31 50t45 38t54.5 15.5q39 0 62.5 -29t23.5 -70 q0 -27 -10.5 -55.5t-30 -51t-46 -38t-59.5 -15.5q-35 0 -58.5 29t-23.5 72zM1341 1614q0 27 11.5 54.5t31 50t45 38t54.5 15.5q39 0 62.5 -29t23.5 -70q0 -27 -10.5 -55.5t-30 -51t-46 -38t-59.5 -15.5q-35 0 -58.5 29t-23.5 72z" />
<glyph unicode="&#x2c6;" horiz-adv-x="614" d="M12 993q0 27 33 49q53 35 97 71t104 99q23 29 42 49.5t60 20.5q23 0 34 -6t19.5 -16.5t14.5 -24.5t16 -31q33 -53 66.5 -92t68.5 -68q20 -14 28.5 -22t8.5 -25q0 -12 -11 -25.5t-28 -13.5q-8 0 -28.5 5.5t-50 17.5t-66.5 33.5t-76 54.5q-12 12 -22 12q-4 0 -12.5 -4 t-16.5 -8q-35 -20 -74 -39.5t-73.5 -35t-60.5 -26t-36 -10.5q-16 0 -26.5 11.5t-10.5 23.5z" />
<glyph unicode="&#x2dc;" horiz-adv-x="765" d="M20 1034q0 10 7.5 23.5t15.5 23.5q12 18 33.5 41t46 41.5t52.5 31.5t54 13q37 0 81 -12t89 -26.5t89 -27t83 -12.5q25 0 46.5 7.5t40 16.5t33 16.5t22.5 7.5q10 0 18 -5.5t8 -15.5t-4 -20.5t-8 -18.5q-35 -51 -84.5 -97t-112.5 -46q-37 0 -84 11t-96 25.5t-95 26 t-83 11.5q-39 0 -74 -20.5t-51 -20.5q-10 0 -18.5 7t-8.5 19z" />
<glyph unicode="&#x2000;" horiz-adv-x="995" />
<glyph unicode="&#x2001;" horiz-adv-x="1991" />
<glyph unicode="&#x2002;" horiz-adv-x="995" />
<glyph unicode="&#x2003;" horiz-adv-x="1991" />
<glyph unicode="&#x2004;" horiz-adv-x="663" />
<glyph unicode="&#x2005;" horiz-adv-x="497" />
<glyph unicode="&#x2006;" horiz-adv-x="331" />
<glyph unicode="&#x2007;" horiz-adv-x="331" />
<glyph unicode="&#x2008;" horiz-adv-x="248" />
<glyph unicode="&#x2009;" horiz-adv-x="398" />
<glyph unicode="&#x200a;" horiz-adv-x="110" />
<glyph unicode="&#x2010;" horiz-adv-x="890" d="M35 643q0 12 8 20.5t18 8.5t22.5 -8.5t28 -17.5t36 -16t47.5 -7q78 0 148.5 7t134 16t117.5 16.5t101 7.5q27 0 57.5 -21.5t56.5 -49.5t43 -55.5t17 -39.5t-11 -22.5t-19 -10.5q-12 0 -48 20.5t-87 20.5q-74 0 -137.5 -17.5t-122 -37t-109.5 -37t-100 -17.5q-41 0 -77 32 t-63.5 73t-44 80t-16.5 55z" />
<glyph unicode="&#x2011;" horiz-adv-x="890" d="M35 643q0 12 8 20.5t18 8.5t22.5 -8.5t28 -17.5t36 -16t47.5 -7q78 0 148.5 7t134 16t117.5 16.5t101 7.5q27 0 57.5 -21.5t56.5 -49.5t43 -55.5t17 -39.5t-11 -22.5t-19 -10.5q-12 0 -48 20.5t-87 20.5q-74 0 -137.5 -17.5t-122 -37t-109.5 -37t-100 -17.5q-41 0 -77 32 t-63.5 73t-44 80t-16.5 55z" />
<glyph unicode="&#x2012;" horiz-adv-x="890" d="M35 643q0 12 8 20.5t18 8.5t22.5 -8.5t28 -17.5t36 -16t47.5 -7q78 0 148.5 7t134 16t117.5 16.5t101 7.5q27 0 57.5 -21.5t56.5 -49.5t43 -55.5t17 -39.5t-11 -22.5t-19 -10.5q-12 0 -48 20.5t-87 20.5q-74 0 -137.5 -17.5t-122 -37t-109.5 -37t-100 -17.5q-41 0 -77 32 t-63.5 73t-44 80t-16.5 55z" />
<glyph unicode="&#x2013;" horiz-adv-x="1212" d="M35 643q0 12 8 20.5t18 8.5t25.5 -8.5t38 -17.5t55.5 -16t80 -7q78 0 186.5 7t217 16t200.5 16.5t140 7.5q27 0 57.5 -21.5t56 -49.5t43 -55.5t17.5 -39.5t-11.5 -22.5t-19.5 -10.5q-12 0 -48 20.5t-87 20.5q-106 0 -213 -17.5t-202 -37t-173 -37t-127 -17.5 q-63 0 -111.5 32t-82 73t-51 80t-17.5 55z" />
<glyph unicode="&#x2014;" horiz-adv-x="1622" d="M35 643q0 12 8 20.5t18 8.5t25.5 -8.5t38 -17.5t55.5 -16t80 -7q51 0 138 3t190.5 9t214 11t212 11.5t183.5 9.5t127 3q53 0 101.5 -21.5t84 -49.5t56 -55.5t20.5 -39.5t-11 -22.5t-20 -10.5q-6 0 -27.5 6t-51 14.5t-61.5 14.5t-56 6q-72 0 -169 -8t-203.5 -20.5 t-216 -26t-204 -25.5t-166 -20.5t-104.5 -8.5q-63 0 -111.5 32t-82 73t-51 80t-17.5 55z" />
<glyph unicode="&#x2018;" horiz-adv-x="227" d="M41 1126q0 55 29.5 109.5t69.5 98.5t78 71t54 27q29 0 29 -27q0 -14 -10 -30.5t-22.5 -38t-22.5 -49t-10 -64.5q0 -29 11 -47.5t11 -51.5q0 -45 -28.5 -75.5t-79.5 -30.5q-109 0 -109 108z" />
<glyph unicode="&#x2019;" horiz-adv-x="342" d="M113 1044q0 14 10 30t22.5 37.5t22.5 49t10 66.5q0 29 -11 46t-11 50q0 47 28.5 78t79.5 31q55 0 82 -29t27 -82q0 -55 -30 -109.5t-70 -97.5t-77.5 -69.5t-52.5 -26.5q-31 0 -30 26z" />
<glyph unicode="&#x201a;" horiz-adv-x="303" d="M47 -193q0 29 12.5 67t12.5 116q0 29 -11.5 46t-11.5 50q0 47 28.5 78t80.5 31q55 0 81.5 -29t26.5 -82q0 -43 -23.5 -95t-55 -98.5t-63.5 -78t-46 -31.5q-31 0 -31 26z" />
<glyph unicode="&#x201c;" horiz-adv-x="448" d="M6 1126q0 55 30 109.5t69.5 98.5t77.5 71t55 27q29 0 28 -27q0 -14 -10 -30.5t-22.5 -38t-22.5 -49t-10 -64.5q0 -29 11 -47.5t11 -51.5q0 -45 -28.5 -75.5t-79.5 -30.5q-109 0 -109 108zM289 1126q0 55 29.5 109.5t68.5 98.5t77 71t54 27q29 0 29 -27q0 -14 -10.5 -30.5 t-22.5 -38t-22.5 -49t-10.5 -64.5q0 -29 11.5 -47.5t11.5 -51.5q0 -45 -27.5 -75.5t-79.5 -30.5q-109 0 -108 108z" />
<glyph unicode="&#x201d;" horiz-adv-x="653" d="M113 1044q0 14 10 30t22.5 37.5t22.5 49t10 66.5q0 29 -11 46t-11 50q0 47 28.5 78t79.5 31q55 0 82 -29t27 -82q0 -55 -30 -109.5t-70 -97.5t-77.5 -69.5t-52.5 -26.5q-31 0 -30 26zM395 1044q0 14 10.5 30t22.5 37.5t22.5 49t10.5 66.5q0 29 -11.5 46t-11.5 50 q0 47 28 78t79 31q57 0 82.5 -29t25.5 -82q0 -55 -29.5 -109.5t-68.5 -97.5t-77 -69.5t-54 -26.5q-29 0 -29 26z" />
<glyph unicode="&#x201e;" horiz-adv-x="616" d="M6 -166q0 14 10.5 29.5t22.5 37t22.5 49t10.5 66.5q0 29 -11.5 46.5t-11.5 50.5q0 47 28.5 77.5t80.5 30.5q55 0 81.5 -28.5t26.5 -81.5q0 -55 -29.5 -109.5t-69.5 -97.5t-78 -70t-52 -27q-31 0 -31 27zM309 -166q0 14 10.5 29.5t22.5 37t22.5 49t10.5 66.5 q0 29 -11.5 46.5t-11.5 50.5q0 47 28 77.5t79 30.5q57 0 82.5 -28.5t25.5 -81.5q0 -55 -29.5 -109.5t-68.5 -97.5t-77 -70t-54 -27q-29 0 -29 27z" />
<glyph unicode="&#x2022;" horiz-adv-x="286" d="M0 541q0 27 13.5 56.5t35 54t51 41t60.5 16.5q47 0 76.5 -28t29.5 -77q0 -29 -11 -58.5t-32.5 -55t-51.5 -42t-65 -16.5q-49 0 -77.5 30t-28.5 79z" />
<glyph unicode="&#x2026;" horiz-adv-x="1216" d="M23 90q0 27 13 56.5t34.5 54t51.5 41t60 16.5q47 0 77 -27.5t30 -76.5q0 -29 -11.5 -58.5t-33 -55.5t-51 -42t-64.5 -16q-49 0 -77.5 29.5t-28.5 78.5zM428 90q0 27 13.5 56.5t35 54t51 41t60.5 16.5q47 0 76.5 -27.5t29.5 -76.5q0 -29 -11 -58.5t-32.5 -55.5t-51.5 -42 t-64 -16q-49 0 -78 29.5t-29 78.5zM834 90q0 27 13 56.5t34.5 54t51.5 41t60 16.5q47 0 77 -27.5t30 -76.5q0 -29 -11.5 -58.5t-33 -55.5t-51 -42t-64.5 -16q-49 0 -77.5 29.5t-28.5 78.5z" />
<glyph unicode="&#x202f;" horiz-adv-x="398" />
<glyph unicode="&#x2039;" horiz-adv-x="698" d="M41 682q0 35 6 59.5t18.5 47t31 44t40.5 50.5q43 53 137 140t213 191q12 10 26.5 21.5t37.5 11.5q12 0 30.5 -11t36 -28.5t28.5 -37t11 -35.5q0 -18 -9 -28.5t-23 -25.5q-121 -111 -203 -189.5t-107 -105.5q-23 -23 -38 -48t-15 -54q0 -23 13.5 -44.5t31.5 -41.5 q70 -76 152 -157t168 -160q16 -16 23 -24.5t7 -29.5q0 -14 -10 -32.5t-26.5 -36t-35 -29.5t-34.5 -12t-29.5 6t-23.5 16q-68 59 -166.5 151.5t-200.5 203.5q-29 31 -59.5 74.5t-30.5 113.5z" />
<glyph unicode="&#x203a;" horiz-adv-x="698" d="M41 227q0 20 7 28.5t24 25.5q86 80 168 160.5t151 156.5q18 20 31.5 42t13.5 44q0 29 -15 54.5t-38 47.5q-25 27 -106.5 106t-202.5 189q-14 14 -23.5 24.5t-9.5 29.5q0 16 11 35.5t28.5 37t36 28.5t30.5 11q23 0 37.5 -11.5t26.5 -21.5q119 -104 213 -191t137 -140 q23 -29 41.5 -50.5t30.5 -44t18 -47t6 -59.5q0 -70 -30.5 -114t-59.5 -74q-102 -111 -200.5 -203t-165.5 -152q-10 -10 -23.5 -16t-30.5 -6q-16 0 -34.5 12t-35 29.5t-26.5 36t-10 32.5z" />
<glyph unicode="&#x205f;" horiz-adv-x="497" />
<glyph unicode="&#x20ac;" horiz-adv-x="1071" d="M-12 459q0 10 5 29.5t14 38t21.5 32.5t24.5 14h56q4 33 9 65t11 62h-70q-31 0 -30 33q0 10 5 29.5t14 38t21.5 33t24.5 14.5h76q43 115 115.5 209t164 160.5t197 103.5t213.5 37q80 0 140.5 -19.5t100.5 -51.5t59.5 -72.5t19.5 -86.5q0 -53 -32 -102t-75 -89t-88 -63.5 t-72 -23.5q-33 0 -32 35q0 10 7 29.5t15 46t15.5 60.5t7.5 77q0 66 -31 91t-72 25q-51 0 -107.5 -31.5t-106.5 -83.5t-91 -118t-63 -133h243q23 0 30 -6t7 -23q0 -10 -6 -29.5t-16.5 -40t-23.5 -35t-25 -14.5h-242q-6 -33 -10 -64.5t-6 -62.5h251q23 0 30 -6t7 -22 q0 -10 -6 -29.5t-16 -40t-23.5 -35t-25.5 -14.5h-224q0 -55 20.5 -106.5t57.5 -89t90.5 -61.5t118.5 -24q45 0 84 12.5t70.5 30t56.5 37t41 35.5t27.5 23.5t23.5 7.5q29 0 29 -29q0 -23 -27.5 -70t-83 -94t-139.5 -82.5t-195 -35.5q-92 0 -174 28.5t-146.5 85t-103 139 t-45.5 193.5h-86q-31 0 -30 33z" />
<glyph unicode="&#x2122;" horiz-adv-x="1224" d="M23 1188v69q0 16 20 17h463q18 0 18 -17v-69q0 -20 -18 -21h-174v-538q0 -18 -17 -19h-84q-16 0 -16 19v538h-172q-20 0 -20 21zM514 629l41 628q0 16 20 17h105q4 0 10 -3t6 -5q49 -145 78 -225t43 -124.5t21.5 -65t13.5 -44.5q4 18 11 40.5t24.5 71t46.5 130t78 217.5 q0 2 7 5t11 3h103q18 0 18 -17l41 -628q0 -18 -21 -19h-77q-21 1 -21 17q-6 123 -9 197.5t-6 120.5t-5 71.5t-2 48.5q-35 -111 -77 -217.5t-79 -220.5q-4 -14 -18 -15h-62q-16 0 -16 15q-53 154 -80 230.5t-39 112.5t-16.5 48t-10.5 37l-26 -428q0 -16 -17 -17h-78 q-18 0 -18 19z" />
<glyph unicode="&#x25fc;" horiz-adv-x="798" d="M0 0v799h799v-799h-799z" />
</font>
</defs>
</svg>
